<?xml version="1.0" encoding="UTF-8"?>
<svg id="Layer_1" data-name="Layer 1" xmlns="http://www.w3.org/2000/svg" viewBox="0 0 200 200">
  <defs>
    <style>
      .cls-1 {
        fill: #ab2323;
      }

      .cls-2 {
        fill: #d86026;
      }

      .cls-3 {
        fill: #e3782a;
      }

      .cls-4 {
        fill: #e56ea6;
      }

      .cls-5 {
        fill: #eeb938;
      }

      .cls-6 {
        fill: #e68c29;
      }

      .cls-7 {
        fill: #f0b684;
      }

      .cls-8 {
        fill: #c04d27;
      }

      .cls-9 {
        fill: #c12f26;
      }

      .cls-10 {
        fill: #dd5928;
      }

      .cls-11 {
        fill: #d24527;
      }

      .cls-12 {
        fill: #ee9b41;
      }

      .cls-13 {
        fill: #231f20;
      }
    </style>
  </defs>
  <g>
    <path class="cls-13" d="m3.39,169.95l4.25-.37.82-.97v-40.94H3.24v-3.58l13.8-4.4h3.88v5c6.86-4.03,9.55-5.07,13.05-5.07,8.2,0,14.47,7.76,14.47,17.97,0,11.93-8.58,19.91-21.25,19.91-1.49,0-3.88-.15-6.26-.37v11.48l.97.97,4.92.37-.15,3.95H3.39v-3.95Zm17.52-17.08c.97.15,1.42.15,2.01.15,7.68,0,11.78-4.77,11.78-13.72,0-7.61-3.36-11.63-9.55-11.63-1.04,0-2.09.07-4.25.37v24.83Z"/>
    <path class="cls-13" d="m65.16,119.84c.6,2.68.89,4.7.97,6.34l.82,18.2,10.89-20.58v-2.16l11.26-.89,1.42,28.34,9.62-13.35-2.09-13.72c2.01-1.79,3.43-2.39,5.74-2.39,3.65,0,6.12,2.31,6.12,5.82s-2.01,7.98-7.01,14.91c-1.57,2.16-6.19,7.9-13.8,17.15h-8.8l-1.72-25.65-13.95,25.65h-9.47l.75-3.36-1.19-27-7.38-1.19v-2.98l13.5-3.13h4.33Z"/>
    <path class="cls-13" d="m133.14,123.64c-6.34.97-9.62,5.67-9.62,13.8s4.4,13.65,10.96,13.65c3.13,0,5.97-.97,11.78-3.8v6.64c-7.08,3.21-11.19,4.18-16.93,4.18-6.19,0-10.51-1.64-14.09-5.22-3.58-3.58-5.44-8.28-5.44-13.57,0-11.71,8.8-19.69,21.7-19.69,8.58,0,14.47,3.88,14.47,9.47,0,3.73-2.76,6.19-6.86,6.19-2.09,0-3.8-.52-5.97-1.79v-9.84Z"/>
  </g>
  <rect class="cls-1" x="89.92" y="89.01" width="36.48" height="9.62"/>
  <g>
    <rect class="cls-12" x="126.4" y="25.67" width="35.68" height="7.62"/>
    <rect class="cls-7" x="162.08" y="33.29" width="6.62" height="11.02"/>
    <rect class="cls-3" x="126.4" y="33.29" width="35.68" height="11.02"/>
    <rect class="cls-5" x="168.7" y="44.31" width="18.04" height="27.26"/>
    <rect class="cls-6" x="162.08" y="44.31" width="6.62" height="27.26"/>
    <polygon class="cls-2" points="148.45 71.57 162.08 71.57 162.08 44.31 126.4 44.31 126.4 62.55 148.45 62.55 148.45 71.57"/>
    <rect class="cls-4" x="186.74" y="71.57" width="9.62" height="17.44"/>
    <rect class="cls-10" x="168.7" y="71.57" width="18.04" height="17.44"/>
    <rect class="cls-11" x="162.08" y="71.57" width="6.62" height="17.44"/>
    <rect class="cls-9" x="148.45" y="71.57" width="13.63" height="17.44"/>
    <rect class="cls-8" x="126.4" y="62.55" width="22.05" height="9.02"/>
    <rect class="cls-1" x="126.4" y="71.57" width="22.05" height="17.44"/>
  </g>
</svg>