<?xml version="1.0" encoding="UTF-8"?>
<svg id="Layer_1" data-name="Layer 1" xmlns="http://www.w3.org/2000/svg" viewBox="0 0 200 200">
  <defs>
    <style>
      .cls-1 {
        fill: #404041;
      }

      .cls-2 {
        fill: #b3b2b3;
      }

      .cls-3 {
        fill: #8ac441;
      }
    </style>
  </defs>
  <path class="cls-1" d="m192.66,109.04c-.5,1.29-.2,2.67-.43,4-.8,4.58-2.85,8.23-7.22,10.24-4.84,2.23-9.88,2.25-14.74.51-4.85-1.73-8.02-5.31-9.39-10.44-.66-2.48-.87-4.97-.88-7.49-.02-4.75-.04-9.5,0-14.24.04-3.27.48-6.48,1.97-9.45,1.79-3.55,4.47-6.09,8.27-7.44,3.93-1.4,7.96-1.31,11.87-.36,4.65,1.13,7.86,4.16,9.37,8.82.58,1.79.96,3.62.96,5.51,0,.23.02.46.2.64v1.16c-.13.07-.27.2-.4.2-2.86.02-5.71,0-8.57.03-.58,0-.56-.3-.55-.74.03-1.77-.09-3.55-.72-5.21-.94-2.44-3.07-3.18-5.44-3.3-1.88-.1-3.64.36-4.96,1.86-1.58,1.78-2.23,4.01-2.23,6.24-.01,6.94-.53,13.91.25,20.81.5,4.42,2.92,7,7.91,6.76,2.56-.12,4.24-1.73,4.79-4.28.28-1.3.29-2.59.27-3.9-.01-.66.17-.87.84-.86,2.62.03,5.25.02,7.87,0,.42,0,.75.07.96.47v.46Z"/>
  <g>
    <path class="cls-3" d="m36.52,136.85h-8.8c-.38-2.68-.88-5.36-1.13-8.06-.3-3.36-.9-6.67-1.27-10.01-.34-3.04-.87-6.01-.68-9.13.29-4.61.8-9.2.95-13.82.18-5.5.87-10.97,1.03-16.48.04-1.49.03-3.01.25-4.49.56-3.89.47-7.83.85-11.73h8.57c.37.44.43.99.45,1.53.07,2.42.25,4.84.44,7.25.35,4.37.74,8.75.92,13.13.16,3.93.71,7.82.78,11.76.02,1.41.1,2.85.24,4.27.43,4.39,1.04,8.78.63,13.2-.24,2.54-.69,5.07-1.05,7.6-.34,2.35-.68,4.7-1.02,7.05-.38,2.65-.77,5.29-1.15,7.94Z"/>
    <path class="cls-2" d="m46.72,63.15c.4,2.01.8,4.03,1.2,6.04.44,2.21.89,4.41,1.32,6.62.59,2.99,1.19,5.98,1.77,8.98.44,2.28.83,4.57,1.28,6.84.47,2.36.99,4.7,1.47,7.06.45,2.2.82,4.41,1.32,6.6.47,2.08.66,4.21,1.29,6.25.48,1.55-.54,2.8-.99,4.13-.63,1.87-1.44,3.67-2.17,5.5-1.83,4.6-3.66,9.21-5.47,13.82-.24.6-.36,1.24-.54,1.87h-7.41c0-2.01.76-3.88,1.06-5.84.39-2.48.98-4.92,1.5-7.38.58-2.75,1.24-5.49,1.76-8.26.2-1.07.55-2.15.47-3.26-.11-1.41-.24-2.83-.38-4.24-.25-2.52-.51-5.03-.78-7.55-.28-2.67-.57-5.34-.84-8.01-.26-2.63-.5-5.26-.76-7.9-.28-2.82-.59-5.63-.87-8.45-.19-1.98-.22-3.99-.54-5.96-.37-2.28-.59-4.56-.64-6.87,2.32,0,4.63,0,6.95,0Z"/>
    <path class="cls-2" d="m7.34,112.98v-.46c.69-2.81,1.18-5.66,1.71-8.5.66-3.55,1.56-7.06,2.2-10.61.63-3.48,1.35-6.94,2.03-10.41.57-2.95,1.09-5.92,1.74-8.85.39-1.75.55-3.52,1.05-5.26.53-1.85.68-3.82,1-5.73,2.32,0,4.63,0,6.95,0,.08,2.74-.27,5.45-.59,8.15-.33,2.71-.49,5.43-.8,8.14-.31,2.71-.57,5.42-.84,8.14-.27,2.68-.52,5.35-.79,8.03-.26,2.6-.53,5.2-.79,7.8-.28,2.68-.67,5.34-.8,8.03-.15,3.04.95,5.92,1.49,8.88.54,2.92,1.15,5.82,1.74,8.73.53,2.61,1.08,5.21,1.62,7.82h-6.95c-.69-1.69-1.37-3.38-2.06-5.07-1.89-4.61-3.74-9.23-5.69-13.82-.71-1.67-1.15-3.47-2.21-4.98Z"/>
  </g>
  <path class="cls-1" d="m130.78,110.26c.47-1.8.94-3.59,1.39-5.4,1.15-4.61,2.35-9.21,3.42-13.84,1.08-4.7,2.46-9.33,3.36-14.08.01-.07.06-.14.08-.22q.72-2.37,3.22-2.38c3.05,0,6.1.01,9.15-.03.76-.01.98.2.97.96-.02,15.95-.02,31.91,0,47.86,0,.73-.16,1-.95.98-2.62-.05-5.25-.05-7.87,0-.8.02-.94-.29-.93-1,.03-5.14-.15-10.28.08-15.41.2-4.39.39-8.78.62-13.17.04-.65,0-1.31,0-2.06-.56.24-.59.67-.7,1.05-.73,2.59-1.46,5.19-2.21,7.78-1.53,5.34-3.08,10.68-4.61,16.02-.59,2.04-1.2,4.08-1.75,6.13-.14.53-.4.66-.89.65-1.7-.02-3.4-.03-5.1,0-.57,0-.81-.2-.96-.74-.92-3.37-1.94-6.72-2.84-10.09-1.09-4.07-2.38-8.09-3.54-12.14-.77-2.66-1.46-5.35-2.21-8.02-.11-.39-.34-.74-.63-1.09.29,2.65.09,5.29.26,7.92.1,1.54.3,3.07.37,4.61.29,6.17.22,12.35.25,18.52,0,.79-.16,1.06-1,1.05-2.66-.06-5.33-.05-7.99,0-.77.01-.96-.23-.96-.98.02-15.91.02-31.83,0-47.74,0-.91.31-1.08,1.13-1.08,3.51.04,7.03.04,10.54,0,.84,0,1.13.23,1.34,1.11,1.12,4.73,2.38,9.42,3.55,14.14,1.07,4.31,2.09,8.64,3.16,12.96.64,2.57,1.35,5.13,2.03,7.69l.21.04Z"/>
  <path class="cls-1" d="m91.42,103.21c0,6.6-.01,13.21.02,19.81,0,.82-.12,1.14-1.05,1.11-2.54-.07-5.09-.07-7.64,0-.95.02-1.22-.22-1.22-1.2.03-12.74.04-25.49,0-38.23,0-2.73.48-2.46-2.44-2.5-2.51-.03-5.02-.03-7.53.01-.71.01-1.04-.11-1.01-.93.06-2.01.04-4.02,0-6.02-.01-.68.15-.93.89-.93,10.07.03,20.15.03,30.22.02.63,0,.89.13.88.82-.04,2.08-.05,4.17,0,6.25.02.73-.31.78-.9.78-3.05-.03-6.1,0-9.15-.04-.86-.01-1.1.25-1.1,1.12.04,6.64.02,13.28.02,19.93h0Z"/>
</svg>