<?xml version="1.0" encoding="UTF-8"?>
<svg id="Layer_1" data-name="Layer 1" xmlns="http://www.w3.org/2000/svg" viewBox="0 0 200 200">
  <defs>
    <style>
      .cls-1 {
        fill: #fff;
      }

      .cls-1, .cls-2 {
        fill-rule: evenodd;
      }

      .cls-2 {
        fill: #00529c;
      }
    </style>
  </defs>
  <polygon class="cls-2" points="30.79 119.85 28.5 114.26 26.75 119.85 30.79 119.85 30.79 119.85"/>
  <polygon class="cls-2" points="101.43 119.85 100.75 108.51 97.39 119.85 101.43 119.85 101.43 119.85"/>
  <path class="cls-2" d="m60.66,98.88v-33.14H22.36v33.51l1.28-4.27.29-.98h11.08l-.53,1.77c-.84,2.79-2.08,6.87-3.41,11.3l12.56-12.67.4-.41h14.14l-2.55,2.38-17.39,16.25,3.38,7.22h12.71l6.33-20.98h0Z"/>
  <path class="cls-2" d="m64.77,65.74v28.26h7.73c5.94-.07,12.08-.15,15.22,3.58,1.79,2.12,2.29,5.1,1.55,9.1-.68,3.68-3.92,12.24-19.29,12.22h-5s-.22.74-.22.74v.22h23l7.62-24.88.3-.97h7.38v-28.26h-38.29Z"/>
  <polygon class="cls-2" points="123.76 119.85 126.86 109.43 120.12 119.85 123.76 119.85 123.76 119.85"/>
  <path class="cls-2" d="m134.52,119.85h4.38c0-1.94.29-4.17,1.07-6.72,1.54-5.07,3.42-8.86,5.5-11.7v-35.69h-38.3v28.26h2.68l.12,1.24c.06.62,1.2,12.59.91,23.94,2.67-5.43,7.34-13.73,15.17-24.61l.41-.57h14.49l-.43,1.71-6.02,24.15h0Z"/>
  <path class="cls-2" d="m149.58,65.74v31.42c4.25-3.26,8.98-3.93,13.45-3.93,5.71,0,10.22,1.9,12.67,5.34,1.89,2.65,2.36,5.94,1.3,9.03l-.32.93h-.98s-7.52,0-7.52,0h-2.2s.96-1.97.96-1.97c.02-.05.05-.18.07-.27.03-.13.06-.28.11-.44.39-1.32.35-2.33-.12-2.99-.66-.92-2.3-1.47-4.74-1.59-5.57-.26-9.19,3.57-11.74,12.44-.52,1.79-.83,3.42-.93,4.86v1.3h13.4l.05-.17h-8.16l.56-1.79,1.73-5.54.3-.97h18.34l-.49,1.75-1.88,6.71h14.46v-54.11h-38.3Z"/>
  <polygon class="cls-2" points="123.76 119.85 126.86 109.43 120.12 119.85 123.76 119.85 123.76 119.85"/>
  <path class="cls-2" d="m139.2,93.99h-12.73l-.41.57c-7.84,10.88-12.51,19.18-15.17,24.61.28-11.35-.85-23.32-.91-23.94l-.12-1.24h-14.17l-.3.97-11.21,36.58-.54,1.78h9.76l.29-.99,7.06-23.83,1.42,23.53.08,1.29h9.17l.41-.63,15.03-23.27-6.58,22.13-.53,1.77h11.41l.26-1.04,9.12-36.58.43-1.71h-1.76Z"/>
  <path class="cls-1" d="m130.08,131.95h-8.49l9.31-31.33-20.25,31.33h-7.12l-1.89-31.34-9.28,31.34h-6.87l11.21-36.58h11.9s1.82,18.78.42,31.65c0,0,3.54-11.37,18.15-31.65h12.02l-9.12,36.58h0Z"/>
  <path class="cls-2" d="m175.7,98.56c-2.46-3.44-6.96-5.34-12.67-5.34-8.41,0-17.73,2.36-23.06,19.9-2.31,7.61-.46,12.36,1.5,15.01,3.35,4.52,9.16,6.13,13.48,6.13,4.62,0,11.89-.75,14.35-1.73l.63-.25.18-.66,5.18-18.48.49-1.75h-18.34l-.3.97-1.73,5.54-.56,1.79h8.16l-1.92,6.05c-.38.16-1.53.48-4.58.49-2.74,0-4.69-.72-5.79-2.18-1.52-2.02-1.6-5.6-.23-10.35,2.55-8.86,6.17-12.7,11.74-12.44,2.44.12,4.08.67,4.74,1.59.47.66.51,1.67.12,2.99-.05.16-.08.3-.11.44-.02.09-.05.22-.07.27l-.96,1.96h2.2s7.52.01,7.52.01h.98s.32-.93.32-.93c1.07-3.09.59-6.39-1.3-9.03h0Z"/>
  <path class="cls-1" d="m175.69,107.15h-7.52c.12-.26.16-.63.25-.92,1.3-4.36-1.38-6.12-6.11-6.35-6.98-.33-10.75,5.19-13.13,13.43-2.56,8.89-.41,14.32,7.35,14.29,6.16-.02,5.83-1.29,5.83-1.29l2.54-8h-8.17l1.73-5.54h15.51l-5.18,18.48c-2.07.82-8.95,1.63-13.84,1.63-7.36,0-18.06-4.91-13.66-19.36,5.26-17.29,14.38-18.93,21.75-18.93,10.76,0,14.59,6.94,12.66,12.55h0Z"/>
  <path class="cls-2" d="m58.18,94h-14.14l-.4.41-12.56,12.67c1.33-4.43,2.57-8.51,3.41-11.3l.53-1.77h-11.08l-.29.98-10.99,36.6-.53,1.77h11.17l.23-1.09c.13-.53,2.49-8.38,5.08-17.01l6.96,17.24.35.86h12.03l-.92-1.96-8.79-18.76,17.39-16.25,2.55-2.38h0Z"/>
  <path class="cls-1" d="m22.18,131.97h-8.21l10.99-36.6h8.21s-10.83,35.85-10.99,36.6h0Z"/>
  <polygon class="cls-1" points="28.59 111.54 28.58 111.54 44.62 95.37 54.69 95.37 36.57 112.31 45.78 131.97 36.85 131.97 28.58 111.51 28.59 111.54 28.59 111.54"/>
  <path class="cls-2" d="m87.72,97.57c-3.14-3.72-9.28-3.65-15.22-3.58h-10.37l-.29.98-11.04,36.6-.53,1.77h10.4l.29-.98,4.03-13.48h5c15.37.02,18.61-8.54,19.29-12.22.74-4,.23-6.98-1.55-9.1h0Z"/>
  <path class="cls-1" d="m87.92,106.42c-1.09,5.9-6.25,11.11-17.94,11.09h-6.02s-4.32,14.46-4.32,14.46h-7.53l11.04-36.6h9.33c8.44-.1,17.53-.23,15.44,11.05h0Z"/>
  <path class="cls-2" d="m65.39,112.14c2.72,0,4.71.04,6.54,0,5.5-.1,7.19-2,8.43-5.73,2.15-6.47-3.36-5.79-11.61-5.78l-3.35,11.5h0Z"/>
</svg>