<?xml version="1.0" encoding="utf-8"?>
<!-- Generator: Adobe Illustrator 27.6.1, SVG Export Plug-In . SVG Version: 6.00 Build 0)  -->
<svg version="1.1" id="Layer_1" xmlns="http://www.w3.org/2000/svg" xmlns:xlink="http://www.w3.org/1999/xlink" x="0px" y="0px"
	 viewBox="0 0 122.8 122.9" style="enable-background:new 0 0 122.8 122.9;" xml:space="preserve">
<style type="text/css">
	.st0{fill:#FFFFFF;}
</style>
<g>
	<path class="st0" d="M122.1,60.4c0,0.6,0,1.1,0,1.7c-0.3,0.4-0.4,0.9-0.5,1.3c-0.8,3-3.2,5-6.3,5.3c-2.2,0.3-4.4,0.1-6.6,0.2
		c-1.8,0-1.8,0-1.8,1.8c0,13.1,0,26.2,0,39.3c0,1.7,0,3.4-0.2,5.1c-0.3,3-1.5,6.9-6.1,7c-7.9,0-15.9,0-23.8,0c0-2.4-0.1-4.8-0.1-7.2
		c0-10.1,0-20.2,0.1-30.3c0-4.8-3.7-8.3-7.7-8.2c-5.3,0.1-10.5,0.2-15.8,0c-3.3-0.1-7,3.5-7.2,6.6c-0.1,1.1-0.1,2.3-0.1,3.4
		c0.1,11.9,0.2,23.8-0.1,35.7c-7.9,0-15.9,0-23.8,0c-1.1-0.1-4.4-2.5-5.4-4.3c-1.1-2-0.9-4.2-0.9-6.3c0-13.7-0.1-27.5,0-41.2
		c0-1.1-0.3-1.4-1.4-1.4c-2.4,0-4.8,0-7.2-0.2c-4.2-0.4-7.4-5.1-6.2-9.2c0.6-2.1,2-3.7,3.5-5.2c13.4-13.4,26.8-26.9,40.3-40.3
		c3.8-3.8,7.5-7.8,11.5-11.3C59.5,0,63,0,66.3,2.7c3.2,2.6,6,5.8,9,8.7c2.7,2.6,5.4,5.4,8,8.1c0.2,0.2,0.5,0.7,0.9,0.5
		c0.4-0.2,0.2-0.6,0.2-0.9c0-1.1,0-2.1,0-3.2c0-3.7,2.4-6.8,6-7.4c3.4-0.6,6.9-0.5,10.2,0c3.6,0.6,5.9,3.5,6.1,7
		c0.4,8.6,0.1,17.2,0.2,25.9c0,1,0.3,1.8,1,2.5c3,3,6.1,6,9.1,9.1c2,2.1,4.4,4,4.9,7.1C121.8,60.2,122,60.3,122.1,60.4z"/>
</g>
</svg>
