<?xml version="1.0" encoding="UTF-8"?>
<svg id="Layer_1" data-name="Layer 1" xmlns="http://www.w3.org/2000/svg" viewBox="0 0 100 100">
  <path d="m69.73,18.76c-7.98,0-15.97,0-23.95-.01-.66,0-.95.09-1.16.85-1.54,5.6-4.98,9.36-10.75,10.76-6.64,1.61-13.71-1.99-16.31-8.32-.19-.46-.4-.91-.55-1.38-.63-1.88-.62-1.88-2.62-1.88-2.66,0-5.32,0-7.98,0-1.8,0-2.83-.82-2.84-2.25-.02-1.47,1.07-2.37,2.9-2.38,3.03,0,6.07,0,9.1.04.65,0,.99-.07,1.19-.83,1.65-6.12,5.6-9.97,11.86-10.96,5.91-.93,11.78,1.75,14.85,7.75.54,1.06.93,2.22,1.24,3.37.16.58.36.69.91.69,15.22-.02,30.43-.03,45.65-.04.87,0,1.75-.03,2.62,0,1.57.06,2.61.98,2.62,2.28,0,1.39-1.03,2.31-2.68,2.32-8.02.01-16.05,0-24.07,0h0Zm-29.4-2.27c0-5.43-4.3-9.89-9.65-9.78-5.91.12-9.89,4.9-9.71,10.16.17,4.98,4.5,9.42,9.58,9.4,6.04-.02,10.18-5.2,9.77-9.78Z"/>
  <path d="m72.7,85.81c-6.9,0-13.8.04-20.7-.04-1.11-.01-1.44.43-1.66,1.3-1.13,4.44-3.85,7.53-7.96,9.47-7.72,3.65-17.54-1.04-19.54-9.37-.25-1.05-.61-1.43-1.78-1.41-4.95.1-9.89.05-14.84.06-1.08,0-1.94-.38-2.45-1.39-.43-.85-.25-1.62.27-2.33.58-.79,1.43-.9,2.33-.9,4.99,0,9.98-.02,14.97.02.87,0,1.17-.23,1.4-1.07,1.95-7.33,8.38-11.77,15.85-10.78,5.57.74,10.18,4.68,11.67,10.19.36,1.33.91,1.68,2.26,1.68,13.72-.06,27.44-.04,41.16-.04,1.74,0,2.81.88,2.81,2.3,0,1.4-1.08,2.31-2.83,2.32-6.98.01-13.97,0-20.95,0v-.02Zm-45.76-2.31c-.16,5.12,3.89,9.73,9.64,9.76,5.59.03,10.01-4.59,9.75-10.46-.21-4.74-4.73-9.12-9.76-9.1-5.37.02-9.66,4.39-9.63,9.8Z"/>
  <path d="m27.05,52.23c-7.03,0-14.05,0-21.08,0-1.09,0-1.84-.46-2.27-1.42-.4-.9-.14-1.7.48-2.41.55-.64,1.29-.65,2.06-.65,8.77,0,17.54,0,26.32,0,5.07,0,10.14-.03,15.22.03.98.01,1.36-.29,1.59-1.23,1.58-6.37,6.87-10.6,13.28-10.83,6.85-.24,12.66,4.04,14.46,11.12.22.86.53.92,1.21.91,5.24-.01,10.48,0,15.71,0,1.01,0,1.74.37,2.2,1.3.43.86.22,1.62-.28,2.33-.54.77-1.37.83-2.23.83-4.99-.01-9.98.01-14.97-.03-.97,0-1.45.11-1.77,1.24-1.77,6.3-6.34,10.19-12.85,10.75-5.89.51-11.72-2.93-14.13-8.8-.19-.46-.49-.92-.51-1.39-.08-1.7-1.06-1.82-2.49-1.81-6.65.08-13.3.03-19.95.03Zm45.77-2.27c.36-4.86-4.07-9.77-9.65-9.71-5.52.06-9.67,4.3-9.7,9.98-.03,4.96,4.33,9.48,9.66,9.52,5.55.05,10.13-4.87,9.7-9.79Z"/>
</svg>