<?xml version="1.0" encoding="utf-8"?>
<!-- Generator: Adobe Illustrator 27.6.1, SVG Export Plug-In . SVG Version: 6.00 Build 0)  -->
<svg version="1.1" id="Layer_1" xmlns="http://www.w3.org/2000/svg" xmlns:xlink="http://www.w3.org/1999/xlink" x="0px" y="0px"
	 viewBox="0 0 100 100" style="enable-background:new 0 0 100 100;" xml:space="preserve">
<style type="text/css">
	.st0{fill:#8139E7;}
	.st1{fill:#DF5311;}
</style>
<g>
	<g>
		<path class="st1" d="M49.94,74.87c-0.17-0.86-0.18-1.71-0.46-2.51c-0.74-2.1-2.19-3.64-3.87-5c-2.46-1.98-5.22-3.54-7.78-5.39
			c-2.95-2.12-5.64-4.49-7.37-7.77c-1.69-3.21-2.11-6.63-1.78-10.19c0.52-5.51,3.47-9.55,7.72-12.81c2.54-1.96,5.32-3.58,7.91-5.47
			c2.14-1.56,4.18-3.23,5.16-5.83c0.27-0.72,0.34-1.48,0.54-2.22c0.28,0.71,0.3,1.46,0.56,2.16c0.86,2.32,2.55,3.96,4.48,5.36
			c2.66,1.92,5.41,3.71,8.07,5.63c2.66,1.93,4.97,4.21,6.5,7.17c1.66,3.21,2.09,6.64,1.76,10.2c-0.53,5.71-3.75,9.74-8.14,13.04
			c-2.41,1.81-5.01,3.33-7.44,5.1c-1.76,1.27-3.42,2.65-4.54,4.56c-0.59,1.01-0.92,2.08-1.03,3.24
			C50.19,74.37,50.24,74.63,49.94,74.87z M41.28,62.01C45.22,64.87,49.04,67.78,50,73c0.73-3.36,2.52-5.97,5.09-8.1
			c1.11-0.92,2.3-1.74,3.45-2.61c0.13-0.1,0.4-0.14,0.29-0.44c-0.43-0.1-0.72,0.28-1.12,0.31c-0.43,0.03-0.83-0.46-1.1-0.33
			c-0.83,0.37-1.6,0.04-2.39,0.07c-0.64,0.02-1.27-0.01-1.88,0c-0.84,0.02-1.68,0-2.52,0.01c-0.6,0.01-1.2,0.34-1.81-0.07
			c-0.07-0.05-0.21-0.06-0.28-0.02c-0.66,0.4-1.31,0.06-1.95,0.08c-0.82,0.02-1.65-0.03-2.45,0.01
			C42.69,61.94,42.04,62.15,41.28,62.01z M41.76,30.57c0.67,0.08,1.02,0.63,1.52,0.36c0.58-0.32,1.11-0.07,1.67-0.06
			c0.89,0.02,1.77-0.04,2.68,0c0.54,0.02,1.1-0.02,1.66-0.01c0.89,0.02,1.79,0.01,2.68,0c0.56-0.01,1.11,0,1.67,0.01
			c0.89,0.01,1.78-0.03,2.68-0.01c0.54,0.02,1.1-0.31,1.67,0.07c0.12,0.08,0.33,0.1,0.41-0.02c0.14-0.22-0.1-0.29-0.23-0.38
			c-0.56-0.42-1.12-0.83-1.67-1.25c-2.55-1.93-4.78-4.13-5.84-7.26c-0.24-0.71-0.42-1.44-0.62-2.16
			C49.16,24.8,45.74,27.78,41.76,30.57z M55.77,52.42c0.1-0.25,0.18-0.51,0.29-0.75c0.41-0.94,0.03-1.94-0.95-2.49
			c-0.78-0.44-1.56-0.21-2.19,0.65c-0.19,0.26-0.36,0.54-0.5,0.83c-0.19,0.41-0.37,0.46-0.78,0.19c-0.88-0.59-1.49-0.48-2.17,0.29
			c-0.54,0.6-0.79,2.58-0.42,3.29c0.23,0.44,0.6,0.67,1.07,0.71c0.72,0.05,1.54,0.29,1.83-0.74c0.02-0.09,0.12-0.16,0.19-0.22
			c0.16-0.14,0.3-0.42,0.53-0.33c0.24,0.09,0.14,0.39,0.15,0.6c0.07,1.16,0.06,1.15,1.19,1.36c0.36,0.07,0.72,0.21,1.07,0.31
			c1.39,0.4,3.16-0.29,3.89-1.52c0.37-0.62,0.22-1.2-0.17-1.74c-0.35-0.49-0.81-0.59-1.37-0.35C56.91,52.7,56.35,52.65,55.77,52.42z
			 M61.57,33.11c-0.29-0.43-0.71-0.66-1.09-0.92c-0.67-0.45-1.21-1.3-2.23-0.78c-0.09,0.05-0.27,0.01-0.36-0.06
			c-0.48-0.36-0.94-0.08-1.43-0.06c-0.96,0.04-2.02,0.2-2.87-0.02c-1.04-0.27-2.09,0.61-3.03-0.19c-0.03-0.02-0.15,0.03-0.2,0.07
			c-0.54,0.38-1.07,0.05-1.6,0.05c-0.91,0.01-1.83-0.02-2.74,0c-0.54,0.01-1.05,0.02-1.6,0c-0.9-0.03-1.83-0.05-2.73-0.02
			c-1.13,0.04-2.06,0.85-2.92,1.59c-0.16,0.14-0.55,0.23-0.35,0.53c0.17,0.26,0.51,0.34,0.8,0.16c0.52-0.32,1.01-0.35,1.53-0.01
			c0.22,0.14,0.47,0.14,0.7-0.02c0.49-0.33,0.96-0.34,1.45,0.01c0.11,0.08,0.31,0.14,0.42,0.1c0.87-0.35,1.79-0.58,2.66-0.89
			c0.75-0.27,1.21-0.24,1.68,0.34c0.14,0.17,0.24,0.37,0.53,0.31c0.93-0.19,1.9,0.46,2.82-0.11c0.02-0.01,0.05,0,0.07,0.02
			c0.29,0.16,0.44-0.01,0.61-0.22c0.44-0.55,1.05-1.08,1.71-0.64c0.62,0.41,1.44-0.12,1.9,0.58c0.04,0.06,0.08,0.13,0.14,0.18
			c0.41,0.36,0.77,0.46,1.39,0.29c1-0.28,2.09,0.13,3.14-0.11c0.02,0,0.05,0.02,0.07,0.03C60.62,33.77,61.08,33.47,61.57,33.11z
			 M41.9,38.02c0.06-0.31,0.1-0.4,0.09-0.49c-0.04-0.3,0.36-0.6-0.01-0.89c-0.36-0.28-0.69-0.17-1.04,0.04
			c-0.27,0.16-0.61,0.22-0.86,0.08c-0.5-0.29-0.95-0.08-1.45-0.06c-0.96,0.04-1.99,0.16-2.89-0.02c-0.81-0.16-1.13,0-1.48,0.57
			c-0.17,0.27-0.39,0.53-0.51,0.82c-0.11,0.25-0.58,0.46-0.21,0.81c0.3,0.29,0.67,0.42,1.08,0.15c0.41-0.27,0.82-0.11,1.27-0.04
			c0.97,0.14,1.97-0.18,2.94,0.1c0.02,0,0.04-0.02,0.07-0.03c0.49-0.31,0.98-0.3,1.47,0.03c0.2,0.14,0.44,0.15,0.64,0.02
			c0.55-0.36,1.05-0.29,1.6,0.01c0.39,0.22,0.68,0.06,0.63-0.45c-0.03-0.35-0.05-0.69-0.08-1.04c-0.01-0.15-0.05-0.32,0.15-0.35
			c0.23-0.03,0.19,0.17,0.21,0.31c0.05,0.52,0.11,1.04,0.15,1.56c0.05,0.75,0.84,0.93,1.14,1.49c0.07,0.12,0.21-0.13,0.3-0.23
			c0.45-0.46,0.63-1.06,0.79-1.66c0.05-0.16,0.04-0.46,0.33-0.36c0.21,0.07,0.15,0.3,0.08,0.46c-0.28,0.64-0.28,1.27-0.14,1.95
			c0.09,0.46,0.1,0.71,0.63,0.45c0.57-0.28,0.66,0.02,0.55,0.49c-0.13,0.56,0.45,1.12,0.02,1.68c-0.01,0.01,0.05,0.1,0.08,0.1
			c0.74,0.02,0.28,0.48,0.28,0.77c0,0.18-0.25,0.49-0.02,0.52c0.74,0.1,0.37,0.51,0.3,0.85c-0.05,0.23-0.22,0.48,0.23,0.53
			c0.31,0.04,0.18,0.35,0.11,0.48c-0.3,0.65,0.45,1.21,0.16,1.89c-0.02,0.06,0.27,0.54,0.15,0.88c-0.06,0.16-0.04,0.32,0.17,0.32
			c0.4,0,0.35,0.26,0.32,0.51c-0.02,0.13-0.02,0.28,0.16,0.25c0.1-0.02,0.23-0.15,0.24-0.24c0.02-0.16-0.02-0.34-0.07-0.51
			c-0.64-1.99-0.89-4.07-1.34-6.11c-0.46-2.11-0.74-4.26-1.74-6.22c-0.23-0.45-0.5-0.86-0.88-1.19c-0.54-0.47-0.7-0.4-0.89,0.27
			c-0.08,0.28,0.06,0.64-0.3,0.94c-0.05-0.48-0.08-0.87-0.12-1.26c-0.03-0.31-0.15-0.55-0.52-0.42c-0.23,0.08-0.64,0.14-0.17,0.51
			c0.13,0.1-0.01,0.28-0.16,0.35C42.79,36.9,42.45,37.4,41.9,38.02z M64.93,57.03c-0.3-0.03-0.5,0.01-0.63-0.07
			c-0.54-0.33-1.05-0.09-1.59-0.07c-0.91,0.03-1.84-0.15-2.76,0.06c-0.04,0.01-0.1-0.01-0.14-0.04c-0.43-0.3-0.84-0.31-1.3-0.02
			c-0.3,0.18-0.67,0.14-1-0.04c-0.2-0.1-0.43-0.29-0.61-0.25c-1.21,0.24-2.29-0.31-3.43-0.49c-0.87-0.14-1.43,0.21-1.68,1.04
			c-0.08,0.29-0.15,0.58-0.23,0.86c-0.16,0.54-0.18,0.94,0.6,0.7c0.23-0.07,0.48,0.09,0.72,0.13c0.97,0.16,1.97-0.23,2.94,0.12
			c0.03,0.01,0.09-0.05,0.13-0.06c1.1-0.2,2.22,0.11,3.32-0.1c0.06-0.01,0.13,0.08,0.2,0.08c0.96,0.05,1.91-0.01,2.87,0.02
			C63.47,58.93,64.15,57.93,64.93,57.03z M43.4,44c-0.06-0.71-0.28-1.34-0.54-1.91c-0.17-0.37-0.69,0.07-1.03-0.1
			c-0.09-0.04-0.19-0.07-0.27-0.12c-0.32-0.21-0.63-0.08-0.98-0.05c-1.14,0.1-2.3,0.06-3.45,0.03c-1-0.03-2.01-0.01-3.01,0.02
			c-0.46,0.02-0.9,0.23-1.34-0.04c-0.44-0.27-0.64-0.07-0.73,0.35c-0.09,0.44-0.17,0.88-0.26,1.31c-0.05,0.25-0.12,0.49,0.17,0.66
			c0.24,0.14,0.47,0.29,0.75,0.11c0.53-0.35,1.06-0.08,1.59-0.07c0.93,0.01,1.87,0.01,2.8-0.02c0.5-0.02,0.96-0.03,1.47,0
			c0.94,0.07,1.9,0,2.86,0.02c0.5,0.01,1.01-0.27,1.53,0.05C43.29,44.44,43.5,44.4,43.4,44z M39.22,52.15
			c-0.15-0.25-0.12-0.44-0.53-0.42c-0.9,0.05-1.82-0.29-2.74,0.05c-0.11,0.04-0.31-0.13-0.47-0.2c-0.16-0.07-0.34-0.22-0.49-0.12
			c-0.65,0.42-1.26,0.43-1.95,0.04c-0.29-0.16-0.78,0.06-0.71,0.48c0.1,0.58,0.39,1.12,0.6,1.67c0.07,0.17,0.23,0.18,0.38,0.11
			c0.46-0.22,0.88,0.11,1.27,0.09c0.94-0.05,1.88,0,2.81-0.01c0.51-0.01,1.02,0,1.53,0c0.94,0.01,1.88-0.01,2.82,0
			c0.5,0,1-0.28,1.53,0.06c0.48,0.3,0.88-0.08,1.23-0.3c0.34-0.21-0.04-0.52-0.11-0.78c-0.04-0.17-0.16-0.31-0.21-0.47
			c-0.21-0.62-0.42-0.77-1.23-0.67c-0.85,0.11-1.81,0.05-2.71,0.03C39.76,51.72,39.44,51.57,39.22,52.15z M49.12,57.86
			c-0.26-0.02-0.31-0.21-0.41-0.34c-0.48-0.6-0.95-1.21-1.44-1.81c-0.14-0.17-0.33-0.41-0.5-0.05c-0.22,0.47-0.38,0.33-0.59,0.01
			c-0.31-0.47-0.55-0.37-0.76,0.09c-0.2,0.43-0.52,0.57-0.96,0.3c-0.12-0.08-0.28-0.14-0.42-0.15c-0.27-0.01-0.57-0.37-0.79,0.01
			c-0.18,0.32,0.17,0.46,0.33,0.66c0.21,0.27,0.57,0.6,0.25,0.9c-0.41,0.39-0.1,0.53,0.12,0.74c0.14,0.14,0.43,0.27,0.42,0.39
			c-0.08,1,0.61,0.6,1.07,0.62c0.73,0.03,1.69-0.02,2.03,0.51c0.47,0.73,0.99,0.39,1.5,0.45c0.29,0.04,0.6,0.04,0.89,0.01
			c0.3-0.03,0.75,0.26,0.86-0.13c0.13-0.47,0.39-1.04,0.07-1.51c-0.4-0.58-0.9-1.1-1.52-1.48C49.06,57.34,49.25,57.61,49.12,57.86z
			 M62.21,59.57c-0.21-0.07-0.38-0.09-0.52-0.17c-0.98-0.56-2.09,0.38-3.07-0.26c-0.05-0.03-0.18,0.06-0.27,0.11
			c-0.45,0.27-0.89,0.26-1.33-0.03c-0.28-0.19-0.53-0.09-0.83,0c-1.05,0.32-2.16-0.17-3.22,0.14c-0.09,0.03-0.23-0.09-0.33-0.15
			c-0.23-0.15-0.44-0.1-0.7-0.02c-0.87,0.27-0.66,0.98-0.7,1.59c-0.03,0.48-0.03,0.93,0.69,0.59c0.28-0.13,0.57,0.09,0.85,0.12
			c0.99,0.1,2.02,0.09,2.99,0.02c1.13-0.09,2.26,0.18,3.38-0.07c0.06-0.01,0.13,0.09,0.2,0.09c0.12,0,0.27,0.02,0.35-0.05
			C60.54,60.88,61.43,60.35,62.21,59.57z M66.68,38.97c-0.15-0.59-0.38-0.91-0.6-1.24c-0.44-0.63-0.7-1.52-1.8-1.23
			c-0.15,0.04-0.37-0.13-0.54-0.22c-0.19-0.1-0.39-0.18-0.57-0.07c-0.61,0.38-1.19,0.09-1.81,0.07c-0.83-0.03-1.68,0.01-2.52,0
			c-0.62,0-1.24,0.28-1.87-0.1c-0.18-0.11-0.39-0.01-0.54,0.14c-0.18,0.19,0.04,0.3,0.1,0.45c0.13,0.37,0.36,0.75,0.36,1.12
			c0,0.64,0.53,0.97,0.86,0.91c0.89-0.15,1.74-0.05,2.61-0.03c0.56,0.01,1.14-0.03,1.73-0.01c0.86,0.02,1.74,0.02,2.6,0.01
			C65.32,38.77,65.94,38.49,66.68,38.97z M43.74,42.04c-0.45-0.77-0.53-1.46-0.51-2.17c0-0.1-0.03-0.23-0.14-0.22
			c-0.65,0.06-1.16-0.42-1.96-0.21c-0.93,0.24-2.05,0.13-3.06,0.03c-0.46-0.05-0.85-0.02-1.29,0.02c-0.98,0.07-2.01,0.13-2.94-0.01
			c-0.73-0.11-0.9,0.03-1.08,0.57c-0.09,0.26-0.2,0.51-0.29,0.77c-0.05,0.13-0.19,0.32-0.02,0.39c0.44,0.17,0.83,0.64,1.37,0.31
			c0.47-0.29,0.93-0.31,1.39,0c0.25,0.16,0.53,0.19,0.77,0.01c0.47-0.33,0.91-0.11,1.4-0.06c0.97,0.09,1.96,0.01,2.93,0.01
			c0.51,0,1.01-0.24,1.53,0.07c0.13,0.08,0.31,0.24,0.45,0.01c0.1-0.17-0.09-0.25-0.17-0.37c-0.11-0.17-0.42-0.34-0.12-0.54
			c0.27-0.18,0.35,0.18,0.49,0.31C42.83,41.27,42.99,41.82,43.74,42.04z M45.32,54.85c-0.22-0.24-0.14-0.97-0.73-0.73
			c-0.67,0.27-1.25,0.42-1.89,0c-0.08-0.06-0.27-0.05-0.35,0.01c-0.61,0.39-1.22,0.05-1.81,0.06c-0.85,0.01-1.7,0.01-2.55,0
			c-0.6-0.01-1.2,0.31-1.81-0.07c-0.09-0.05-0.27-0.05-0.35,0.01c-0.62,0.39-1.21,0.35-1.82-0.01c-0.18-0.1-0.4-0.05-0.56,0.09
			c-0.2,0.18-0.07,0.36,0.03,0.53c0.24,0.38,0.48,0.75,0.71,1.13c0.22,0.37,0.48,0.54,0.9,0.27c0.3-0.19,0.62-0.12,0.92,0.06
			c0.24,0.14,0.49,0.31,0.76,0.14c0.59-0.37,1.16-0.08,1.75-0.07c0.86,0.01,1.7-0.15,2.59,0.05c0.38,0.08,0.86-0.4,1.4-0.2
			c0.26,0.1,0.27-0.18,0.26-0.33c-0.06-0.62,0.3-0.56,0.7-0.46c0.31,0.08,0.62,0.17,0.93,0.25C44.89,55.72,45.32,55.41,45.32,54.85z
			 M46.53,60.9c0.09-0.2,0.11-0.31,0.17-0.37c0.47-0.46,0.23-0.62-0.27-0.74c-0.77-0.19-1.53-0.1-2.29,0
			c-0.15,0.02-0.4,0.17-0.47-0.03c-0.18-0.55-0.86-0.65-1.06-0.61c-0.87,0.2-1.69,0.03-2.54,0.02c-0.59-0.01-1.19,0.34-1.8-0.07
			c-0.22-0.15-0.47-0.01-0.6,0.15c-0.2,0.24,0.1,0.35,0.23,0.45c0.75,0.58,1.51,1.13,2.27,1.69c0.19,0.14,0.37,0.12,0.61,0.09
			c0.98-0.13,1.98,0.27,2.97-0.08c0.1-0.04,0.28,0.09,0.41,0.16c0.28,0.15,0.55,0.19,0.84,0.01c0.44-0.29,0.89-0.26,1.33,0.01
			c0.29,0.17,0.56,0.16,0.84-0.02c0.44-0.27,0.88-0.29,1.32,0.02c0.25,0.17,0.52,0.18,0.77,0.02c0.48-0.3,0.96-0.34,1.47-0.05
			c0.21-0.63-0.07-0.82-0.59-0.86C48.96,60.58,47.79,60.68,46.53,60.9z M44.28,33.57c-0.53,0.3-0.96,0.59-1.39,0.34
			c-0.52-0.31-0.97-0.03-1.44-0.04c-0.97-0.01-2,0.17-2.88-0.03c-0.8-0.18-1.19,0-1.66,0.47c-0.42,0.42-0.83,0.86-1.28,1.25
			c-0.5,0.43-0.18,0.59,0.2,0.76c0.29,0.12,0.53,0.01,0.77-0.13c0.29-0.17,0.63-0.28,0.92-0.09c0.5,0.33,0.96,0.07,1.45,0.06
			c0.96-0.02,1.92,0.03,2.89-0.01c0.36-0.01,0.6,0.06,0.82-0.26c0.1-0.14,0.25-0.3,0.39-0.33c0.9-0.15,1.08-0.76,1.08-1.53
			C44.16,33.94,44.21,33.85,44.28,33.57z M67.79,51.46c-0.63,0.35-1.19,0.36-1.74-0.02c-0.21-0.14-0.43-0.11-0.63,0.03
			c-0.49,0.34-0.96,0.08-1.46,0.06c-0.95-0.05-1.91,0.01-2.86-0.01c-0.47-0.01-0.96,0.31-1.46-0.03c-0.34-0.23-0.54,0.02-0.76,0.24
			c-0.26,0.27-0.09,0.44,0.1,0.61c0.33,0.29,0.51,0.67,0.61,1.09c0.06,0.24,0.11,0.45,0.43,0.27c0.48-0.28,0.94-0.25,1.4,0.05
			c0.26,0.17,0.51-0.01,0.77-0.02c1.14-0.06,2.3-0.08,3.44-0.02c0.31,0.02,0.58,0.12,0.91,0.01C67.66,53.34,67.53,52.32,67.79,51.46
			z M56.15,34.04c-0.57-0.34-0.63-0.09-0.62,0.33c0,0.39-0.06,0.79-0.14,1.18c-0.1,0.55,0.23,0.68,0.59,0.48
			c0.64-0.35,1.24,0.01,1.8-0.03c0.86-0.06,1.68,0.01,2.51-0.01c0.6-0.01,1.19-0.36,1.79,0.07c0.07,0.05,0.22,0.08,0.28,0.04
			c0.65-0.43,1.29-0.42,1.95-0.03c0.11,0.06,0.26,0.04,0.32-0.09c0.07-0.14-0.07-0.22-0.15-0.3c-0.51-0.51-0.97-1.09-1.55-1.5
			c-0.53-0.38-1.16-0.81-1.89-0.29c-0.12,0.09-0.37,0.13-0.5,0.07c-0.66-0.31-1.3-0.07-1.96-0.06
			C57.75,33.93,56.9,33.58,56.15,34.04z M57.53,56.31c0.64,0.63,1.07-0.05,1.56-0.09c0.53-0.05,0.94,0.68,1.53,0.25
			c0.02-0.01,0.04-0.03,0.07-0.03c1.1-0.03,2.19-0.06,3.29-0.08c0.04,0,0.09,0.03,0.13,0.06c0.32,0.22,0.61,0.16,0.97,0.01
			c0.99-0.43,1.22-1.38,1.78-2.25c-0.54,0.06-0.94,0.17-1.3-0.07c-0.35-0.23-0.68-0.06-1.04-0.03c-1.12,0.09-2.28,0.17-3.36-0.05
			c-0.71-0.14-1.28,0.02-1.56,0.45C59.06,55.26,58.41,55.85,57.53,56.31z M41.27,44.94c-1.07-0.52-1.07-0.52-1.95-0.25
			c-0.35,0.11-0.69,0.08-1-0.12c-0.3-0.2-0.57-0.11-0.9-0.04c-1.09,0.23-2.21-0.08-3.31,0.1c-0.06,0.01-0.14-0.06-0.2-0.1
			c-0.25-0.18-0.51-0.17-0.77-0.01c-0.36,0.22-0.73,0.28-1.14,0.17c-0.59-0.16-0.41,0.37-0.37,0.55c0.09,0.5-0.42,1.46,0.28,1.42
			c0.72-0.04,1.4-0.29,2.11,0.09c0.09,0.05,0.27-0.12,0.41-0.12c1.15-0.02,2.31-0.15,3.44-0.01c0.76,0.1,1.19,0.08,1.51-0.68
			c0.17-0.41,0.43-0.69,0.87-0.84C40.57,44.99,40.89,45.19,41.27,44.94z M43.4,57.13c-0.05-0.08-0.08-0.19-0.13-0.2
			c-0.51-0.07-0.97-0.61-1.45-0.4c-0.65,0.29-1.23,0.03-1.82,0.06c-0.86,0.03-1.71-0.03-2.54,0.01c-0.63,0.03-1.21,0.28-1.82-0.09
			c-0.24-0.14-0.52-0.02-0.66,0.19c-0.16,0.23,0.13,0.35,0.24,0.47c0.45,0.49,0.94,0.96,1.41,1.44c0.27,0.28,0.52,0.41,0.91,0.16
			c0.35-0.23,0.73-0.12,1.14-0.01c0.95,0.25,1.97-0.29,2.93,0.15c0.03,0.01,0.09-0.04,0.13-0.06c0.46-0.29,0.92-0.32,1.39,0
			c0.18,0.12,0.44,0.26,0.61,0.05c0.23-0.29-0.18-0.33-0.27-0.5c-0.05-0.08-0.14-0.14-0.22-0.2c-0.41-0.28-0.78-0.55-0.02-0.86
			C43.29,57.31,43.34,57.21,43.4,57.13z M52.54,42.58c0.58-0.16,1.02-0.05,1.43,0.23c0.14,0.1,0.25,0.18,0.47,0.1
			c0.75-0.28,1.02-0.13,1.17,0.63c0.14,0.73,0.21,1.47,0.17,2.22c-0.02,0.36-0.02,0.74,0.46,0.85c0.11-0.73-0.06-1.43-0.13-2.23
			c0.51,0.29,0.32,1,0.99,0.99c-0.19-0.68-0.03-1.37-0.26-2.01c-0.04-0.11-0.08-0.27,0.07-0.32c0.19-0.07,0.26,0.07,0.31,0.23
			c0.07,0.24,0.03,0.55,0.46,0.6c-0.08-0.65,0.02-1.27-0.19-1.86c-0.05-0.15-0.12-0.3,0.09-0.36c0.21-0.06,0.24,0.12,0.27,0.26
			c0.09,0.38,0.24,0.69,0.73,0.74c-0.09-0.66,0.06-1.3-0.15-1.93c-0.05-0.14-0.19-0.36,0.08-0.43c0.2-0.05,0.21,0.16,0.25,0.29
			c0.09,0.28,0.22,0.54,0.61,0.64c-0.11-0.66,0.05-1.27-0.14-1.88c-0.09-0.29-0.21-0.45-0.52-0.26c-0.5,0.3-1.01,0.28-1.61-0.08
			c0.1,0.5,0.18,0.87,0.27,1.3c-0.37-0.21-0.32-0.69-0.76-0.77c-0.18,1.08-0.33,2.14-0.31,3.24c-0.08-0.6-0.39-0.82-0.93-1
			c-0.51-0.17-0.91-0.31-1.38,0.02c-0.14,0.1-0.42,0.14-0.57,0.07C52.71,41.55,52.64,42,52.54,42.58z M39.15,47.8
			c0.11-0.51,0.04-0.93-0.77-0.62c-0.1,0.04-0.26-0.01-0.36-0.07c-0.48-0.31-0.95-0.08-1.44-0.06c-0.98,0.04-2.04,0.21-2.94-0.02
			c-0.76-0.2-1.28,0.09-1.89,0.2c-0.34,0.06-0.17,0.47-0.16,0.72c0.01,0.39-0.05,0.8,0.23,1.14c0.03,0.03,0.19-0.02,0.27-0.06
			c0.5-0.29,1-0.26,1.48,0.04c0.27,0.17,0.51,0.01,0.77-0.05c1.07-0.24,2.19-0.13,3.23-0.02C38.74,49.12,39.16,49.09,39.15,47.8z
			 M68.23,49.85c0.1-0.24-0.03-0.39-0.25-0.51c-0.32-0.18-0.58-0.22-0.97-0.09c-1.07,0.37-2.2-0.16-3.29,0.14
			c-0.08,0.02-0.21-0.11-0.32-0.17c-0.21-0.11-0.42-0.16-0.63-0.01c-0.51,0.37-1.01,0.34-1.53,0.02c-0.23-0.14-0.58-0.03-0.49,0.18
			c0.26,0.61-0.23,0.62-0.52,0.84c-0.48,0.37-0.48,1.04-0.17,0.95c0.94-0.26,1.89,0.12,2.75-0.08c1.1-0.24,2.19,0.34,3.25-0.15
			c0.05-0.02,0.13,0.05,0.2,0.08C67.29,51.48,68.11,50.99,68.23,49.85z M55.42,48.02c0.16-1.41-0.49-2.58-0.92-3.81
			c-0.14-0.41-0.33-0.35-0.54-0.04c-1.18,1.75-2.28,3.54-3.3,5.39c-0.06,0.1-0.15,0.21-0.08,0.34c0.2,0.35,1.49,0.37,1.71,0.03
			c0.43-0.66,0.89-1.31,1.74-1.37c0.67-0.05,0.87-0.25,0.47-0.84c-0.07-0.11-0.09-0.24,0.04-0.32c0.12-0.08,0.23-0.02,0.32,0.09
			C55.03,47.66,55.07,47.95,55.42,48.02z M61.32,47.84c0.22,0.25,0.49-0.08,0.58,0.2c0.09,0.28-0.19,0.32-0.35,0.38
			c-0.45,0.17-0.26,0.31,0,0.47c0.28,0.17,0.56,0.19,0.84,0.01c0.24-0.15,0.53-0.32,0.77-0.2c0.67,0.34,1.32,0.03,1.95,0.06
			c0.83,0.04,1.69-0.1,2.46,0.01c0.93,0.14,0.85-0.25,0.86-0.81c0.01-0.47,0.19-1-0.49-1.22c-0.29-0.09-0.5-0.02-0.77,0.03
			c-1.11,0.22-2.29,0.2-3.36,0.02c-0.79-0.14-1.26,0.11-1.8,0.44C61.75,47.38,61.56,47.62,61.32,47.84z M59.68,39.47
			c0.14,0.12,0.29,0.24,0.43,0.38c0.16,0.15,0.32,0.31,0.47,0.48c0.6,0.66,0.78,0.63,1.24-0.18c0.11-0.19,0.13-0.6,0.46-0.44
			c0.26,0.12-0.01,0.38-0.07,0.58c-0.13,0.44-0.15,1.16,0.32,1.06c0.86-0.19,1.65-0.22,2.48,0.03c0.05,0.02,0.14-0.04,0.2-0.08
			c0.5-0.31,0.98-0.27,1.47,0.01c0.37,0.21,0.7,0.1,0.9-0.21c0.17-0.26-0.54-1.69-0.85-1.76c-0.67-0.15-1.32-0.61-2.02-0.05
			c-0.16,0.13-0.44,0.06-0.64-0.05c-0.95-0.54-2.04,0.46-2.98-0.28c-0.01-0.01-0.04,0.02-0.07,0.03
			C60.64,39.25,60.2,39.37,59.68,39.47z M39.21,50.12c0.06-0.48,0.04-0.96-0.79-0.53c-0.25,0.13-0.54,0.02-0.78-0.13
			c-0.32-0.21-0.61-0.12-0.97-0.04c-1.06,0.25-2.16-0.13-3.23,0.11c-0.06,0.01-0.14-0.04-0.2-0.09c-0.54-0.42-1.07-0.06-1.32,0.26
			c-0.3,0.38,0.04,0.94,0.16,1.41c0.04,0.15,0.2,0.1,0.32,0.04c0.45-0.22,0.87-0.13,1.26,0.14c0.27,0.18,0.5,0.03,0.76-0.04
			c1.08-0.28,2.2,0.12,3.29-0.12c0.02,0,0.04,0.02,0.07,0.03C38.76,51.59,39.25,51.28,39.21,50.12z M62.84,46.14
			c0.85,0.14,1.67,0.71,2.52,0.05c0.76,0.38,1.59-0.02,2.28,0.09c1.13,0.18,0.79-0.41,0.79-0.9c0-0.35-0.1-0.69-0.1-1.04
			c-0.01-0.55-0.26-0.5-0.68-0.37c-1.13,0.33-2.29,0.07-3.43,0.06c-0.57,0-0.65,0.15-0.51,0.51c0.11,0.29,0.07,0.43-0.16,0.53
			C63.07,45.28,62.98,45.72,62.84,46.14z M48.6,51.61c-0.34,0.2-0.59,0.4-0.88,0.51c-0.29,0.12-0.34,0.27-0.32,0.56
			c0.06,0.85-0.28,1.06-1.06,0.68c-0.12-0.06-0.21-0.25-0.39-0.06c0.16,0.46,0.24,1.11,0.63,1.28c0.73,0.33,1.1,0.97,1.62,1.48
			c0.1,0.1,0.24,0.34,0.32,0.22c0.37-0.53,0.56,0,0.73,0.14c0.49,0.38,0.93,0.82,1.4,1.23c0.11,0.09,0.31,0.37,0.4,0.15
			c0.22-0.53,0.56-1.07,0.39-1.7c-0.15-0.57-0.64-0.55-1.08-0.58c-1.4-0.09-2-0.76-1.9-2.17C48.49,52.79,48.54,52.24,48.6,51.61z
			 M48.9,45.44c0.04-0.01,0.09-0.01,0.13-0.02c0-0.76,0.03-1.53-0.01-2.29c-0.11-2.27-0.04-4.57-1.2-6.67
			c-0.33-0.6-0.69-0.85-1.32-0.77c-0.19,0.02-0.44-0.05-0.55,0.12c-0.15,0.23,0.13,0.33,0.24,0.48c0.38,0.5,0.67,1.04,0.91,1.62
			c0.58,1.41,0.88,2.88,1.19,4.36C48.51,43.32,48.7,44.38,48.9,45.44z M49.83,48.3c0.34-0.32,0.36-0.57,0.4-0.8
			c0.31-1.73,0.58-3.47,0.93-5.2c0.44-2.21,0.52-4.55,2.26-6.34c-0.57-0.19-0.92,0.07-1.25,0.38c-0.5,0.48-0.74,1.11-0.94,1.75
			c-0.71,2.27-0.87,4.62-1.11,6.96C50.01,46.08,49.93,47.1,49.83,48.3z M68.15,43c-0.03-0.15-0.11-0.39-0.14-0.63
			c-0.06-0.54-0.22-0.85-0.84-0.56c-0.27,0.12-0.55-0.02-0.77-0.17c-0.34-0.23-0.62-0.17-0.96,0.02c-0.64,0.36-1.17,0.56-1,1.61
			c0.1,0.58,0.18,0.67,0.54,0.49c0.59-0.29,1.09-0.31,1.69,0C67.1,43.97,68.15,43.44,68.15,43z M45.63,54.47
			c0.08-0.02,0.16-0.05,0.23-0.07c-1.1-2.54-1.5-5.34-2.94-7.76c-0.21-0.36-0.48-0.7-0.76-1.01c-0.16-0.17-0.32-0.57-0.64-0.28
			c-0.26,0.23-0.03,0.5,0.11,0.73c0.53,0.87,0.96,1.8,1.38,2.72C43.89,50.7,44.76,52.58,45.63,54.47z M50.32,49.05
			c1.14-1.73,2.17-3.5,3.35-5.17c0.13-0.19,0.5-0.38,0.16-0.68c-0.29-0.25-0.61-0.44-1.01-0.21c-0.27,0.15-0.46,0.37-0.61,0.63
			C51.22,45.31,50.81,47.19,50.32,49.05z M43.48,50.82c-0.15-0.34-0.31-0.67-0.45-1.02c-0.22-0.58-0.56-0.79-1.14-0.42
			c-0.3,0.19-0.66,0.3-0.99,0.11c-0.49-0.28-0.65-0.08-0.73,0.39c-0.04,0.22-0.15,0.42-0.2,0.64c-0.05,0.21-0.33,0.44-0.01,0.65
			c0.25,0.16,0.51,0.36,0.81,0.16c0.56-0.37,1.09-0.33,1.67,0C42.84,51.53,43.51,51.15,43.48,50.82z M49.99,37.48
			c0.33-1.15,0.57-2.32,1.07-3.4c0.05-0.11,0.1-0.24,0.01-0.34c-0.12-0.13-0.28-0.12-0.41-0.04c-0.59,0.34-1.15,0.4-1.74-0.01
			c-0.14-0.1-0.34-0.06-0.49,0.05c-0.17,0.13-0.07,0.26,0.01,0.39C49.05,35.18,49.51,36.32,49.99,37.48z M49.64,39.79
			c0.05-0.01,0.09-0.01,0.14-0.02c0.01-0.2,0.03-0.39,0.04-0.59c0-0.12,0-0.25-0.03-0.37c-0.44-1.87-1.1-3.65-2.24-5.23
			c-0.17-0.24-0.39-0.46-0.62-0.64c-0.2-0.16-0.43-0.09-0.6,0.1c-0.18,0.21,0.05,0.3,0.15,0.42c0.95,1.11,1.57,2.41,2.12,3.74
			C48.94,38.07,49.29,38.93,49.64,39.79z M50.15,39.83c0.2-0.21,0.26-0.24,0.26-0.28c0.39-2.37,1.21-4.54,2.83-6.36
			c0.1-0.12,0.2-0.24,0.07-0.39c-0.14-0.15-0.33-0.22-0.54-0.13c-0.45,0.2-0.75,0.56-0.99,0.98C50.75,35.51,50.5,37.57,50.15,39.83z
			 M52.24,39.69c0.05-0.05,0.11-0.09,0.14-0.15c0.27-0.53,0.56-1.05,1.03-1.44c0.62-0.52,1.1-0.01,1.64,0.18
			c0.19,0.06,0.54,0.05,0.63-0.08c0.19-0.24-0.15-0.35-0.28-0.51c-0.24-0.28-0.46-0.59-0.72-0.85c-0.63-0.63-1.04-0.6-1.56,0.12
			C52.54,37.76,52.35,38.71,52.24,39.69z M55.81,41.54c-0.12-0.91-0.4-1.58-0.7-2.25c-0.19-0.44-0.43-0.38-0.73-0.12
			c-0.53,0.47-0.88,1.06-1.19,1.69c-0.07,0.15-0.21,0.31-0.03,0.47c0.15,0.14,0.36,0.23,0.55,0.11
			C54.38,41.03,55.05,41.06,55.81,41.54z M41.2,46.16c-0.31,0.64-0.38,1.28-0.56,1.88c-0.12,0.41-0.28,0.79,0.32,1.01
			c0.59,0.22,0.95-0.28,1.44-0.37c0.01,0,0.03-0.19-0.01-0.26C42.02,47.68,41.75,46.89,41.2,46.16z M52.23,35.6
			c0.7-0.26,1.29-0.15,1.85,0.19c0.16,0.09,0.31,0.17,0.48,0.06c0.11-0.07,0.04-0.18,0.01-0.27c-0.23-0.63-0.46-1.26-0.7-1.88
			c-0.07-0.18-0.19-0.32-0.38-0.12C52.95,34.17,52.5,34.83,52.23,35.6z M60.69,43.08c-0.67,1.08-1.11,2.04-0.89,3.18
			c0.04,0.23-0.08,0.6,0.19,0.66c0.35,0.08,0.49-0.28,0.6-0.55C61.04,45.36,60.96,44.32,60.69,43.08z M44.13,48.09
			c0.06-0.01,0.12-0.02,0.19-0.04c-0.19-0.76-0.49-1.51-0.54-2.27c-0.06-0.93-0.7-1.11-1.35-1.35c-0.18-0.07-0.35-0.06-0.49,0.07
			c-0.16,0.16,0,0.27,0.1,0.36C43,45.77,43.63,46.89,44.13,48.09z M39.63,49.57c0.06,0,0.12,0.01,0.18,0.01
			c0.29-1.12,0.59-2.24,0.87-3.36c0.06-0.24,0.35-0.57,0.02-0.72c-0.31-0.14-0.61,0.13-0.79,0.42c-0.19,0.3-0.25,0.64-0.3,0.99
			C39.51,47.8,39.61,48.69,39.63,49.57z M51.39,43.57c0.46-0.25,0.46-0.64,0.58-0.95c0.54-1.35,1.05-2.72,2.13-3.76
			c0.12-0.12,0.45-0.18,0.26-0.43c-0.17-0.24-0.44-0.18-0.66-0.01c-0.34,0.27-0.58,0.61-0.79,0.98
			C52.22,40.66,51.79,42.03,51.39,43.57z M55.75,46.91c0.08,1.07,0.26,1.91,0.63,2.69c0.07,0.15,0.1,0.41,0.4,0.32
			c0.41-0.13,0.73-0.76,0.53-1.15C56.95,48.1,56.5,47.49,55.75,46.91z M56.99,50.63c2.22-0.42,3.11-0.9,3.45-1.88
			C59.03,48.89,57.22,49.88,56.99,50.63z M45.29,35.42c0.48-0.17,1.01-0.13,1.52-0.16c0.18-0.01,0.3-0.1,0.19-0.28
			c-0.32-0.53-0.6-1.35-1.15-1.36c-0.55-0.01-0.68,0.85-0.89,1.39C44.85,35.28,44.95,35.43,45.29,35.42z M59.43,50.42
			c-1.01,0.23-2.02,0.43-2.79,1.18c-0.13,0.13-0.33,0.3-0.19,0.51c0.1,0.15,0.32,0.08,0.49,0.07
			C58.12,52.08,58.76,51.24,59.43,50.42z M49.48,41.06c0,1.73,0,3.35,0,4.97C49.61,44.41,50.36,42.77,49.48,41.06z M58,42.92
			c0.01,0.87,0.08,1.54,0.6,2.07c0.14,0.15,0.22,0.54,0.54,0.29c0.26-0.2,0.42-0.49,0.19-0.84C58.99,43.93,58.63,43.44,58,42.92z
			 M59.29,45.81c-0.64,0.77-1.03,1.61-1.29,2.68C58.92,47.74,59.94,47.21,59.29,45.81z M56.65,45.84c0.01,0.96,0.15,1.77,0.91,2.36
			C58.01,47.11,57.86,46.72,56.65,45.84z M57.54,44.37c-0.15,0.77-0.11,1.45,0.31,2.04c0.1,0.13,0.23,0.43,0.43,0.14
			c0.24-0.35,0.56-0.72,0.11-1.17C58.08,45.06,57.82,44.7,57.54,44.37z M64.02,42.27c-0.71,0.21-1.26,0.51-1.8,0.86
			c-0.26,0.17-0.22,0.42-0.17,0.67c0.02,0.11,0.13,0.11,0.24,0.08C63.08,43.63,63.8,43.31,64.02,42.27z M60.9,47.04
			c-0.95,0.47-1.79,0.92-2.34,1.76C59.4,48.36,60.72,48.6,60.9,47.04z M59,41.76c-0.09,0.58,0.09,1.61,0.35,1.97
			c0.07,0.09,0.17,0.21,0.26,0.23c0.15,0.02,0.15-0.15,0.19-0.26C60.17,42.81,59.99,42.37,59,41.76z M61.38,43.92
			c0.36-1.02,0.47-1.89,0.37-2.86C61,41.73,60.9,42.45,61.38,43.92z M63.23,43.94c-0.66,0.21-1.18,0.5-1.68,0.81
			c-0.18,0.11-0.27,0.28-0.24,0.51c0.03,0.16,0.13,0.21,0.26,0.16C62.29,45.17,63.06,44.98,63.23,43.94z M60.21,42.3
			c0.73-0.96,0.69-1.29-0.19-1.98c-0.07-0.06-0.13-0.16-0.25-0.1c-0.11,0.06-0.09,0.16-0.07,0.26C59.83,41.06,59.82,41.7,60.21,42.3
			z M54.96,35.26c0.19-0.73,0.31-1.31,0.09-1.88c-0.12-0.32-0.43-0.46-0.72-0.36c-0.39,0.14-0.06,0.42,0,0.6
			C54.49,34.11,54.7,34.58,54.96,35.26z M47.1,42.84c-0.76,0.17-1.2,0.54-1.5,1.07c-0.07,0.12-0.19,0.26-0.04,0.4
			c0.14,0.13,0.27,0.02,0.4-0.04C46.54,44.02,46.84,43.54,47.1,42.84z M45.3,45.5c-0.23-0.89-0.67-1.38-1.47-1.65
			C43.88,44.79,44.46,45.15,45.3,45.5z M43.7,40.12c-0.19,0.73,0.11,1.25,0.45,1.77c0.07,0.1,0.18,0.18,0.32,0.14
			c0.16-0.05,0.13-0.18,0.14-0.3C44.62,41.04,44.32,40.52,43.7,40.12z M47.39,44.07c-0.78,0.17-1.21,0.57-1.54,1.11
			c-0.06,0.11-0.14,0.22-0.04,0.34c0.1,0.12,0.23,0.06,0.34,0.01C46.79,45.29,47.12,44.79,47.39,44.07z M47.68,45.31
			c-0.71,0.26-1.14,0.58-1.45,1.07c-0.07,0.12-0.2,0.26-0.09,0.4c0.12,0.15,0.26,0.03,0.4-0.02C47.14,46.54,47.41,46.04,47.68,45.31
			z M45.62,51.43c0.1,0.69,0.43,1.11,0.85,1.49c0.11,0.1,0.27,0.19,0.4,0.11c0.19-0.12,0.1-0.32,0.04-0.47
			C46.69,52,46.22,51.72,45.62,51.43z M47.84,46.74c-0.72,0.09-1.04,0.54-1.38,0.99c-0.07,0.1-0.14,0.21-0.04,0.33
			c0.1,0.11,0.22,0.05,0.34,0C47.31,47.82,47.68,47.43,47.84,46.74z M44.49,46.91c0.06,1,0.66,1.29,1.43,1.62
			C45.73,47.68,45.18,47.32,44.49,46.91z M62.22,42.61c0.71-0.37,1.34-0.67,2.17-0.86c-0.83-0.59-1.4,0.25-2.06,0.13
			C62.1,41.83,62.19,42.27,62.22,42.61z M45.64,40.41c-0.55,0.59-0.7,1.18-0.6,1.88C45.86,41.71,45.97,41.39,45.64,40.41z
			 M44.11,45.38c0.2,1.03,0.36,1.2,1.36,1.51C45.39,46.08,44.85,45.7,44.11,45.38z M48.05,47.94c-0.67,0.25-1.12,0.57-1.43,1.06
			c-0.08,0.12-0.18,0.27-0.03,0.4c0.12,0.1,0.23-0.01,0.34-0.06C47.47,49.09,47.84,48.69,48.05,47.94z M48.53,50.4
			c-0.57,0.11-0.9,0.4-1.18,0.76c-0.12,0.15-0.28,0.34-0.1,0.52c0.15,0.15,0.33,0.01,0.47-0.08C48.15,51.34,48.39,50.97,48.53,50.4z
			 M46.83,41.7c-0.72,0.18-1.15,0.57-1.45,1.14c-0.05,0.09-0.09,0.18-0.01,0.27c0.08,0.1,0.18,0.06,0.26,0
			C46.09,42.73,46.78,42.56,46.83,41.7z M44.83,43.78c-0.23-0.8-0.72-1.14-1.39-1.41C43.51,43.3,44.05,43.59,44.83,43.78z
			 M48.18,49.24c-0.62,0.18-1.01,0.49-1.32,0.92c-0.09,0.13-0.14,0.28-0.03,0.41c0.13,0.16,0.26,0.05,0.39-0.02
			C47.7,50.28,48.04,49.92,48.18,49.24z M56.38,38.17c0.11-0.58-0.03-1.06-0.45-1.4c-0.14-0.12-0.33-0.39-0.55-0.17
			c-0.18,0.18,0.03,0.36,0.15,0.51C55.81,37.46,56.1,37.81,56.38,38.17z M56.06,40.42c0.15-0.57,0.2-0.95,0.12-1.34
			c-0.07-0.32-0.34-0.45-0.62-0.37c-0.39,0.1-0.08,0.36-0.03,0.52C55.65,39.58,55.82,39.9,56.06,40.42z M44.92,48.52
			c0.03,0.93,0.24,1.14,1.25,1.28C45.99,49.16,45.53,48.83,44.92,48.52z M45.34,50.09c0.27,0.92,0.31,0.96,1.31,1.21
			C46.46,50.66,46.02,50.33,45.34,50.09z M55.2,44.8c0.15-0.48,0.12-0.91-0.02-1.34c-0.07-0.2-0.14-0.39-0.41-0.27
			c-0.2,0.09-0.2,0.24-0.11,0.43C54.85,44.01,55.02,44.41,55.2,44.8z M60.98,46.56c0.53-0.16,0.76-0.58,1.22-0.44
			c0.13,0.04,0.24-0.22,0.28-0.38c0.03-0.11-0.06-0.2-0.17-0.16C61.83,45.76,61.28,45.84,60.98,46.56z M44.5,34.8
			c0.32-0.45,0.67-1.23,0.69-1.55C44.61,33.77,44.45,34.12,44.5,34.8z"/>
		<path class="st1" d="M86.32,37.18c2.83,4.81,5.11,9.78,5.92,15.3c1.62,11.04-0.95,21.02-7.8,29.83
			c-6.5,8.34-15.05,13.49-25.38,15.54c-12.9,2.57-24.84,0.08-35.47-7.7c-7.56-5.53-12.66-12.91-15.07-22.03
			C7.15,63,6.97,57.82,7.77,52.58c0.76-4.96,2.61-9.5,4.98-13.87c0.29-0.54,0.56-1.1,0.9-1.77c0.08,0.7-0.1,1.26-0.18,1.81
			c-0.44,2.85-0.9,5.69-0.83,8.59c0.18,7.57,2.65,14.31,7.34,20.23c5.76,7.27,13.28,11.72,22.33,13.54
			c8.82,1.77,17.33,0.69,25.34-3.43c9.78-5.03,16.27-12.81,18.93-23.59c1.08-4.37,1.07-8.81,0.31-13.25
			C86.67,39.63,86.51,38.4,86.32,37.18z M10.83,47.09c-0.15,0.46-0.32,0.91-0.45,1.38C8.83,53.99,8.54,59.56,9.6,65.21
			c1.41,7.59,4.84,14.15,10.34,19.52c10.59,10.35,23.36,14.2,37.89,11.7c10.16-1.75,18.59-6.78,25.11-14.85
			c3.08-3.81,5.32-8.09,6.69-12.8c1.74-5.96,1.92-11.99,0.6-18.07c-0.27-1.22-0.58-2.43-1.09-3.79c-0.14,1.63-0.21,3.06-0.4,4.47
			c-1.08,7.73-4.35,14.45-9.81,19.99c-9.43,9.58-21.01,13.3-34.25,11.77c-8.3-0.96-15.61-4.34-21.8-10.01
			c-5.08-4.65-8.65-10.27-10.57-16.91C11.44,53.26,11.05,50.22,10.83,47.09z"/>
		<path class="st1" d="M31.73,20.85c1.05-0.76,2.08-1.22,3.2-1.5c0.61-0.15,0.73,0.03,0.69,0.6c-0.08,1.44-0.53,2.76-1.31,4.1
			c1.16-0.08,2.23-0.11,3.25,0.21c1.75,0.54,1.54,0.43,0.58,1.64c-1.99,2.47-5.46,3.47-8.5,2.5c-0.97-0.31-0.96-0.31-1.06,0.67
			c-0.05,0.44-0.15,0.88-0.26,1.31c-0.11,0.43-0.25,0.85-0.4,1.34c0.46-0.08,0.87-0.14,1.27-0.22c0.9-0.17,1.78-0.09,2.67,0.06
			c0.53,0.09,0.76,0.24,0.45,0.85c-1.52,3.04-4.95,4.83-8.31,4.28c-0.19-0.03-0.39-0.05-0.73-0.09c0.43,1.2,0.63,2.37,0.68,3.69
			c1.05-0.69,2.01-1.23,3.11-1.48c0.24-0.05,0.49-0.09,0.73-0.16c0.45-0.13,0.5,0.09,0.48,0.46c-0.2,3.49-2.59,6.4-5.97,7.26
			c-0.3,0.08-0.65,0.06-0.97,0.36c0.94,0.89,1.72,1.91,2.28,3.12c0.33-0.17,0.4-0.49,0.56-0.72c0.4-0.58,0.82-1.14,1.37-1.57
			c1.58-1.24,1.44-1.31,1.87,0.66c0.64,2.92-0.13,5.52-2.35,7.61c-0.21,0.2-0.43,0.4-0.7,0.64c0.88,0.52,1.7,1.06,2.52,1.76
			c0.28-1.01,0.42-1.96,0.84-2.83c0.8-1.64,1.03-1.68,2.04-0.17c1.75,2.61,1.91,5.37,0.59,8.2c-0.2,0.42-0.21,0.57,0.26,0.73
			c0.56,0.19,1.09,0.48,1.62,0.75c0.37,0.19,0.47,0.14,0.44-0.29c-0.06-1.21,0.18-2.37,0.59-3.51c0.18-0.5,0.37-0.51,0.79-0.22
			c2.51,1.76,3.8,5.21,3.06,8.26c-0.23,0.95-0.23,0.92,0.74,1.04c0.68,0.09,1.34,0.27,2.09,0.43c-0.34-1.38-0.58-2.68-0.33-4.03
			c0.09-0.49,0.18-0.64,0.7-0.42c3.29,1.34,5.39,5.04,4.77,8.51c-0.09,0.51-0.01,0.77,0.51,0.94c0.75,0.26,1.46,0.6,2.2,0.92
			c-0.79,0.74-1.25,0.86-2.05,0.3c-0.89-0.62-1.57-0.57-2.52,0.03c-2.84,1.82-6.82,1.4-9.24-0.78c-0.53-0.48-0.4-0.68,0.11-1
			c0.93-0.59,1.95-0.95,3.06-1.27c-0.54-0.7-1.08-1.28-1.48-1.96c-0.22-0.38-0.52-0.13-0.79-0.03c-2.7,0.93-5.24,0.6-7.58-1.05
			c-0.74-0.52-1.33-1.19-1.85-1.93c-0.22-0.31-0.15-0.46,0.18-0.59c0.93-0.37,1.9-0.56,2.9-0.62c0.21-0.01,0.44,0.07,0.67-0.08
			c-0.32-0.69-0.63-1.39-0.96-2.08c-0.17-0.35-0.47-0.19-0.72-0.16c-3.56,0.4-6.64-1.27-8.23-4.44c-0.28-0.55-0.31-0.78,0.41-0.91
			c1.1-0.18,2.17-0.05,3.33,0.02c-0.23-0.98-0.55-1.9-0.59-2.87c-0.01-0.33-0.32-0.32-0.56-0.38c-3.62-0.9-5.88-3.48-6.27-7.17
			c-0.01-0.07,0-0.15-0.01-0.22c-0.12-0.66,0.14-0.82,0.76-0.64c0.89,0.25,1.76,0.56,2.52,1.08c0.48,0.32,0.6,0.22,0.64-0.33
			c0.06-0.89,0.21-1.78,0.56-2.61c0.22-0.51-0.14-0.74-0.45-0.97c-1.77-1.33-2.87-3.07-3.23-5.26c-0.25-1.54-0.03-3.01,0.55-4.45
			c0.16-0.4,0.31-0.41,0.64-0.17c0.99,0.7,1.72,1.63,2.44,2.74c0.55-1.06,1.13-1.98,1.92-2.74c0.31-0.29,0-0.56-0.15-0.79
			c-1.02-1.65-1.39-3.45-1.15-5.36c0.22-1.79,1.02-3.3,2.27-4.6c0.33-0.34,0.49-0.26,0.71,0.1c0.63,1.03,1.01,2.15,1.2,3.43
			c0.94-0.7,1.79-1.41,2.84-1.81c0.33-0.12,0.04-0.45-0.04-0.65c-0.65-1.68-0.75-3.38-0.26-5.11c0.49-1.74,1.48-3.12,2.92-4.22
			c0.39-0.3,0.53-0.24,0.72,0.21C31.5,18.36,31.68,19.52,31.73,20.85z M27.8,28.58c0.03-0.42,0.01-0.73-0.54-0.42
			c-2.34,1.32-3.51,3.36-3.74,5.99c-0.05,0.6,0.21,0.62,0.65,0.34C26.39,33.13,27.61,31.17,27.8,28.58z M37.05,70.95
			c-0.12,0.28-1-0.39-0.63,0.49c0.81,1.92,3.95,3.68,6.08,3.52c0.59-0.05,0.76-0.17,0.39-0.72C41.5,72.17,39.54,71.15,37.05,70.95z
			 M34.66,20.85c0.06-0.68-0.31-0.45-0.56-0.35c-2.53,1.01-4,2.89-4.55,5.53c-0.07,0.33-0.05,0.47,0.35,0.33
			c0.49-0.17,0.97-0.38,1.41-0.65C33.16,24.55,34.27,22.9,34.66,20.85z M34.49,69.99c0.38,0.04,0.38,0.04,0.27-0.4
			c-0.53-2.27-3.04-4.53-5.35-4.84c-0.36-0.05-0.49-0.02-0.39,0.41C29.57,67.38,32.22,69.75,34.49,69.99z M23.31,53.17
			c-0.03-0.42-0.04-0.84-0.1-1.26c-0.22-1.54-0.87-2.89-1.96-4c-0.16-0.17-0.37-0.48-0.58,0.02c-0.84,1.93,0.17,5.76,1.86,7.05
			c0.34,0.26,0.4,0.09,0.49-0.19C23.19,54.26,23.25,53.72,23.31,53.17z M20.36,42.09c-0.03,0.48,0.15,1.25,0.38,2.01
			c0.16,0.52,0.36,0.73,0.78,0.16c1.55-2.09,1.93-4.35,1.1-6.83c-0.2-0.6-0.43-0.39-0.68-0.07C20.91,38.65,20.38,40.12,20.36,42.09z
			 M28.17,62.96c-0.23-2.3-1.94-4.65-4.04-5.54c-0.21-0.09-0.46-0.32-0.68-0.12c-0.16,0.15-0.06,0.43-0.02,0.65
			c0.47,2.54,1.92,4.31,4.26,5.37C28.12,63.5,28.32,63.46,28.17,62.96z M30.39,59.88c0.02-1.51-0.46-2.87-1.29-4.12
			c-0.2-0.3-0.42-0.49-0.61-0.01c-0.59,1.51-1.17,3.02-0.22,4.62c0.34,0.57,0.51,1.23,0.63,1.89c0.04,0.22,0.1,0.44,0.2,0.63
			c0.18,0.34,0.38,0.46,0.59,0C30.13,61.94,30.41,60.94,30.39,59.88z M27.35,39.88c0-0.21-0.04-0.27-0.3-0.19
			c-1.35,0.37-2.64,1.01-3.32,2.21c-0.57,0.99-0.92,2.12-1.61,3.08c-0.1,0.14-0.16,0.33-0.03,0.48c0.15,0.17,0.33,0.01,0.48-0.03
			c1.58-0.49,2.79-1.47,3.7-2.84C26.8,41.77,27.16,40.88,27.35,39.88z M40.35,68.24c0.02,1.09,0.52,2.87,1.03,3.26
			c0.88,0.67,1.65,1.42,2.26,2.34c0.13,0.19,0.35,0.37,0.55,0.32c0.25-0.07,0.19-0.38,0.18-0.59c-0.06-2.45-1.09-4.39-3.07-5.83
			c-0.23-0.17-0.51-0.47-0.78-0.34C40.22,67.57,40.43,67.99,40.35,68.24z M37.54,25.17c-1.44-0.45-2.92-0.58-4.17,0.13
			c-1,0.56-1.89,1.35-2.96,1.83c-0.16,0.07-0.4,0.22-0.31,0.44c0.07,0.18,0.31,0.21,0.51,0.25c1.95,0.37,3.76-0.01,5.4-1.12
			C36.6,26.3,37.19,25.89,37.54,25.17z M26.8,49.98c0.06-0.56-0.1-1.09-0.19-1.62c-0.03-0.18-0.11-0.46-0.38-0.24
			c-1.09,0.92-2.01,2.04-2.15,3.45c-0.1,1.06,0.08,2.17-0.18,3.24c-0.05,0.22-0.04,0.49,0.17,0.6c0.2,0.11,0.35-0.13,0.48-0.26
			C26.02,53.74,26.74,52,26.8,49.98z M33.47,64.15c0.04,0.42,0.04,0.84,0.14,1.25c0.35,1.47,1.61,2.46,2.09,3.88
			c0.15,0.45,0.42,0.15,0.53-0.19c0.7-2.11-0.23-5.37-1.94-6.81c-0.37-0.31-0.49-0.19-0.58,0.19
			C33.58,63.02,33.47,63.58,33.47,64.15z M25.35,35.95c2.39-0.14,4.32-1.14,5.72-3.12c0.13-0.18,0.48-0.52-0.09-0.55
			c-1.63-0.08-3.24-0.05-4.43,1.35c-0.44,0.51-0.95,0.95-1.51,1.32c-0.32,0.21-0.86,0.4-0.73,0.81
			C24.43,36.1,24.99,35.84,25.35,35.95z M32.03,71.57c0.48-0.01,0.95,0.02,1.41-0.14c0.24-0.08,0.64,0,0.64-0.35
			c0-0.26-0.34-0.4-0.6-0.49c-1.12-0.37-2.14-0.92-3.02-1.72c-0.17-0.16-0.38-0.24-0.6-0.27c-0.92-0.13-1.82-0.12-2.74,0.1
			c-0.56,0.13-0.52,0.3-0.19,0.65C28.32,70.82,30.03,71.54,32.03,71.57z M27.92,23.76c0.04,0.45,0.04,0.9,0.21,1.32
			c0.08,0.21,0.03,0.59,0.32,0.59c0.29,0,0.39-0.32,0.48-0.59c0.29-0.87,0.54-1.78,1.16-2.47c1.15-1.28,0.8-2.71,0.52-4.14
			c-0.07-0.36-0.22-0.43-0.53-0.13C28.57,19.84,27.9,21.66,27.92,23.76z M17.1,39.39c0.06,1.87,0.71,3.52,2,4.91
			c0.16,0.17,0.32,0.49,0.59,0.33c0.25-0.15,0.18-0.47,0.11-0.75c-0.23-0.92-0.36-1.87-0.21-2.81c0.26-1.63-0.73-2.64-1.7-3.68
			c-0.23-0.24-0.4-0.25-0.5,0.14C17.23,38.15,17.13,38.76,17.1,39.39z M24.06,29.55c-0.09-0.93-0.23-1.78-0.55-2.6
			c-0.24-0.59-0.44-0.54-0.76-0.06c-1.39,2.09-1.69,4.31-0.79,6.67c0.09,0.23,0.08,0.65,0.42,0.6c0.26-0.04,0.33-0.4,0.36-0.68
			c0.11-1.13,0.52-2.17,1.08-3.15C23.96,30.06,24.11,29.8,24.06,29.55z M39.21,77.22c0.96-0.03,1.89-0.19,2.76-0.57
			c0.28-0.12,0.75-0.19,0.7-0.53c-0.05-0.3-0.5-0.33-0.83-0.36c-0.85-0.06-1.7-0.2-2.43-0.62c-1.43-0.82-2.71-0.32-4.02,0.28
			c-0.47,0.21-0.42,0.38-0.03,0.63C36.53,76.83,37.82,77.19,39.21,77.22z M16.63,49.79c-0.24,0.02-0.14,0.31-0.09,0.52
			c0.55,2.44,1.94,4.2,4.23,5.22c0.23,0.1,0.55,0.37,0.74,0.14c0.24-0.3-0.07-0.59-0.26-0.84c-0.61-0.8-1.07-1.67-1.36-2.63
			C19.6,51.25,17.79,49.86,16.63,49.79z M26.24,64.58c0.31-0.11,0.82,0.17,0.93-0.21c0.11-0.38-0.39-0.51-0.68-0.68
			c-0.74-0.43-1.46-0.91-1.95-1.59c-0.92-1.27-2.27-1.28-3.6-1.35c-0.56-0.03-0.71,0.2-0.36,0.7
			C21.96,63.42,23.86,64.41,26.24,64.58z"/>
		<path class="st1" d="M80.57,50.13c1.05-0.6,1.99-1.09,3.04-1.36c0.64-0.16,0.83-0.01,0.81,0.65c-0.12,3.29-2.54,6.4-5.75,7.19
			c-0.84,0.21-1.23,0.52-1.23,1.39c0,0.41-0.16,0.83-0.27,1.23c-0.25,0.88-0.25,0.89,0.64,0.77c0.9-0.12,1.78-0.09,2.67,0.05
			c0.52,0.09,0.51,0.27,0.34,0.68c-1.3,3.06-4.82,5.09-8.12,4.62c-0.61-0.09-0.95-0.03-1.13,0.65c-0.15,0.56-0.5,1.06-0.8,1.64
			c1.19,0.07,2.32,0.18,3.4,0.58c0.51,0.19,0.66,0.33,0.28,0.85c-2.04,2.87-5.88,4.07-9.22,2.8c-0.55-0.21-0.85-0.15-1.12,0.38
			c-0.3,0.6-0.81,1.06-1.35,1.6c1,0.32,1.97,0.53,2.8,1.06c1.3,0.82,1.1,0.7,0.1,1.5c-2.57,2.06-6.41,2.21-9.14,0.36
			c-0.71-0.48-1.26-0.57-1.92-0.03c-0.78,0.64-1.56,0.59-2.4-0.11c0.79-0.35,1.54-0.72,2.31-1c0.47-0.17,0.52-0.41,0.44-0.84
			c-0.61-3.53,1.4-7.14,4.71-8.54c0.47-0.2,0.66-0.21,0.75,0.4c0.21,1.35,0.02,2.66-0.36,4.04c0.97-0.22,1.84-0.48,2.76-0.51
			c0.54-0.02,0.24-0.43,0.18-0.67c-0.68-2.78-0.13-5.27,1.75-7.45c0.37-0.43,0.83-0.79,1.27-1.15c0.38-0.31,0.57-0.25,0.74,0.2
			c0.43,1.16,0.63,2.35,0.6,3.58c0,0.12,0,0.24,0,0.42c0.81-0.36,1.57-0.69,2.33-1.03c0.41-0.19,0.09-0.41,0-0.6
			c-1.18-2.5-1.17-4.98,0.11-7.45c0.31-0.6,0.74-1.11,1.17-1.63c0.39-0.48,0.59-0.31,0.85,0.11c0.71,1.13,1.07,2.38,1.29,3.8
			c0.79-0.66,1.52-1.2,2.33-1.64c0.53-0.28-0.03-0.44-0.15-0.54c-1.47-1.2-2.36-2.76-2.71-4.6c-0.29-1.51-0.17-3.02,0.37-4.48
			c0.14-0.37,0.27-0.45,0.63-0.2c0.94,0.64,1.72,1.43,2.33,2.38c0.29,0.45,0.53,0.63,0.84,0c0.49-0.98,1.18-1.81,2.1-2.61
			c-0.77-0.18-1.4-0.28-1.99-0.52c-3.13-1.3-4.76-3.68-5.1-7.02c-0.04-0.42,0.07-0.49,0.49-0.42c1.2,0.19,2.3,0.62,3.29,1.31
			c0.41,0.28,0.6,0.31,0.59-0.27c-0.01-0.88,0.15-1.74,0.46-2.56c0.22-0.6-0.05-0.55-0.46-0.48c-2.4,0.38-4.53-0.22-6.41-1.74
			c-0.91-0.73-1.54-1.67-2.08-2.7c-0.22-0.43-0.07-0.54,0.33-0.63c1.36-0.31,2.71-0.23,4.16,0.16c-0.39-1.17-0.7-2.25-0.75-3.4
			c-0.02-0.48-0.4-0.19-0.62-0.11c-1.99,0.7-3.95,0.66-5.9-0.14c-1.47-0.6-2.62-1.6-3.53-2.89c-0.26-0.37-0.19-0.54,0.22-0.69
			c1.28-0.47,2.6-0.64,3.99-0.47c0.06-0.32-0.14-0.53-0.25-0.75c-0.55-1.11-0.87-2.27-0.9-3.51c-0.01-0.47,0.15-0.53,0.57-0.45
			c1.17,0.22,2.2,0.73,3.28,1.43c0.09-1.18,0.22-2.27,0.63-3.31c0.33-0.82,0.31-0.83,1.02-0.27c2.76,2.19,3.76,5.88,2.44,9.13
			c-0.19,0.47-0.15,0.71,0.35,0.87c0.91,0.3,1.59,0.99,2.42,1.54c0.27-1.2,0.6-2.31,1.21-3.32c0.24-0.4,0.39-0.47,0.75-0.11
			c2.51,2.5,3.08,6.5,1.29,9.56c-0.4,0.68-0.5,1.15,0.16,1.72c0.64,0.55,0.95,1.37,1.45,2.13c0.69-0.99,1.36-1.9,2.3-2.59
			c0.46-0.34,0.63-0.27,0.83,0.23c1.38,3.36,0.29,7.34-2.66,9.45c-0.52,0.37-0.74,0.72-0.45,1.35
			C80.41,48.07,80.42,49.06,80.57,50.13z M57.72,74.98c2.42-0.16,4.39-1.21,5.78-3.31c0.32-0.48,0.35-0.72-0.36-0.7
			c-2.51,0.06-4.47,1.13-5.92,3.16c-0.15,0.21-0.45,0.43-0.32,0.7C57.04,75.11,57.39,74.93,57.72,74.98z M76.5,33.91
			c-0.27-2.45-1.41-4.43-3.65-5.72c-0.51-0.29-0.68-0.18-0.63,0.41c0.21,2.52,1.36,4.46,3.51,5.8c0.19,0.12,0.43,0.36,0.67,0.21
			C76.59,34.49,76.46,34.2,76.5,33.91z M71.08,64.87c-0.02-0.23-0.26-0.16-0.47-0.12c-2.66,0.61-4.44,2.2-5.36,4.76
			c-0.19,0.53-0.04,0.58,0.47,0.46c2.07-0.49,3.62-1.67,4.7-3.48C70.7,66.03,70.93,65.53,71.08,64.87z M79.66,42.15
			c0-1.99-0.53-3.5-1.61-4.82c-0.26-0.32-0.42-0.44-0.65,0.06c-0.92,2.06-0.32,5.5,1.24,7.06c0.3,0.3,0.41,0.25,0.55-0.12
			C79.49,43.53,79.69,42.71,79.66,42.15z M70.46,25.99c-0.1-2.09-2.59-5.07-4.69-5.56c-0.48-0.11-0.43,0.13-0.39,0.43
			c0.15,0.97,0.52,1.86,1.07,2.67c0.88,1.31,2.06,2.26,3.56,2.78C70.2,26.39,70.53,26.59,70.46,25.99z M76.66,57.2
			c-2.67,0.59-4.67,3.57-4.82,5.81c-0.03,0.49,0.23,0.4,0.51,0.29c1.23-0.5,2.23-1.3,3-2.37C76.14,59.83,76.66,58.62,76.66,57.2z
			 M79.66,49.92c0.02-0.63-0.11-1.23-0.24-1.84c-0.12-0.55-0.33-0.52-0.66-0.16c-1.78,1.93-2.38,4.17-1.79,6.73
			c0.13,0.55,0.34,0.57,0.7,0.17C78.92,53.42,79.62,51.81,79.66,49.92z M69.64,59.94c-0.03,0.83,0.17,1.75,0.55,2.62
			c0.1,0.23,0.14,0.64,0.45,0.61c0.3-0.04,0.39-0.42,0.44-0.71c0.15-0.86,0.44-1.67,0.85-2.45c0.14-0.26,0.3-0.5,0.31-0.82
			c0.05-1.16-0.17-2.26-0.64-3.32c-0.25-0.57-0.45-0.44-0.73-0.03C70.07,57.05,69.63,58.36,69.64,59.94z M72.81,39.65
			c-0.25,0.03-0.12,0.25-0.07,0.46c0.59,2.56,2.12,4.32,4.56,5.27c0.2,0.08,0.48,0.34,0.67,0.08c0.17-0.24-0.02-0.52-0.19-0.74
			c-0.54-0.72-0.95-1.51-1.25-2.36C76.17,41.32,74.01,39.69,72.81,39.65z M59.71,68.29c-0.08-0.3,0.09-0.7-0.16-0.85
			c-0.3-0.18-0.59,0.15-0.84,0.32c-1.94,1.36-2.9,3.26-3.06,5.6c-0.02,0.27-0.13,0.69,0.2,0.78c0.27,0.08,0.52-0.23,0.68-0.49
			c0.37-0.59,0.8-1.17,1.38-1.55C59.3,71.19,59.48,69.74,59.71,68.29z M67.97,27.96c0.46,0.04,0.89-0.07,1.33-0.14
			c0.23-0.04,0.59-0.03,0.62-0.28c0.03-0.28-0.29-0.44-0.53-0.54c-0.69-0.29-1.38-0.6-1.92-1.11c-1.32-1.24-2.89-1.1-4.48-0.86
			c-0.53,0.08-0.53,0.3-0.18,0.66C64.22,27.13,65.94,27.89,67.97,27.96z M74.39,35.94c0.32,0,0.45,0.02,0.57,0
			c0.27-0.05,0.69,0.11,0.78-0.22c0.09-0.32-0.29-0.48-0.54-0.63c-0.57-0.36-1.14-0.73-1.55-1.26c-1.12-1.46-2.71-1.57-4.34-1.59
			c-0.52-0.01-0.72,0.14-0.33,0.67C70.38,34.8,72.25,35.79,74.39,35.94z M75.93,52.4c0.34-1.6-0.73-2.85-1.87-4.06
			c-0.29-0.31-0.55-0.43-0.67,0.18c-0.49,2.54,0.21,4.71,2.01,6.54c0.16,0.16,0.32,0.47,0.6,0.3c0.19-0.12,0.16-0.4,0.11-0.62
			C75.96,54.06,75.85,53.37,75.93,52.4z M66.51,64.28c0.04-0.64-0.08-1.19-0.19-1.75c-0.11-0.52-0.29-0.54-0.65-0.17
			c-1.82,1.86-2.43,4.08-1.93,6.61c0.04,0.2,0,0.54,0.27,0.56c0.25,0.02,0.41-0.26,0.5-0.49c0.27-0.72,0.56-1.45,1.09-2.01
			C66.36,66.21,66.56,65.26,66.51,64.28z M68.01,71.55c0.5,0.06,1.04-0.03,1.57-0.15c1.38-0.33,2.57-1.01,3.55-2.05
			c0.35-0.37,0.34-0.58-0.21-0.64c-0.1-0.01-0.19-0.06-0.29-0.08c-1.34-0.19-2.63-0.33-3.75,0.76c-0.6,0.59-1.41,0.91-2.23,1.15
			c-0.14,0.04-0.29,0.09-0.41,0.17c-0.16,0.1-0.38,0.21-0.33,0.44c0.04,0.19,0.26,0.21,0.42,0.25
			C66.87,71.52,67.41,71.6,68.01,71.55z M82.93,39.6c0.01-0.84-0.11-1.47-0.3-2.09c-0.07-0.22-0.17-0.41-0.4-0.19
			c-0.92,0.88-1.84,1.81-1.81,3.18c0.02,1.17,0.09,2.32-0.21,3.46c-0.07,0.26-0.09,0.55,0.13,0.67c0.28,0.16,0.44-0.16,0.59-0.32
			C82.22,42.94,82.84,41.28,82.93,39.6z M69.14,20.56c0,0.66,0.1,1.26,0.59,1.78c0.48,0.5,0.77,1.15,1.03,1.8
			c0.16,0.39,0.26,0.8,0.41,1.19c0.07,0.18,0.21,0.37,0.43,0.35c0.21-0.02,0.2-0.25,0.25-0.41c0.25-0.94,0.33-1.9,0.17-2.87
			c-0.25-1.54-0.91-2.87-2-3.99c-0.36-0.37-0.5-0.26-0.63,0.17C69.2,19.23,69.16,19.9,69.14,20.56z M78.59,30.88
			c-0.05-1.41-0.45-2.83-1.37-4.07c-0.12-0.16-0.22-0.55-0.54-0.18c-0.64,0.73-0.87,2.98-0.39,3.83c0.46,0.81,0.76,1.67,0.93,2.58
			c0.05,0.24,0.05,0.5,0.12,0.73c0.05,0.15,0.18,0.34,0.32,0.38c0.22,0.06,0.24-0.2,0.31-0.34C78.38,32.92,78.57,31.97,78.59,30.88z
			 M73.77,64.6c2.46-0.19,4.44-1.23,5.8-3.36c0.13-0.21,0.27-0.35-0.1-0.48c-0.9-0.3-3.1,0.29-3.71,1.03
			c-0.62,0.75-1.35,1.38-2.2,1.87c-0.31,0.18-0.84,0.32-0.73,0.72C72.93,64.76,73.44,64.45,73.77,64.6z M60.82,77.22
			c1.4-0.04,2.7-0.38,3.87-1.16c0.16-0.1,0.55-0.2,0.22-0.53c-0.61-0.62-2.95-1-3.74-0.62c-0.72,0.34-1.45,0.63-2.24,0.75
			c-0.39,0.06-0.79,0.07-1.18,0.14c-0.19,0.03-0.41,0.13-0.43,0.35c-0.02,0.21,0.22,0.24,0.37,0.31
			C58.67,76.97,59.72,77.19,60.82,77.22z M83.51,50.23c0-0.24,0.09-0.55-0.29-0.43c-1.15,0.37-2.36,0.85-2.88,1.95
			c-0.55,1.16-0.99,2.37-1.79,3.4c-0.12,0.16-0.2,0.38-0.06,0.55c0.14,0.16,0.32,0.03,0.48-0.03C81.47,54.66,82.94,52.8,83.51,50.23
			z"/>
		<path class="st1" d="M56.38,19.63c-1.92-1.28-3.86-2.54-5.75-3.85c-0.59-0.41-1-0.45-1.62-0.02c-1.89,1.32-3.83,2.56-5.93,3.95
			c0.56-1.66,1.06-3.13,1.56-4.6c0.22-0.63,0.39-1.29,0.67-1.9c0.3-0.64,0.07-0.97-0.46-1.32c-1.7-1.13-3.37-2.3-5.04-3.45
			c-0.16-0.11-0.31-0.24-0.47-0.36c0.14-0.26,0.37-0.14,0.54-0.14c2.16-0.01,4.33-0.04,6.49,0c0.59,0.01,0.83-0.2,1-0.72
			c0.53-1.63,1.1-3.24,1.66-4.86c0.11-0.32,0.24-0.64,0.43-1.17c0.45,1.15,0.84,2.13,1.21,3.1c0.38,1,0.79,1.99,1.13,3
			c0.17,0.52,0.46,0.66,0.99,0.66c2.41-0.03,4.82-0.02,7.24-0.02c0.21,0,0.44-0.08,0.73,0.12c-0.98,0.65-1.91,1.27-2.85,1.89
			c-1.2,0.79-2.4,1.6-3.62,2.37c-0.38,0.24-0.42,0.42-0.26,0.83c0.84,2.12,1.64,4.25,2.45,6.38C56.45,19.56,56.41,19.59,56.38,19.63
			z M44.72,17.41c0.05,0.04,0.09,0.07,0.14,0.11c1.4-0.93,2.83-1.83,4.2-2.82c0.57-0.41,0.98-0.36,1.52,0.02
			c1.33,0.94,2.71,1.83,4.06,2.74c-0.27-1.13-0.68-2.18-1.08-3.23c-0.23-0.62-0.71-1.31-0.6-1.88c0.12-0.64,1.02-0.84,1.58-1.23
			c1.05-0.73,2.13-1.43,3.21-2.15c-0.26-0.3-0.52-0.21-0.76-0.21c-1.59-0.01-3.18-0.04-4.77,0.01c-0.62,0.02-0.88-0.2-1.07-0.75
			c-0.43-1.24-0.92-2.47-1.39-3.69c-0.06-0.15-0.02-0.42-0.35-0.43c-0.47,1.36-0.97,2.7-1.39,4.08c-0.18,0.6-0.45,0.81-1.1,0.79
			c-1.58-0.05-3.16-0.02-4.77-0.02c0.09,0.4,0.38,0.49,0.59,0.64c1.02,0.71,2.02,1.44,3.08,2.11c0.6,0.38,0.78,0.72,0.49,1.44
			C45.71,14.4,45.24,15.91,44.72,17.41z"/>
		<path class="st1" d="M83.78,71.4c-1.02,0.58-2.57,0.49-2.66,2.29c-0.29-0.53-0.35-1.01-0.41-1.48c-0.06-0.44,0.12-0.74,0.52-0.97
			c1.59-0.92,3.31-1.61,4.83-2.66c0.14-0.1,0.34-0.24,0.4,0.04c0.08,0.4,0.47,0.8-0.01,1.23c-0.87,0.78-1.45,1.76-1.85,2.85
			c-0.17,0.46-0.33,0.94-0.48,1.41c-0.19,0.61-0.49,1.15-1.1,1.43c-0.29,0.14-0.39,0.36-0.36,0.66c0.05,0.56-0.21,0.98-0.58,1.39
			c-0.93,1.04-1.86,2.08-2.88,3.02c-0.23,0.21-0.3,0.38-0.16,0.7c0.89,2.03,0.28,2.32-1.76,2.7c-0.03,0.01-0.07-0.05-0.17-0.11
			c0.3-0.19,0.58-0.38,0.87-0.55c0.36-0.22,0.6-0.53,0.73-0.91c0.12-0.36,0-0.71-0.25-0.96c-0.28-0.28-0.51,0.05-0.7,0.19
			c-0.49,0.38-0.82,0.2-1.1-0.25c-0.19-0.3-0.28-0.63-0.28-0.99c0-0.77,0.24-0.96,0.88-0.54c0.58,0.39,0.94,0.27,1.39-0.19
			c0.99-1.01,1.99-2.02,2.89-3.12c0.17-0.21,0.52-0.43,0.19-0.75c-0.28-0.27-0.65-0.31-0.96-0.09c-0.4,0.29-0.76,0.64-1.11,0.99
			c-0.63,0.64-1.23,1.3-1.84,1.96c-0.35,0.38-0.66,0.33-1-0.04c-0.98-1.07-0.91-3.12,0.15-4.09c0.28-0.26,0.39-0.19,0.51,0.13
			c0.18,0.49,0.31,0.9-0.22,1.29c-0.38,0.29-0.56,0.76-0.55,1.26c0,0.24,0.02,0.52,0.3,0.63c0.29,0.12,0.45-0.11,0.62-0.3
			c0.6-0.69,1.21-1.38,1.8-2.09c0.56-0.67,1.23-0.93,2.11-0.71c0.64,0.16,0.99-0.37,1.3-0.8C83.38,73.24,83.65,72.37,83.78,71.4z"/>
		<path class="st1" d="M15.6,73.53c-0.5-0.17-1.19,0.09-1.53-0.32c-0.4-0.49-0.58-1.16-0.79-1.82c1.21,1.79,3.02,1.89,5.1,1.73
			c-0.42,0.37-0.74,0.34-1,0.32c-0.55-0.04-0.88,0.21-0.97,0.7c-0.1,0.52,0.09,0.98,0.59,1.25c0.34,0.19,0.71,0.21,1.09,0.22
			c0.42,0.02,0.61,0.21,0.64,0.64c0.1,1.44,0.85,2.52,1.95,3.37c2.28,1.76,4.93,2.5,7.74,2.81c0.48,0.05,0.96,0.08,1.44,0.36
			c-0.65,0.22-1.19,0.22-1.8-0.03c-0.88-0.35-1.87-0.15-2.8-0.29c-2.96-0.45-5.44-1.67-7.12-4.26c-0.05-0.08-0.13-0.16-0.16-0.25
			c-0.34-1.28-0.97-2.21-2.4-2.55c-0.79-0.19-0.81-0.9-0.23-1.53C15.44,73.8,15.62,73.76,15.6,73.53z"/>
		<path class="st1" d="M54.14,87.78c0.63,0.53,0.95,1.23,1.35,1.87c0.86,1.34,1.74,1.34,2.78,0.87c0.48-0.22,0.62-0.76,1.01-1.2
			c0.18,0.71,0.65,0.89,1.28,0.82c1-0.12,1.44-0.79,1.66-1.71c0.35,0.2,0.28,0.88,0.84,0.69c0.53-0.18,0.42-0.73,0.54-1.14
			c0.31-0.01,0.18,0.24,0.24,0.37c0.15,0.3,0.32,0.62,0.72,0.42c0.35-0.18,0.43-0.52,0.16-0.81c-0.42-0.45-0.26-0.88-0.07-1.44
			c0.61,0.7,0.82,1.44,0.72,2.25c-0.1,0.79-0.39,0.97-1.14,0.74c-0.3-0.09-0.38,0.04-0.52,0.23c-0.3,0.4-0.68,0.62-1.13,0.21
			c-0.23-0.21-0.34-0.06-0.48,0.09c-0.32,0.35-0.66,0.67-1.09,0.89c-0.53,0.27-1.06,0.34-1.54-0.05c-0.35-0.28-0.46-0.15-0.65,0.17
			c-0.62,1.03-1.39,1.25-2.44,0.66c-0.37-0.21-0.51-0.11-0.7,0.18c-0.29,0.43-0.6,0.85-1.05,1.15c-1.01,0.66-1.75,0.46-2.27-0.65
			c-0.12-0.25-0.23-0.5-0.19-0.79c0.03-0.3-0.13-0.83,0.21-0.85c0.47-0.03,0.12,0.46,0.18,0.71c0.18,0.79,0.85,1.21,1.54,0.83
			c1.84-1.01,1.91-1.39,0.28-2.97C53.85,88.81,53.78,88.41,54.14,87.78z"/>
		<path class="st1" d="M47.61,86.32c-0.46,0.4-0.93,0.59-1.45,0.66c-0.32,0.04-0.64,0.05-0.97,0.04c-2.03-0.06-1.83-0.51-2.6,1.91
			c-0.17,0.52-0.28,1.06-0.28,1.61c0,0.35,0.24,0.53,0.54,0.62c0.34,0.1,0.32-0.23,0.44-0.38c0.16-0.22,0.29-0.46,0.46-0.67
			c0.5-0.61,0.89-0.66,1.54-0.22c1,0.68,1,0.69,0.02,1.4c-0.64,0.47-1.26,0.97-2.07,1.14c-0.83,0.17-1.17-0.01-1.37-0.82
			c-0.11-0.44-0.21-0.42-0.67-0.37c-1.19,0.13-2.01,0.76-2.82,1.54c-0.78,0.76-1.24-0.22-1.84-0.47c0.47-0.12,0.94,0.08,1.41-0.05
			c0.36-0.1,0.73-0.18,1.02-0.43c0.34-0.29,0.46-0.55-0.12-0.69c-0.02-0.01-0.05,0-0.07-0.01c-0.41-0.14-0.4-0.46-0.34-0.79
			c0.15-0.83,0.7-1.55,1.19-1.56c0.45,0,0.57,0.34,0.67,0.68c0.06,0.19,0.06,0.39,0.11,0.58c0.08,0.31-0.04,0.79,0.5,0.76
			c0.45-0.02,0.84-0.15,0.99-0.71c0.25-0.96,0.53-1.91,0.98-2.8c0.33-0.65,0.76-0.99,1.51-0.96C45.43,86.35,46.46,86.32,47.61,86.32
			z M43.87,91.58c0.47,0.01,1.59-0.6,1.49-0.78c-0.21-0.37-0.6-0.56-1.03-0.57c-0.36-0.01-0.98,0.64-0.94,0.99
			C43.43,91.54,43.69,91.57,43.87,91.58z"/>
		<path class="st1" d="M65.54,86.55c0.35,0.06,0.36,0.34,0.49,0.5c0.33,0.42,0.74,0.67,1.29,0.53c1.48-0.4,2.89-0.97,4.02-2.03
			c1.01-0.95,0.97-0.57,0.97-2.18c0.25,0.01,0.22,0.23,0.28,0.37c0.13,0.31-0.01,0.84,0.58,0.76c0.54-0.07,0.93-0.37,0.95-0.97
			c0.02-0.57-0.03-1.14-0.01-1.71c0.01-0.34-0.21-0.8,0.31-0.95c0.48-0.15,0.89,0.05,1.17,0.44c0.44,0.62,0.68,1.33,0.79,2.07
			c0.1,0.61-0.3,0.88-0.87,0.77c-0.64-0.13-1.02,0.04-1.2,0.7c-0.14,0.49-0.41,0.72-0.92,0.3c-0.32-0.27-0.67-0.41-0.85,0.23
			c-0.16,0.56-0.62,0.95-1.07,1.31c-0.82,0.65-1.72,1.18-2.68,1.6C67.14,89,65.99,88.4,65.54,86.55z"/>
		<path class="st1" d="M35.25,88.09c0.1,0.41-0.18,0.49-0.39,0.6c-0.3,0.17-0.35,0.41-0.24,0.69c0.12,0.3,0.39,0.3,0.63,0.23
			c0.61-0.18,1.25-0.33,1.64-0.93c0.1-0.16,0.27-0.3,0.43-0.41c0.4-0.28,0.65-0.36,0.74,0.32c0.08,0.67,0.18,1.2-0.64,1.44
			c-0.24,0.07-0.4,0.09-0.45-0.17c-0.12-0.6-0.44-0.36-0.77-0.22c-0.43,0.19-0.86,0.4-1.31,0.54c-0.52,0.16-0.93,0-0.89-0.61
			c0.03-0.53-0.26-0.63-0.66-0.65c-2.24-0.08-3.97-1.32-5.67-2.57c-0.9-0.66-0.47-2.18,0.7-2.67c0.01,0.04,0.05,0.1,0.03,0.12
			c-0.64,1.22-0.62,1.31,0.49,2.11c1.25,0.9,2.57,1.69,4.02,2.25C34.13,88.66,34.13,88.66,35.25,88.09z"/>
		<path class="st1" d="M13.42,68.36c0.51,0.33,0.94,0.34,1.43,0.26c0.7-0.12,1.44-0.15,2.12,0.19c0.5,0.25,0.88,0.58,0.58,1.21
			c-0.14,0.29,0.11,0.32,0.25,0.44c0.34,0.28,0.52,0.64,0.32,1.05c-0.19,0.38-0.58,0.54-1,0.48C15.42,71.76,13.77,70.2,13.42,68.36z
			 M17.53,70.96c0.01-0.19-0.09-0.34-0.24-0.43c-0.61-0.42-1.34-0.44-2.04-0.55c-0.26-0.04-0.26,0.16-0.13,0.34
			c0.4,0.51,0.85,0.96,1.45,1.23C17.03,71.74,17.54,71.41,17.53,70.96z M14.61,69.04c0.56,0.6,1.27,0.78,2.06,0.74
			c0.19-0.01,0.34-0.1,0.36-0.31c0.03-0.22-0.14-0.29-0.3-0.37C16.05,68.79,15.35,68.87,14.61,69.04z"/>
		<path class="st1" d="M32.84,86.36c-0.43,0.1-0.56-0.17-0.64-0.42c-0.16-0.48-0.48-0.56-0.92-0.47c-0.42,0.08-0.96-0.42-0.94-0.83
			c0.01-0.16,0.11-0.23,0.24-0.21c0.31,0.05,0.74-0.39,0.93,0.09c0.26,0.69,0.62,0.86,1.35,0.69c0.49-0.11,0.6,0.52,0.62,0.85
			C33.51,86.44,33.02,86.27,32.84,86.36z"/>
		<path class="st1" d="M52.91,85.77c0.37,0.27,0.95,0.23,1.01,0.69c0.03,0.26-0.12,0.84-0.54,0.82c-0.37-0.02-0.91-0.17-1.01-0.6
			C52.3,86.38,52.61,86.03,52.91,85.77z"/>
		<path class="st1" d="M58.09,87.92c-0.33,0.25-0.21,0.88-0.69,0.78c-0.34-0.07-0.93-0.15-0.93-0.64c0-0.27,0.18-0.82,0.6-0.77
			C57.42,87.33,57.86,87.49,58.09,87.92z"/>
		<path class="st1" d="M54.9,85.29c0.35,0.27,0.94,0.21,0.99,0.67c0.03,0.27-0.12,0.84-0.53,0.82c-0.37-0.02-0.9-0.2-1-0.59
			C54.28,85.92,54.58,85.54,54.9,85.29z"/>
		<path class="st1" d="M69.6,82.74c0.32,0.24,0.88,0.22,0.94,0.63c0.04,0.26-0.11,0.87-0.51,0.83c-0.34-0.03-0.92-0.16-0.99-0.62
			C69.01,83.31,69.27,82.95,69.6,82.74z"/>
		<path class="st1" d="M68.19,85.06c-0.34-0.26-0.92-0.23-0.98-0.65c-0.04-0.25,0.18-0.83,0.6-0.77c0.34,0.04,0.92,0.09,0.92,0.62
			C68.72,84.53,68.58,84.92,68.19,85.06z"/>
		<path class="st1" d="M19.28,73.78c0.91-0.19,0.93,0.38,0.96,0.83c0.04,0.54-0.41,0.26-0.65,0.29c-0.73,0.09-0.57-0.59-0.66-0.93
			C18.82,73.55,19.26,73.79,19.28,73.78z"/>
		<path class="st1" d="M65.71,89.93c-0.11,0.99-1,1.1-1.63,1.5C64.27,90.52,65.18,90.43,65.71,89.93z"/>
		<path class="st1" d="M23.33,83.86c0.74-0.11,1.43,0.14,2.29,0.33C24.69,84.42,24.01,84.12,23.33,83.86z"/>
		<path class="st1" d="M52.45,10.02c0.29,0.02,0.48,0.15,0.48,0.45c0,0.32-0.18,0.52-0.5,0.52c-0.32-0.01-0.51-0.23-0.48-0.54
			C51.96,10.18,52.14,10.01,52.45,10.02z"/>
		<path class="st1" d="M50.5,10.47c-0.03,0.31-0.19,0.52-0.51,0.52c-0.28,0-0.48-0.16-0.5-0.45c-0.02-0.28,0.12-0.48,0.42-0.52
			C50.23,9.98,50.42,10.15,50.5,10.47z"/>
		<path class="st1" d="M47.47,10.02c0.39-0.01,0.58,0.14,0.6,0.42c0.03,0.3-0.12,0.54-0.46,0.55c-0.28,0.01-0.49-0.12-0.51-0.42
			C47.08,10.25,47.22,10.04,47.47,10.02z"/>
	</g>
</g>
</svg>
