<?xml version="1.0" encoding="utf-8"?>
<!-- Generator: Adobe Illustrator 27.6.1, SVG Export Plug-In . SVG Version: 6.00 Build 0)  -->
<svg version="1.1" id="Layer_1" xmlns="http://www.w3.org/2000/svg" xmlns:xlink="http://www.w3.org/1999/xlink" x="0px" y="0px"
	 viewBox="0 0 100 100" style="enable-background:new 0 0 100 100;" xml:space="preserve">
<style type="text/css">
	.st0{fill:#0A4528;}
</style>
<g>
	<path class="st0" d="M47,95.4c-0.6-0.1-1.2-0.1-1.7-0.2c-3.7-0.4-7.3-1.3-10.7-2.7c-5.5-2.2-10.4-5.5-14.4-9.9
		c-4.6-5-7.7-10.8-9.2-17.4c-0.8-3.5-0.9-7.1-0.6-10.7c0.5-4.8,1.9-9.4,4.2-13.7c0.5-0.9,1-1.8,1.4-2.8c0,0,0.1-0.1,0.1-0.1
		c-0.1,0.7-0.2,1.3-0.3,2c-0.4,2.6-0.8,5.2-0.7,7.9c0.1,4.5,1.1,8.7,3.1,12.7c3.7,7.4,9.4,12.7,16.9,16.1c3.3,1.5,6.7,2.4,10.2,2.8
		c9.6,1.1,18.4-1,26.1-6.8c6.1-4.5,10.2-10.4,12.3-17.7c0.8-3,1.2-6.1,1-9.3c-0.1-1.9-0.4-3.8-0.7-5.7c-0.1-0.7-0.2-1.3-0.2-2
		c0.1,0.2,0.2,0.3,0.3,0.5c1.3,2.5,2.6,4.9,3.5,7.6c1.5,4.3,2.2,8.6,2.1,13.2c-0.3,7.6-2.8,14.5-7.4,20.6
		c-5.6,7.3-12.9,12-21.7,14.4c-2.3,0.6-4.7,1-7.1,1.2c-0.1,0-0.2,0-0.3,0.1C51.2,95.4,49.1,95.4,47,95.4z M86.5,47c0,0-0.1,0-0.1,0
		c0,0.3,0,0.5,0,0.8c-0.1,2.5-0.4,4.9-1,7.3c-2.2,8.1-6.8,14.5-13.7,19.3c-5.9,4.2-12.5,6.3-19.7,6.7c-3.7,0.2-7.3-0.1-10.9-1
		c-6.4-1.6-12.1-4.6-16.9-9.1c-3.9-3.7-6.8-8.1-8.7-13.2c-1.2-3.4-1.8-6.8-1.9-10.4c0-0.2,0-0.4,0-0.5c-0.1,0.1-0.1,0.1-0.2,0.2
		c-1.4,4.4-2,9-1.6,13.7c0.3,3,0.9,6,2,8.8c3.9,10.1,11,17.1,20.8,21.3c4.4,1.9,9,2.8,13.7,3c4,0.2,7.9-0.2,11.7-1.2
		c10-2.7,17.9-8.3,23.3-17.2c3-4.9,4.6-10.3,4.9-16c0.2-3.6-0.2-7.2-1.2-10.6C86.9,48.3,86.7,47.6,86.5,47z"/>
	<path class="st0" d="M49.9,73.2c0-0.3,0-0.6-0.1-0.9c-0.2-1.6-1-3-2-4.3c-1.1-1.3-2.5-2.3-3.9-3.3c-2.1-1.4-4.2-2.8-6.2-4.3
		c-2.2-1.6-4-3.4-5.5-5.7c-1.2-2-1.9-4.1-2.1-6.4c-0.2-2.4-0.1-4.8,0.6-7.2c0.8-2.5,2.2-4.6,4-6.4c1.7-1.7,3.7-3.1,5.7-4.5
		c1.8-1.2,3.6-2.4,5.4-3.7c1.4-1,2.5-2.2,3.3-3.7c0.4-0.8,0.7-1.7,0.8-2.7c0-0.1,0-0.2,0.1-0.3c0,0.1,0.1,0.1,0.1,0.2
		c0.1,1.8,0.9,3.4,2.1,4.7c1,1.2,2.2,2.1,3.5,2.9c2.2,1.5,4.3,3,6.5,4.5c1.7,1.2,3.3,2.6,4.6,4.3c1.8,2.3,2.8,4.9,3.1,7.8
		c0.4,3.1,0,6.1-1.3,9c-1.1,2.5-2.8,4.5-4.9,6.2c-2.1,1.7-4.3,3.2-6.5,4.7c-1.6,1.1-3.3,2.2-4.6,3.7c-1.4,1.4-2.3,3.1-2.4,5.2
		c0,0.1-0.1,0.2-0.1,0.3C50,73.2,50,73.2,49.9,73.2z M50,71.9c0-0.1,0.1-0.2,0.1-0.2c0.4-2.7,1.6-4.9,3.6-6.7
		c1.4-1.3,2.9-2.4,4.5-3.6c0.1-0.1,0.2-0.2,0.3-0.3c-0.3-0.2-0.5-0.1-0.8,0c-0.4,0.2-0.8,0.3-1.3,0c-0.3-0.2-0.5-0.2-0.8,0
		c-0.4,0.3-0.8,0.3-1.2,0c-0.3-0.2-0.6-0.2-0.8,0c-0.4,0.2-0.8,0.2-1.2,0c-0.3-0.2-0.5-0.2-0.8,0c-0.4,0.3-0.8,0.3-1.2,0
		c-0.2-0.2-0.5-0.2-0.7,0c-0.4,0.3-0.9,0.3-1.3,0c-0.2-0.2-0.5-0.1-0.8,0c-0.4,0.2-0.8,0.2-1.2,0c-0.3-0.2-0.5-0.2-0.8,0
		c-0.4,0.3-0.9,0.3-1.3,0c-0.2-0.1-0.5-0.1-0.6,0c-0.5,0.3-1,0.3-1.4,0c-0.2-0.1-0.4-0.1-0.7,0.1c0.1,0.1,0.3,0.2,0.4,0.3
		c1.4,1.1,2.8,2.1,4.1,3.2c1.6,1.4,2.9,3.1,3.5,5.2C49.7,70.5,49.8,71.2,50,71.9z M42.3,31.9c0.3,0.1,0.5,0.1,0.8,0.3
		c0.3,0.1,0.5,0.2,0.8,0c0.4-0.2,0.8-0.3,1.2,0c0.3,0.2,0.5,0.2,0.8,0c0.4-0.3,0.8-0.3,1.2,0c0.3,0.2,0.5,0.2,0.8,0
		c0.4-0.3,0.8-0.3,1.2,0c0.2,0.2,0.5,0.2,0.7,0c0.4-0.3,0.8-0.3,1.3,0c0.3,0.2,0.5,0.2,0.8,0c0.4-0.3,0.9-0.3,1.3,0
		c0.2,0.1,0.4,0.1,0.7,0c0.5-0.3,0.9-0.3,1.4,0c0.1,0.1,0.4,0.1,0.6,0c0.5-0.3,1-0.3,1.5,0c0.1,0.1,0.4,0,0.6,0.1c0,0,0-0.1,0-0.1
		c-0.1-0.1-0.2-0.2-0.3-0.2c-1.2-0.9-2.4-1.8-3.5-2.8c-2-1.7-3.4-3.9-4-6.6c-0.1-0.3-0.1-0.7-0.2-1c-0.1,0.1-0.1,0.1-0.1,0.2
		c-0.3,1.5-0.7,2.9-1.5,4.3c-0.9,1.6-2.2,2.9-3.6,4C44,30.6,43.1,31.3,42.3,31.9z M42.5,38.7c0-0.2,0.1-0.4,0.1-0.6
		c0.1-0.4,0-0.6-0.4-0.7c-0.1,0-0.3,0-0.5,0.1c-0.4,0.2-0.9,0.3-1.3,0c-0.2-0.1-0.5-0.1-0.6,0c-0.5,0.3-1,0.3-1.5,0
		c-0.1-0.1-0.3-0.1-0.5,0c-0.5,0.3-1.1,0.4-1.6,0c-0.2-0.1-0.3-0.1-0.5,0.1c-0.5,0.7-0.9,1.3-1.4,2c0.5,0.3,0.9,0.6,1.5,0.2
		c0.3-0.2,0.7-0.1,1,0.1c0.3,0.2,0.6,0.2,0.9,0c0.4-0.2,0.8-0.2,1.2,0c0.3,0.2,0.5,0.2,0.8,0c0.4-0.3,0.8-0.3,1.2,0
		c0.3,0.2,0.5,0.2,0.8,0c0.4-0.3,0.8-0.3,1.3,0c0.1,0,0.1,0.1,0.2,0.1c0.3,0.1,0.5,0,0.5-0.4c0-0.4-0.1-0.8-0.1-1.2
		c0-0.1,0.1-0.2,0.1-0.3c0.1,0.1,0.2,0.2,0.2,0.3c0.1,0.6,0.1,1.1,0.2,1.7c0,0.1,0,0.2,0.1,0.3c0.3,0.3,0.6,0.7,1,1
		c0.6-0.5,0.9-1.2,1-2c0,0,0-0.1,0-0.1c0.1-0.1,0.2-0.1,0.2-0.2c0,0.1,0.1,0.2,0.1,0.2c0,0.1,0,0.3-0.1,0.4c-0.4,0.7,0,1.5,0,2.2
		c0.4-0.1,0.7-0.2,1.2-0.3c-0.1,0.5-0.2,0.8-0.2,1.2c0.1,0,0.2,0,0.4,0c-0.1,0.4-0.2,0.8-0.3,1.2c0.2,0,0.3-0.1,0.5-0.1
		c-0.1,0.5-0.2,0.9-0.3,1.3c0.2,0,0.4-0.1,0.6-0.1c-0.1,0.5-0.2,0.9-0.3,1.3c0.2,0,0.3-0.1,0.5-0.1c-0.1,0.5-0.2,0.9-0.3,1.3
		c0.1,0,0.3,0,0.5-0.1c-0.1,0.4-0.2,0.8-0.3,1.2c0.1,0,0.3,0,0.4-0.1c-0.1,0.4-0.1,0.7-0.2,1.1c0.2,0,0.4-0.1,0.6-0.1
		c-0.1,1.2-0.7,2-1.8,2.4c0,0.1,0.1,0.2,0.1,0.3c0.1,0.3,0.1,0.6-0.1,0.8c-0.3,0.2-0.5,0.1-0.8-0.1c-0.1-0.1-0.3-0.2-0.4-0.3
		c-0.1,0-0.1-0.1-0.2-0.1c0,0,0,0,0,0c0.3,0.6,0.5,1.2,0.8,1.8c0.1-0.1,0.1-0.2,0.2-0.3c0.6,0.6,1.1,1.3,1.7,1.9
		c0-0.2,0-0.4,0.1-0.6c0.8,0.7,1.5,1.3,2.2,2c0.1-0.5,0.3-0.9,0.4-1.4c0.1-0.7-0.1-0.9-0.7-1c-0.2,0-0.4,0-0.6-0.1
		c-0.9-0.1-1.4-0.6-1.5-1.5c0-0.5,0-1,0-1.5c0.1-0.7,0.3-1.3,0.9-1.8c0.1,0,0.1-0.2,0.1-0.3c-0.2-1-0.5-1.9-0.7-2.9
		c-0.5-2.2-0.9-4.4-1.4-6.6c-0.2-1-0.6-2-1.2-2.9c-0.2-0.3-0.5-0.6-0.8-0.8c-0.3-0.2-0.5-0.1-0.5,0.3c-0.1,0.4-0.1,0.8-0.2,1.3
		c-0.1-0.1-0.1-0.1-0.1-0.2c-0.1-0.4-0.1-0.9-0.1-1.3c0-0.4-0.1-0.4-0.5-0.3c-0.3,0.1-0.5,0.3-0.8,0.5c0,0,0,0.1,0.1,0.1
		c0.2-0.1,0.3-0.2,0.6-0.3c0,0.2,0,0.4,0,0.4C43.4,37.9,42.9,38.3,42.5,38.7z M55.4,52.3c0.1-0.2,0.2-0.4,0.3-0.6
		c0.5-0.9,0-1.9-0.6-2.3c-0.7-0.5-1.5-0.5-2.1,0.2c-0.3,0.4-0.5,0.8-0.8,1.2c-0.1,0.1-0.1,0.2-0.2,0.3c-0.1-0.1-0.2-0.1-0.2-0.2
		c-1-0.7-2.2-0.4-2.5,0.8c-0.1,0.6-0.2,1.2-0.2,1.7c0,0.9,0.5,1.3,1.4,1.4c0.3,0,0.5,0,0.8,0.1c0.3,0.1,0.4,0,0.4-0.2
		c0.2-0.5,0.5-0.9,1-1.2c0,0.2,0,0.3,0.1,0.4c0,0.4,0,0.8,0,1.1c0,0.2,0,0.3,0.3,0.3c0.7,0.1,1.3,0.3,2,0.4c1.2,0.3,2.6-0.2,3.3-1.2
		c0.6-0.8,0.5-1.7-0.4-2.2c-0.1-0.1-0.4-0.1-0.5-0.1C56.7,52.4,56,52.5,55.4,52.3z M38.9,34.3c0.4,0.3,0.7,0.5,1.2,0.2
		c0.4-0.2,0.8-0.2,1.1,0c0.2,0.1,0.5,0.2,0.7,0.1c0.5-0.3,0.9-0.3,1.4,0c0.1,0.1,0.4,0.1,0.5,0c0.5-0.2,0.9-0.4,1.4-0.6
		c0.1,0,0.2-0.1,0.3,0c0.3,0.1,0.6,0,0.8-0.2c0.4-0.3,0.6-0.2,1,0.1c0.2,0.2,0.5,0.4,0.7,0.7c0.4-0.3,0.8-0.2,1.3,0.1
		c0.2,0.1,0.4,0.1,0.7,0c0.4-0.2,0.8-0.4,1.2-0.1c0.2-0.2,0.3-0.4,0.4-0.5c0.1-0.1,0.3-0.3,0.5-0.4c0.5-0.3,0.7-0.3,1.2,0.1
		c0.1,0.1,0.3,0.1,0.4,0.1c0.5-0.1,0.9,0,1.2,0.4c0.4,0.4,0.8,0.5,1.3,0.3c0.4-0.2,0.7-0.2,1,0c0.3,0.2,0.6,0.2,1,0
		c0.2-0.1,0.6-0.2,0.8-0.1c0.6,0.3,1,0.3,1.6,0c0.1,0,0.1,0,0.2-0.1c0,0,0-0.1,0-0.1c-0.8-0.6-1.6-1.2-2.4-1.8c-0.1,0-0.2,0-0.2,0
		c-0.5,0.3-0.9,0.2-1.3,0c-0.2-0.1-0.4-0.1-0.6,0c-0.5,0.3-0.9,0.3-1.4,0c-0.2-0.1-0.5-0.1-0.6,0c-0.5,0.3-0.9,0.3-1.4,0
		c-0.2-0.1-0.5-0.1-0.6,0c-0.5,0.3-0.9,0.3-1.4,0c-0.2-0.1-0.5-0.1-0.6,0c-0.5,0.3-0.9,0.3-1.4,0c-0.2-0.1-0.4-0.1-0.6,0
		c-0.5,0.3-1,0.3-1.5,0c-0.2-0.1-0.4-0.1-0.6,0c-0.5,0.3-0.9,0.3-1.4,0c-0.2-0.1-0.5-0.1-0.6,0c-0.5,0.3-0.9,0.3-1.4,0
		c-0.1-0.1-0.3-0.1-0.4-0.1c-0.6,0.2-1.2,0.5-1.8,0.8C40,33.5,39.5,33.9,38.9,34.3z M63.9,56.6c-0.4-0.1-0.7-0.2-1-0.3
		c-0.3-0.1-0.5-0.1-0.8,0c-0.4,0.2-0.8,0.3-1.2,0c-0.3-0.2-0.6-0.2-0.9,0c-0.4,0.2-0.8,0.2-1.2,0c-0.2-0.1-0.5-0.2-0.7,0
		c-0.5,0.4-1,0.2-1.5-0.1c-0.1-0.1-0.3-0.1-0.4-0.1c-0.7,0.1-1.3,0-1.9-0.2c-0.5-0.1-1.1-0.3-1.6-0.3c-0.3,0-0.7,0.3-1,0.5
		c-0.2,0.7-0.4,1.5-0.6,2.3c0.2-0.1,0.3-0.1,0.4-0.2c0.3-0.2,0.7-0.2,1,0c0.3,0.2,0.7,0.2,1,0c0.3-0.2,0.7-0.2,1,0
		c0.3,0.2,0.7,0.2,1,0c0.3-0.2,0.7-0.2,1,0c0.3,0.2,0.7,0.2,1,0c0.3-0.2,0.7-0.2,1,0c0.4,0.2,0.7,0.2,1.1,0c0.3-0.2,0.6-0.2,0.8,0
		c0.7,0.5,1.4,0,1.9-0.2C63.1,57.7,63.5,57.1,63.9,56.6z M43.8,44.8C43.9,44.7,43.9,44.7,43.8,44.8c-0.1-0.8-0.3-1.4-0.5-2.1
		c0-0.1-0.2-0.2-0.3-0.2c-0.4,0.1-0.7,0-1-0.1c-0.3-0.2-0.5-0.1-0.8,0c-0.4,0.2-0.8,0.3-1.2,0c-0.3-0.2-0.6-0.2-0.9,0
		c-0.4,0.2-0.8,0.2-1.2,0c-0.3-0.2-0.6-0.2-0.9,0c-0.4,0.2-0.7,0.2-1.1,0c-0.3-0.2-0.7-0.2-1,0c-0.4,0.2-0.7,0.2-1.1,0
		c-0.1-0.1-0.2-0.1-0.3-0.1c-0.2-0.1-0.4,0-0.4,0.2c-0.1,0.5-0.2,1-0.3,1.6c-0.1,0.4,0.3,0.8,0.7,0.7c0.1,0,0.2-0.1,0.3-0.1
		c0.4-0.2,0.8-0.2,1.2,0c0.3,0.2,0.6,0.2,0.9,0c0.4-0.2,0.8-0.2,1.2,0c0.3,0.2,0.6,0.2,0.9,0c0.4-0.2,0.8-0.2,1.2,0
		c0.3,0.2,0.6,0.2,0.9,0c0.4-0.2,0.7-0.2,1.1,0c0.3,0.2,0.6,0.2,0.9,0c0.4-0.2,0.7-0.2,1.1,0C43.4,44.7,43.7,44.7,43.8,44.8z
		 M34.1,53.7c0.5-0.3,0.9-0.4,1.3-0.1c0.3,0.2,0.7,0.2,1,0c0.3-0.2,0.7-0.2,1,0c0.3,0.2,0.6,0.2,0.9,0c0.4-0.2,0.8-0.2,1.2,0
		c0.3,0.2,0.6,0.2,0.8,0c0.4-0.2,0.8-0.3,1.2,0c0.3,0.2,0.5,0.2,0.8,0c0.4-0.3,0.8-0.2,1.3,0c0.1,0.1,0.4,0.2,0.5,0.1
		c0.3-0.1,0.6-0.2,1-0.4c-0.3-0.7-0.6-1.3-1-2c-0.1,0.1-0.2,0.1-0.3,0.1c-0.4,0.3-0.8,0.3-1.2,0c-0.3-0.2-0.6-0.2-0.9,0
		c-0.4,0.3-0.8,0.2-1.2,0c-0.1,0-0.1-0.1-0.2-0.1c-0.1,0.2-0.3,0.5-0.4,0.7c0,0,0,0,0,0c0-0.2,0-0.3,0-0.5c0,0-0.1,0-0.1,0
		c0,0-0.1,0-0.1,0c-0.4,0.2-0.7,0.2-1.1,0c-0.3-0.2-0.7-0.2-1,0c-0.3,0.2-0.7,0.2-1,0c-0.3-0.2-0.7-0.2-1,0c-0.3,0.2-0.6,0.2-0.9,0
		c-0.1-0.1-0.3-0.1-0.5-0.2c-0.3-0.1-0.8,0.2-0.7,0.4C33.7,52.4,33.9,53,34.1,53.7z M47.6,59.6c1,0,2,0,3.1,0
		c0.1-0.4,0.1-0.9,0.2-1.3c0-0.1,0-0.2-0.1-0.3c-0.5-0.6-1.1-1.1-1.7-1.7c0,0.4,0,0.7,0.1,1.1c-0.7-0.9-1.4-1.7-2.1-2.5
		c-0.1,0.3-0.3,0.5-0.4,0.7c-0.3-0.3-0.5-0.5-0.7-0.8c-0.2,0.3-0.3,0.5-0.5,0.8c-0.1,0.2-0.3,0.2-0.5,0.1c-0.4-0.2-0.9-0.3-1.3-0.4
		c-0.1,0.3-0.1,0.6,0.2,0.8c0.5,0.4,0.5,0.8,0,1.1c0,0,0,0,0,0.1c0.1,0.1,0.3,0.2,0.4,0.4c0.3,0.3,0.8,0.4,0.3,1c0.4,0,0.8,0,1.1,0
		c0.6,0,1.1,0,1.7,0.2C47.9,59.2,47.9,59.1,47.6,59.6z M51.2,60.9c0.1,0,0.2-0.1,0.3-0.1c0.4-0.2,0.7-0.2,1.1,0
		c0.3,0.2,0.6,0.2,0.9,0c0.4-0.2,0.7-0.2,1.1,0c0.3,0.2,0.6,0.2,0.9,0c0.3-0.2,0.7-0.2,1,0c0.3,0.2,0.7,0.2,1,0c0.3-0.2,0.7-0.2,1,0
		c0.2,0.1,0.4,0.1,0.6-0.1c0.8-0.6,1.6-1.2,2.3-1.8c0.1,0,0.1-0.1,0.2-0.1c0,0,0-0.1-0.1-0.1c-0.4,0.2-0.7,0-1-0.1
		c-0.3-0.2-0.5-0.1-0.7,0c-0.4,0.3-0.8,0.3-1.2,0c-0.3-0.2-0.6-0.2-0.9,0c-0.4,0.2-0.8,0.2-1.2,0c-0.2-0.1-0.5-0.2-0.7,0
		c-0.4,0.3-0.9,0.3-1.3,0c-0.2-0.1-0.5-0.1-0.7,0c-0.5,0.3-0.9,0.3-1.4,0c-0.3-0.2-1,0-1.2,0.3c0,0-0.1,0.1-0.1,0.2
		C51.2,59.6,51.2,60.2,51.2,60.9z M65.5,39.7C65.6,39.7,65.6,39.6,65.5,39.7c-0.3-0.9-0.8-1.6-1.4-2.3c-0.1-0.1-0.2-0.1-0.3-0.1
		c-0.4,0.2-0.7,0-1.1-0.1c-0.2-0.1-0.5-0.1-0.7,0c-0.5,0.2-0.9,0.2-1.4,0c-0.2-0.1-0.5-0.1-0.7,0c-0.4,0.2-0.8,0.2-1.3,0
		c-0.2-0.1-0.5-0.1-0.7,0c-0.5,0.3-0.9,0.3-1.4,0c-0.3-0.2-0.6-0.1-0.8,0.2c0.4,0.5,0.5,1,0.6,1.6c0,0.1,0,0.3,0.1,0.4
		c0.4,0.2,0.8,0.5,1.3,0.2c0.4-0.3,0.8-0.2,1.2,0c0.3,0.2,0.6,0.2,0.9,0c0.4-0.2,0.8-0.2,1.1,0c0.3,0.2,0.6,0.2,0.9,0
		c0.3-0.2,0.7-0.2,1.1,0c0.3,0.2,0.6,0.2,1,0c0.3-0.2,0.7-0.2,1.1,0C65.2,39.6,65.4,39.6,65.5,39.7z M43.7,40.4
		c-0.3-0.1-0.6-0.1-0.9-0.2c-0.3-0.2-0.6-0.2-1,0c-0.4,0.2-0.7,0.2-1.1,0c-0.3-0.2-0.6-0.2-1,0c-0.3,0.2-0.7,0.2-1,0
		c-0.3-0.2-0.7-0.2-1,0c-0.3,0.2-0.7,0.2-1,0c-0.3-0.2-0.7-0.2-1,0c-0.3,0.2-0.7,0.2-1,0c-0.1-0.1-0.2-0.1-0.3-0.1
		c-0.1,0-0.2,0-0.2,0.1c-0.2,0.6-0.5,1.1-0.7,1.7c0.3,0.1,0.5,0.2,0.7,0.3c0.2,0.1,0.5,0.1,0.7,0c0.5-0.3,0.9-0.3,1.4,0
		c0.2,0.1,0.5,0.1,0.6,0c0.5-0.2,0.9-0.3,1.3,0c0.2,0.1,0.4,0.2,0.7,0c0.5-0.3,0.9-0.3,1.4,0c0.2,0.1,0.5,0.1,0.6,0
		c0.5-0.3,0.9-0.3,1.4,0c0.1,0.1,0.4,0.1,0.5,0.1c0,0,0-0.1,0-0.1c-0.1-0.2-0.2-0.3-0.4-0.5c-0.2-0.2-0.2-0.3,0.1-0.4
		c0.5,0.4,0.8,1.1,1.5,1.3C43.7,41.8,43.6,41.1,43.7,40.4z M43.3,54.9c0.5,0.1,1,0.3,1.5,0.4c0.5,0.2,0.5,0.2,0.8-0.3
		c0,0,0-0.1,0.1-0.1c0.2-0.4-0.1-0.7-0.3-1c-0.1-0.2-0.4,0-0.5,0c-0.5,0.3-1,0.3-1.5,0c-0.2-0.1-0.4-0.1-0.7,0
		c-0.4,0.3-0.9,0.3-1.3,0c-0.2-0.1-0.5-0.2-0.7,0c-0.4,0.3-0.9,0.3-1.3,0c-0.2-0.1-0.5-0.2-0.7,0c-0.5,0.3-0.9,0.3-1.4,0
		c-0.2-0.1-0.5-0.1-0.6,0c-0.5,0.3-0.9,0.3-1.4,0c-0.3-0.2-0.6-0.1-0.9,0.2c0.4,0.6,0.8,1.2,1.1,1.7c0.1,0.2,0.2,0.1,0.4,0.1
		c0.4-0.3,0.9-0.2,1.3,0c0.3,0.2,0.5,0.1,0.7,0c0.4-0.3,0.8-0.3,1.2,0c0.3,0.2,0.5,0.2,0.8,0c0.4-0.3,0.8-0.3,1.3,0
		c0.3,0.2,0.5,0.2,0.8,0c0.4-0.2,0.8-0.3,1.2,0c0,0,0.1,0,0.2,0C43.3,55.5,43.3,55.2,43.3,54.9z M38.3,58.7
		C38.3,58.7,38.3,58.8,38.3,58.7c0.9,0.8,1.8,1.4,2.7,2.1c0.1,0,0.2,0,0.3,0c0.4-0.2,0.8-0.2,1.2,0c0.3,0.2,0.6,0.2,0.8,0
		c0.4-0.2,0.8-0.2,1.2,0c0.3,0.2,0.5,0.2,0.8,0c0.4-0.2,0.8-0.3,1.2,0c0.3,0.2,0.6,0.2,0.8,0c0.4-0.2,0.8-0.2,1.2,0
		c0.3,0.2,0.6,0.2,0.9,0c0.3-0.2,0.7-0.2,1.1,0c0.1,0,0.2,0.1,0.3,0.1c0-0.1,0-0.2,0-0.3c0-0.5,0-0.5-0.5-0.5c-0.7,0-1.4,0-2.1,0
		c-0.5,0-0.9,0.1-1.5,0.2c0.2-0.2,0.3-0.4,0.4-0.6c0.1-0.2,0.1-0.3-0.1-0.4c-0.6-0.1-1.2-0.1-1.7-0.2c-0.4,0-0.8,0.1-1.3,0.1
		c0-0.1,0.1-0.2,0.1-0.3c-0.2-0.1-0.5-0.1-0.7-0.3c-0.3-0.2-0.6-0.2-0.9,0c-0.4,0.2-0.8,0.2-1.1,0c-0.3-0.2-0.5-0.2-0.8,0
		c-0.4,0.3-0.9,0.3-1.3,0C38.9,58.4,38.6,58.4,38.3,58.7z M32.8,44.9c0,0.7,0,1.2,0,1.8c0,0.3,0.1,0.4,0.4,0.3
		c0.1,0,0.1-0.1,0.2-0.1c0.4-0.3,0.8-0.2,1.2,0c0.3,0.2,0.5,0.2,0.8,0c0.4-0.3,0.8-0.3,1.2,0c0.3,0.2,0.5,0.2,0.8,0
		c0.4-0.3,0.8-0.2,1.2,0c0.5,0.3,1.2,0,1.4-0.5c0.3-0.8,0.8-1.1,1.6-0.8c0.1-0.1,0.1-0.1,0.2-0.2c0.3-0.3,0.4-0.3,0.7,0
		c0.1,0.1,0.2,0.2,0.4,0.3c0.7,0.7,1.1,1.6,1.5,2.5c0.1,0.1,0.1,0.2,0.2,0.4c0,0,0.1,0,0.1,0c-0.3-1.1-0.5-2.2-0.8-3.3
		c-0.3-0.1-0.6-0.2-0.9-0.3c-0.2,0-0.5-0.1-0.7,0c-0.5,0.2-0.9,0.3-1.3,0c-0.2-0.2-0.5-0.2-0.7,0c-0.4,0.3-0.9,0.3-1.3,0
		c-0.2-0.2-0.5-0.2-0.7,0c-0.4,0.3-0.9,0.3-1.3,0c-0.2-0.2-0.5-0.1-0.7,0c-0.4,0.3-0.9,0.2-1.3,0c-0.2-0.1-0.4-0.1-0.6-0.1
		C33.9,45.1,33.4,45.2,32.8,44.9z M66.7,51.3c-0.2,0.1-0.2,0.1-0.3,0.1c-0.5,0.3-1,0.3-1.5,0c-0.2-0.2-0.4-0.1-0.6,0.1
		c-0.4,0.2-0.8,0.3-1.3,0c-0.3-0.2-0.5-0.2-0.8,0c-0.4,0.3-0.8,0.3-1.2,0c-0.3-0.2-0.6-0.2-0.9,0c-0.3,0.2-0.7,0.2-1,0.1
		c-0.5-0.3-0.5-0.3-1,0.2c-0.2,0.2-0.2,0.3,0,0.4c0.4,0.3,0.6,0.7,0.7,1.1c0,0.1,0.1,0.3,0.1,0.4c0.1-0.1,0.2-0.1,0.3-0.1
		c0.4-0.2,0.8-0.3,1.2,0c0.3,0.2,0.5,0.2,0.8,0c0.4-0.2,0.8-0.2,1.2,0c0.3,0.2,0.5,0.2,0.8,0c0.4-0.3,0.8-0.2,1.2,0
		c0.1,0.1,0.3,0.2,0.5,0.1c0.5-0.2,1.1-0.3,1.2-1C66.4,52.2,66.5,51.8,66.7,51.3z M42.9,37.3c0.4-0.6,0.9-1,1.5-1
		c0.1-0.5,0.2-1,0.3-1.5c-0.1,0-0.1,0-0.2,0c-0.5,0.3-1,0.3-1.5,0c-0.2-0.1-0.4-0.1-0.6,0c-0.5,0.3-0.9,0.3-1.4,0
		c-0.2-0.1-0.4-0.1-0.6,0c-0.5,0.3-1,0.3-1.5,0c-0.1-0.1-0.4,0-0.5,0c-0.8,0.7-1.5,1.4-2.3,2.1c0.5,0.2,0.8,0.5,1.3,0.2
		c0.4-0.3,0.8-0.2,1.2,0c0.3,0.2,0.5,0.2,0.8,0c0.4-0.3,0.8-0.2,1.3,0c0.2,0.1,0.5,0.1,0.6,0C41.9,37,42.3,36.9,42.9,37.3z
		 M55.2,34.8c-0.1,0.6-0.1,1.1-0.2,1.7c-0.1,0.5,0.1,0.7,0.6,0.5c0.1,0,0.1,0,0.2-0.1c0.4-0.2,0.7-0.2,1.1,0c0.3,0.2,0.6,0.2,0.9,0
		c0.4-0.2,0.8-0.2,1.2,0c0.2,0.1,0.5,0.2,0.8,0c0.4-0.3,0.8-0.2,1.3,0c0.2,0.1,0.5,0.1,0.7,0c0.5-0.3,1-0.3,1.5,0
		c0.1,0.1,0.3,0.1,0.5,0.1c0,0,0-0.1,0-0.1c-0.7-0.8-1.3-1.7-2.4-2.1c-0.3-0.1-0.5-0.2-0.8,0c-0.4,0.3-0.9,0.2-1.3,0
		c-0.2-0.1-0.5-0.1-0.7,0c-0.4,0.3-0.9,0.3-1.3,0c-0.2-0.1-0.4-0.1-0.6-0.1C56.2,35,55.7,35.2,55.2,34.8z M57,55.9
		c0.3,0.3,0.7,0.3,1,0.1c0.3-0.2,0.7-0.3,1,0c0.4,0.2,0.7,0.2,1.1,0c0.3-0.2,0.7-0.2,1,0c0.4,0.2,0.7,0.2,1.1,0
		c0.3-0.2,0.6-0.2,0.9,0c0.5,0.3,0.9,0.3,1.3,0c0.2-0.1,0.4-0.2,0.5-0.4c0.3-0.5,0.6-0.9,0.9-1.4c0.1-0.1,0.1-0.2,0.1-0.3
		c-0.6,0.3-1,0.2-1.5-0.1c-0.2-0.1-0.4-0.1-0.6,0.1c-0.4,0.3-0.9,0.3-1.3,0c-0.3-0.2-0.5-0.1-0.8,0c-0.3,0.1-0.7,0.2-0.9,0.1
		c-0.5-0.3-1-0.3-1.5,0c-0.1,0.1-0.3,0.2-0.4,0.3c-0.3,0.3-0.5,0.7-0.8,1C57.7,55.5,57.3,55.7,57,55.9z M44.4,58.2
		c-0.4-0.3-0.8-0.7-1.2-1c0.2-0.1,0.4-0.2,0.6-0.3c0.1-0.1,0.2-0.2,0.1-0.2c-0.1-0.1-0.2-0.3-0.3-0.3c-0.2-0.1-0.5-0.1-0.7-0.2
		c-0.3-0.1-0.5-0.1-0.7,0c-0.4,0.3-0.9,0.3-1.3,0c-0.2-0.1-0.4-0.2-0.7,0c-0.5,0.3-0.9,0.3-1.4,0c-0.1-0.1-0.4-0.1-0.5,0
		c-0.5,0.3-1,0.3-1.6,0c-0.3-0.1-0.6-0.1-0.8,0.2c0.6,0.6,1.2,1.2,1.8,1.8c0.2,0.2,0.4,0.2,0.6,0.1c0.4-0.3,0.8-0.2,1.2,0
		c0.3,0.2,0.6,0.2,0.8,0c0.4-0.3,0.8-0.2,1.2,0c0.2,0.1,0.5,0.1,0.7,0c0.5-0.2,0.9-0.2,1.4,0C43.9,58.4,44.1,58.4,44.4,58.2z
		 M39.9,47.2C39.9,47.2,39.9,47.1,39.9,47.2c-0.6,0.3-1.1,0.1-1.6-0.1c-0.2-0.1-0.4,0-0.6,0.1c-0.4,0.2-0.8,0.3-1.3,0
		c-0.3-0.2-0.5-0.2-0.8,0c-0.4,0.3-0.8,0.2-1.3,0c-0.2-0.1-0.4-0.1-0.7,0c-0.3,0.1-0.6,0.2-1,0.3c0,0.4,0,0.9,0.1,1.5
		c0,0.4,0.1,0.4,0.4,0.2c0.4-0.2,0.8-0.3,1.3,0c0.2,0.2,0.5,0.2,0.7,0c0.4-0.3,0.9-0.3,1.3,0c0.2,0.1,0.4,0.1,0.6,0.1
		c0.6-0.3,1.1-0.3,1.6,0c0,0,0,0,0.1,0c0.3,0.1,1-0.2,1-0.4C39.9,48.3,39.9,47.7,39.9,47.2z M58.1,43.4c-0.1-0.7-0.2-1.5-0.3-2.2
		c0-0.1,0.1-0.2,0.1-0.3c0.1,0.1,0.2,0.1,0.3,0.2c0.1,0.1,0.1,0.2,0.1,0.2c0.1,0.3,0.3,0.5,0.6,0.6c0-0.2-0.1-0.4-0.1-0.6
		c0-0.5-0.1-0.9-0.1-1.4c0-0.3-0.2-0.4-0.5-0.2c-0.4,0.3-0.9,0.3-1.3,0c0,0-0.1,0-0.2,0c0.1,0.4,0.2,0.9,0.3,1.3c0,0,0,0-0.1,0
		c-0.2-0.3-0.4-0.7-0.6-1c0,0-0.1,0-0.1,0c-0.1,1.2-0.1,2.3-0.2,3.5c-0.1-0.3-0.2-0.6-0.3-0.9c0-0.1-0.1-0.2-0.2-0.2
		c-0.3-0.1-0.6-0.2-1-0.3c-0.1,0-0.2,0-0.3,0c-0.5,0.2-1,0.5-1.6,0.1c-0.1,0.3-0.3,0.6-0.4,1c0.7-0.4,1.3-0.2,1.8,0.3
		c0.1-0.1,0.1-0.1,0.2-0.2c0.3-0.3,0.6-0.2,0.8,0.1c0.1,0.2,0.2,0.4,0.2,0.7c0.1,0.7,0.1,1.3,0.1,2c0,0.4,0.1,0.7,0.5,0.8
		c-0.1-0.7-0.2-1.4-0.2-2.1c0.1,0,0.2,0,0.3-0.1c0.2,0.4,0.1,0.8,0.6,1c-0.1-0.8-0.2-1.5-0.3-2.3c0.2-0.1,0.3-0.1,0.4,0.2
		c0.1,0.2,0.1,0.5,0.4,0.6c0-0.4,0-0.8,0-1.2c0-0.2-0.1-0.3-0.1-0.5c0-0.1,0-0.3,0.1-0.3c0.2-0.1,0.2,0.1,0.3,0.2
		C57.4,42.9,57.7,43.1,58.1,43.4z M59,50.9c0.4,0.3,0.7,0.3,1.1,0.1c0.4-0.2,0.7-0.2,1.1,0c0.3,0.2,0.6,0.2,0.9,0
		c0.4-0.2,0.8-0.2,1.1,0c0.3,0.2,0.6,0.2,0.8,0c0.4-0.3,0.8-0.2,1.2,0c0.2,0.1,0.4,0.1,0.5,0.1c0.9-0.2,1-0.3,1.1-1.2
		c0-0.1,0-0.2,0-0.3c0-0.1,0-0.2-0.1-0.2c-0.3-0.3-0.7-0.4-1.1-0.2c-0.4,0.3-0.9,0.3-1.3,0c-0.3-0.2-0.5-0.2-0.8,0
		c-0.4,0.2-0.8,0.3-1.2,0c-0.3-0.2-0.6-0.2-0.9,0c-0.4,0.2-0.7,0.2-1.1,0c-0.5-0.3-0.6-0.2-0.8,0.2c0.1,0.1,0.2,0.1,0.2,0.2
		c0,0-0.1,0.2-0.1,0.2C59.5,50.1,59.3,50.6,59,50.9z M54,44.2c0,0-0.1,0-0.1,0c-1.2,1.9-2.4,3.9-3.6,5.8c0.6,0.2,1,0.3,1.6,0.5
		c0.1-0.2,0.3-0.4,0.4-0.6c0.4-0.7,1-1.2,1.9-1.1c0.2,0,0.3-0.1,0.2-0.3c-0.1-0.3-0.2-0.5-0.2-0.8c0.1,0,0.2-0.1,0.2-0.1
		c0.2,0.3,0.4,0.5,0.7,0.8C55.2,46.8,54.5,45.5,54,44.2z M67,49.1c0,0,0-0.1,0.1-0.1c0-0.6,0.1-1.1,0.1-1.7c0,0,0-0.1-0.1-0.2
		c-0.4-0.2-0.7-0.4-1.2-0.1c-0.4,0.2-0.8,0.2-1.1,0c-0.3-0.2-0.5-0.2-0.8,0c-0.4,0.3-0.9,0.3-1.3,0c-0.1-0.1-0.3-0.1-0.5-0.1
		c-0.5,0.1-1.7,1-1.9,1.4c0.3-0.1,0.5-0.2,0.8-0.3c0.2,0.6-0.5,0.4-0.6,0.7c0.5,0.4,0.7,0.5,1.2,0.2c0.4-0.2,0.8-0.2,1.2,0
		c0.2,0.1,0.5,0.2,0.7,0c0.5-0.3,0.9-0.3,1.4,0c0.1,0.1,0.3,0.1,0.4,0.1C65.9,48.8,66.4,48.6,67,49.1z M60.4,41.6
		c0.2-0.4,0.5-0.7,0.7-1c0.1-0.1,0.2-0.2,0.3-0.2c0.2,0.1,0.1,0.2,0,0.4c0,0.1-0.1,0.2-0.1,0.2c0,0.3,0,0.7,0.1,0.9
		c0.2,0.3,0.5,0.1,0.8,0c0.4-0.2,0.8-0.2,1.3,0c0.2,0.1,0.5,0.1,0.7,0c0.4-0.3,0.9-0.3,1.3,0c0.3,0.1,0.5,0.1,0.8,0
		c0.2-0.1,0.2-0.2,0.1-0.3c-0.2-0.5-0.3-0.9-0.5-1.4c0-0.1-0.2-0.1-0.3-0.2c-0.2-0.1-0.5-0.1-0.8-0.2c-0.2-0.1-0.5-0.1-0.7,0
		c-0.4,0.3-0.9,0.3-1.3,0c-0.2-0.1-0.5-0.1-0.7,0c-0.4,0.3-0.9,0.3-1.3,0c-0.2-0.1-0.4-0.1-0.6,0c-0.4,0.1-0.8,0.4-1.3,0.1
		c0,0,0,0.1,0,0.1C59.4,40.5,59.9,41,60.4,41.6z M33,49.7c0.1,0.5,0.2,1,0.3,1.6c0.5-0.4,1-0.3,1.6-0.1c0.2,0.1,0.4,0,0.6-0.1
		c0.4-0.2,0.8-0.3,1.2,0c0.3,0.2,0.5,0.2,0.8,0c0.4-0.2,0.8-0.2,1.2,0c0.4,0.2,0.9,0.1,1.2-0.2c0,0,0.1-0.1,0.1-0.1c0-0.5,0-1,0-1.5
		c-0.1,0-0.2,0-0.2,0.1c-0.5,0.3-0.9,0.3-1.4,0c-0.2-0.2-0.5-0.1-0.7,0c-0.4,0.2-0.8,0.3-1.3,0c-0.3-0.2-0.5-0.2-0.8,0
		c-0.4,0.2-0.8,0.2-1.2,0c-0.2-0.1-0.4-0.1-0.6-0.1C33.5,49.4,33.3,49.6,33,49.7z M61.8,46.6c0.4-0.2,0.7-0.2,1,0
		c0.3,0.2,0.7,0.2,1,0c0.3-0.2,0.7-0.2,1,0c0.3,0.2,0.7,0.2,1,0c0.3-0.2,0.6-0.2,0.9,0c0.1,0,0.2,0.1,0.4,0.2
		c-0.1-0.8-0.1-1.5-0.2-2.3c0-0.1-0.2-0.2-0.2-0.2c-0.1,0-0.2,0-0.3,0.1c-0.5,0.3-0.9,0.3-1.3,0c-0.1-0.1-0.4-0.1-0.5-0.1
		c-0.6,0.3-1.1,0.3-1.6,0c0,0,0,0-0.1,0c-0.1,0.2-0.2,0.3-0.2,0.5c0.1,0.1,0.2,0.2,0.3,0.4C62.3,45.4,62.1,46,61.8,46.6z M46,36.7
		c0.8,0.9,1.3,1.9,1.6,3c0.3,1.2,0.6,2.4,0.9,3.6c0.2,0.9,0.4,1.8,0.6,2.8c0.1-0.1,0.1-0.2,0.1-0.3c0-1.6-0.1-3.2-0.1-4.7
		c0-1.5-0.6-2.7-1.2-4c-0.1-0.1-0.2-0.2-0.2-0.2C47,36.7,46.5,36.7,46,36.7z M53.4,37c-0.4-0.2-0.7-0.2-1,0
		c-0.3,0.3-0.7,0.6-0.8,0.9c-0.3,0.7-0.6,1.4-0.7,2.2c-0.5,2.6-0.7,5.2-0.9,7.8c0,0.3-0.1,0.6-0.1,0.9c0,0,0.1,0,0.1,0
		c0.1-0.4,0.3-0.7,0.3-1.1c0.3-1.7,0.6-3.5,0.9-5.2c0.2-1.4,0.5-2.7,1-4C52.4,37.9,52.7,37.3,53.4,37z M63.3,44
		c0.3,0.2,0.6,0.3,0.9,0.1c0.4-0.3,0.8-0.2,1.2,0c0.2,0.1,0.4,0.1,0.6,0.1c0.3-0.1,0.7-0.2,1.1-0.4c-0.1-0.5-0.2-1.1-0.4-1.7
		c-0.5,0.4-1,0.3-1.5,0c-0.1-0.1-0.3,0-0.5,0c-0.7,0.2-1.2,0.6-1.3,1.3c0.1,0.1,0.3,0.2,0.3,0.2C63.5,43.8,63.4,43.9,63.3,44z
		 M46.2,54.5c0,0,0.1-0.1,0.1-0.1c-0.1-0.3-0.2-0.6-0.3-0.8c-0.5-1.5-1.1-3-1.6-4.6C44,48,43.7,47.1,43,46.3
		c-0.2-0.3-0.5-0.6-0.8-0.8c-0.2,0.2-0.4,0.3-0.2,0.6c0.7,1.4,1.4,2.8,2.1,4.3c0.6,1.2,1.1,2.3,1.6,3.5C45.9,54.1,46,54.3,46.2,54.5
		z M50,49.7C50,49.8,50,49.8,50,49.7c0.1-0.1,0.2-0.2,0.2-0.3c0.9-1.5,1.9-3.1,2.8-4.6c0.2-0.3,0.4-0.5,0.5-0.8c0-0.1,0.1-0.2,0-0.3
		c-0.4-0.4-1-0.4-1.3,0c-0.3,0.3-0.5,0.7-0.6,1.1c-0.6,1.6-1.1,3.1-1.6,4.7C50,49.6,50,49.7,50,49.7z M41.1,49.3
		C41,49.4,41,49.4,41.1,49.3c-0.2,0.5-0.4,0.9-0.5,1.3c-0.2,0.5,0.2,0.8,0.7,0.7c0.1,0,0.3-0.1,0.4-0.1c0.4-0.2,0.7-0.2,1.1,0
		c0.5,0.2,0.8,0.2,1.3-0.2c-0.2-0.4-0.4-0.9-0.6-1.3c-0.2-0.4-0.4-0.5-0.8-0.3C42.1,49.6,41.6,49.7,41.1,49.3z M48.4,34.9
		c0.6,1.3,1.1,2.5,1.6,3.7c0,0,0,0,0,0c0.2-1.2,0.5-2.4,1-3.5c0.1-0.2,0-0.3-0.2-0.3c-0.1,0-0.3,0-0.4,0.1c-0.5,0.3-1,0.3-1.4,0
		C48.8,34.7,48.6,34.7,48.4,34.9z M46.4,34.3c1.6,1.9,2.4,4.2,3.3,6.5c0.1-0.4,0.1-0.8,0-1.2c-0.2-0.8-0.5-1.6-0.8-2.4
		c-0.4-1-0.9-2-1.7-2.8C47,33.9,46.8,33.9,46.4,34.3z M50.1,41.6c0.4-2.8,1.1-5.4,3.1-7.5c-0.3-0.4-0.5-0.4-0.9-0.2
		c-0.5,0.3-0.8,0.8-1,1.3C50.5,37.3,50.3,39.4,50.1,41.6z M51.7,40.9c0,0,0.1,0,0.1,0.1c0.1-0.2,0.2-0.5,0.4-0.7
		c0.3-0.5,0.6-0.9,0.9-1.3c0.4-0.4,0.8-0.4,1.2-0.1c0.4,0.4,0.8,0.2,1.3,0.2c-0.2-0.3-0.4-0.4-0.6-0.7c-0.3-0.3-0.5-0.6-0.8-0.9
		c-0.3-0.3-0.7-0.3-1,0c-0.2,0.2-0.5,0.5-0.6,0.8C52.3,39.2,52,40.1,51.7,40.9z M55.4,42.1C55.4,42.1,55.5,42,55.4,42.1
		c-0.2-0.8-0.4-1.5-0.7-2.1c-0.2-0.4-0.2-0.4-0.6-0.1c-0.7,0.5-1,1.3-1.4,2c0.3,0.2,0.6,0.3,0.9,0.1c0.4-0.3,0.9-0.3,1.3,0
		C55.1,42,55.3,42.1,55.4,42.1z M41.8,46.4c0,0-0.1,0-0.1,0c-0.2,0.8-0.4,1.7-0.6,2.5c0.7,0.7,1.3,0.1,2,0
		C42.6,48,42.2,47.2,41.8,46.4z M54.3,36.9C54.3,36.9,54.4,36.9,54.3,36.9c-0.2-0.9-0.5-1.7-0.8-2.5c-0.7,0.8-1.2,1.5-1.6,2.4
		c0.6-0.4,1.2-0.4,1.9,0C53.9,36.8,54.1,36.9,54.3,36.9z M59.2,47.3c0.8-0.2,1.2-2.4,0.7-3.7C59.2,44.7,58.9,45.9,59.2,47.3z
		 M54.2,39.3c-0.4-0.3-0.6-0.3-0.9,0c-0.3,0.3-0.6,0.7-0.8,1.1c-0.6,1.2-1,2.6-1.4,3.9c0,0.2-0.1,0.3-0.1,0.5c0,0,0.1,0,0.1,0
		c0.3-0.7,0.5-1.4,0.8-2.1c0.1-0.3,0.2-0.7,0.4-1C52.9,40.9,53.3,39.9,54.2,39.3z M40.3,49.9c0,0,0.1,0,0.1,0c0-0.1,0.1-0.2,0.1-0.3
		c0.3-1.2,0.6-2.3,0.9-3.5c0.1-0.3,0-0.4-0.3-0.3c-0.4,0.1-0.6,0.4-0.7,0.7c-0.1,0.4-0.1,0.8-0.2,1.2C40.3,48.4,40.3,49.2,40.3,49.9
		z M56.5,50.7c0.1,0,0.1,0,0.1,0c0.7-0.2,1.4-0.5,2.1-0.8c0.5-0.2,0.9-0.7,1.1-1.2c-0.4,0.1-0.9,0.2-1.2,0.4
		c-0.6,0.3-1.2,0.6-1.8,0.9C56.6,50.2,56.4,50.4,56.5,50.7z M47.4,36.2c-0.4-0.5-0.8-1-1.2-1.5c-0.1-0.2-0.3-0.1-0.4,0.1
		c-0.2,0.4-0.4,0.9-0.6,1.3c-0.1,0.3,0,0.4,0.3,0.3C46.1,36.4,46.7,36.3,47.4,36.2z M55.5,47.1c0,0-0.1,0-0.1,0.1c0.1,1,0.3,2,0.8,3
		c0.2-0.2,0.3-0.4,0.5-0.5c0.3-0.3,0.3-0.6,0.1-0.9C56.4,48.2,55.9,47.6,55.5,47.1z M55.8,52c0.9,0.3,2.5-0.6,3.1-1.6
		c0,0-0.1,0-0.1,0c-0.9,0.2-1.7,0.5-2.4,0.9C56.2,51.4,56,51.7,55.8,52z M49.4,47.9C49.4,47.9,49.4,47.9,49.4,47.9
		c0.1-0.1,0.1-0.3,0.1-0.4c0.1-1.2,0.2-2.4,0.4-3.6c0.1-1-0.1-1.8-0.5-2.7C49.4,43.5,49.4,45.7,49.4,47.9z M57.6,43.4
		C57.5,43.4,57.5,43.4,57.6,43.4c-0.1,1,0.1,1.8,0.8,2.4c0.3-0.3,0.5-0.6,0.4-0.8C58.4,44.4,58,43.9,57.6,43.4z M57.4,48.6
		C57.4,48.6,57.5,48.6,57.4,48.6c0.5-0.3,0.9-0.6,1.3-1c0,0,0.1-0.1,0.1-0.1c0-0.5,0-0.9,0-1.4c0,0-0.1,0-0.1,0
		C58.1,46.8,57.7,47.7,57.4,48.6z M57.6,47c0.1-0.2,0.3-0.5,0.4-0.6c0.1-0.2,0.1-0.3,0-0.5c-0.1-0.2-0.3-0.3-0.4-0.5
		c-0.2-0.2-0.4-0.5-0.7-0.7c0,0-0.1,0-0.1,0.1C56.9,45.5,56.9,46.3,57.6,47z M57,48.4c0.5-0.9,0.5-1-0.1-1.7
		c-0.2-0.2-0.3-0.3-0.5-0.5c-0.1-0.1-0.1-0.1-0.2-0.2C56.2,47,56.4,47.8,57,48.4z M61.2,44.4c0.9-0.2,1.6-0.6,1.9-1.6
		c-0.5,0.2-1,0.4-1.4,0.7C61.1,43.7,61.1,43.7,61.2,44.4z M57.7,49.1c0.5-0.2,1-0.4,1.5-0.5c0.6-0.2,0.7-0.7,0.9-1.2
		C59.2,47.7,58.4,48.2,57.7,49.1z M58.4,42.2C58.3,42.2,58.3,42.2,58.4,42.2c0,0.9,0.1,1.6,0.6,2.4c0.2-0.4,0.3-0.7,0.4-1.1
		c0-0.1,0-0.2-0.1-0.2C59,42.8,58.7,42.5,58.4,42.2z M60.5,44.3c0.5-0.9,0.4-1.8,0.4-2.7c-0.3,0.2-0.4,0.6-0.5,0.9
		C60.2,43.2,60.4,43.7,60.5,44.3z M62.4,44.4C62.4,44.4,62.4,44.3,62.4,44.4c-0.5,0.1-1,0.4-1.5,0.6c-0.4,0.2-0.5,0.5-0.4,0.9
		c0.3-0.1,0.5-0.3,0.8-0.3C62,45.4,62.1,44.9,62.4,44.4z M59.6,42.9c0.2-0.3,0.4-0.6,0.5-0.9c0,0,0-0.1,0-0.1
		c-0.3-0.4-0.6-0.8-1-1.2C59,41.3,59.3,42.5,59.6,42.9z M53.8,34.2c0.3,0.7,0.5,1.4,0.8,2.1c0,0,0.1,0,0.1,0c0-0.5,0.1-1,0-1.6
		C54.7,34.2,54.4,34,53.8,34.2z M47.3,43.3c-0.7,0.2-1.1,0.6-1.5,1.1c-0.1,0.1,0,0.2-0.1,0.3c0.1,0,0.2,0,0.3,0
		C46.7,44.5,47.1,44,47.3,43.3z M47.8,45.6c-0.7,0.2-1.1,0.6-1.5,1.1c-0.1,0.1-0.1,0.2-0.1,0.4c0.1,0,0.3,0,0.4,0
		C47.3,46.8,47.6,46.3,47.8,45.6z M45.8,51.3c0.2,0.7,0.5,1.2,1,1.6c0.1,0,0.2,0,0.3,0.1c0-0.1,0.1-0.2,0-0.3
		C47,52,46.5,51.6,45.8,51.3z M44.1,40.7c0,0.7,0.1,1.3,0.5,1.8c0.1,0.1,0.2,0.1,0.3,0.2c0-0.1,0.1-0.2,0.1-0.3
		C44.9,41.7,44.7,41.2,44.1,40.7z M47.5,44.4c-0.6,0.2-1.1,0.6-1.4,1.1c-0.1,0.1,0,0.2-0.1,0.3c0.1,0,0.2,0,0.3,0
		C46.9,45.7,47.4,45.1,47.5,44.4z M48.2,48c-0.7,0.2-1.2,0.6-1.5,1.2c0,0.1,0,0.2,0,0.3c0.1,0,0.2,0,0.3,0
		C47.6,49.2,48,48.8,48.2,48z M48,46.9c-0.6,0.2-1,0.5-1.4,1c-0.1,0.1,0,0.2,0,0.3c0.1,0,0.2,0,0.3,0C47.5,48,47.8,47.5,48,46.9z
		 M47.4,51.7c0.7-0.1,1.4-0.9,1.3-1.4C47.9,50.4,47.3,51.1,47.4,51.7z M63.3,42.3c-0.2-0.2-0.5-0.3-0.8-0.1
		c-0.4,0.2-0.7,0.4-1.2,0.2c0,0.3,0,0.6-0.1,0.8C62,42.9,62.7,42.6,63.3,42.3z M48.4,49.2c-0.6,0.2-1.1,0.5-1.4,1
		c-0.1,0.1-0.1,0.3,0,0.3c0.1,0.1,0.2,0.1,0.3,0.1C47.9,50.3,48.2,49.9,48.4,49.2z M47.2,42.3c0,0-0.1-0.1-0.1-0.1
		c-0.6,0.3-1.1,0.6-1.4,1.2c0,0.1,0,0.2,0,0.2c0.1,0,0.2,0,0.2,0c0.3-0.2,0.5-0.3,0.8-0.6C46.9,42.8,47,42.5,47.2,42.3z M44.4,45.7
		c0.1,0.7,0.6,1.3,1.3,1.5C45.7,46.5,45.2,45.9,44.4,45.7z M45.5,45.8c0-0.7-0.6-1.4-1.3-1.5C44.3,45.1,44.8,45.5,45.5,45.8z
		 M45.4,42.9c0.7-0.4,0.9-1.3,0.6-1.9C45.4,41.6,45.3,42.2,45.4,42.9z M44.8,47.2c0,0.9,0.7,1.1,1.3,1.5
		C46.1,48.1,45.5,47.3,44.8,47.2z M46.4,50c-0.1-0.6-0.7-1.3-1.3-1.3C45.2,49.3,45.6,49.7,46.4,50z M54.9,37.4
		c0,0.4,0.8,1.5,1.2,1.7C56,38,55.6,37.4,54.9,37.4z M55.6,41.1c0,0,0.1,0,0.1,0c0-0.4,0.1-0.8,0-1.1c0-0.5-0.3-0.6-0.8-0.5
		C55.2,40.1,55.4,40.6,55.6,41.1z M45.1,44.3c-0.1-0.7-0.7-1.3-1.3-1.3C43.9,43.8,44.5,44,45.1,44.3z M46.9,51.5
		c-0.1-0.7-0.8-1.3-1.3-1.3C45.8,50.8,45.8,50.8,46.9,51.5z M54.9,45.5c0.1-0.6,0-1.2-0.2-1.7c0-0.1-0.2-0.1-0.3-0.2
		c-0.1,0.1-0.2,0.3-0.2,0.4C54.5,44.5,54.7,45,54.9,45.5z M60.2,46.7c0,0,0,0.1,0.1,0.1c0.3-0.2,0.5-0.3,0.8-0.5
		c0.1,0.1,0.2,0.1,0.3,0.2c0.1-0.3,0.3-0.5,0.4-0.7C61.1,46,60.5,46.1,60.2,46.7z M45.6,34.4c-0.5,0-0.9,1-0.8,1.7
		C45.1,35.5,45.4,34.9,45.6,34.4z M55.3,49.1c-0.1-0.4-0.3-0.4-0.5-0.6c0,0-0.1,0.1-0.1,0.1C54.9,48.8,55.1,49,55.3,49.1z
		 M61.2,46.8c0,0-0.1-0.1-0.1-0.1c-0.2,0.2-0.4,0.4-0.5,0.7c0,0,0.1,0.1,0.1,0.1C60.8,47.2,61,47,61.2,46.8z"/>
	<path class="st0" d="M71.7,46.9c0.5,0.5,1.1,0.9,1.6,1.4c0.5,0.5,0.9,1.2,1.3,1.8c0.5-1.3,1.3-2.3,2.3-3.2
		c-4.2-0.8-6.3-3.3-6.7-7.5c1.6,0.2,2.9,0.7,4.2,1.7c-0.1-1.3,0.2-2.5,0.7-3.7c-0.4,0.1-0.8,0.1-1.1,0.2c-2.9,0.4-6.1-1.3-7.6-4.4
		c-0.1-0.2,0-0.3,0.2-0.3c1.2-0.3,2.5-0.3,3.7,0c0.1,0,0.2,0.1,0.4,0.1c0,0,0,0,0.1,0c-0.5-1.1-0.7-2.2-0.7-3.4
		c-0.2,0.1-0.4,0.1-0.6,0.2c-3.4,1.2-6.9,0-8.8-2.9c-0.2-0.4-0.2-0.4,0.2-0.5c1.2-0.4,2.3-0.6,3.6-0.5c0.1,0,0.2,0,0.3,0
		c-0.3-0.7-0.6-1.4-0.9-2.2c-0.3-0.7-0.3-1.5-0.3-2.3c1.3,0.2,2.5,0.7,3.6,1.5c0-1.4,0.3-2.6,0.8-3.9c1.6,1.1,2.6,2.5,3.1,4.2
		c0.5,1.8,0.3,3.5-0.5,5.2c0.5,0.3,1,0.5,1.5,0.8c0.5,0.3,0.9,0.7,1.4,1c0.2-1.3,0.6-2.5,1.4-3.7c0.4,0.4,0.8,0.8,1.1,1.2
		c1.8,2.6,1.9,5.4,0.4,8.1c-0.4,0.7-0.4,0.7,0.1,1.4c0.5,0.6,0.8,1.2,1.2,1.8c0.1,0.1,0.1,0.2,0.2,0.4c0.4-0.5,0.8-1.1,1.2-1.6
		c0.4-0.5,1-0.9,1.4-1.3c0,0,0.1,0,0.1,0c0.2,0.7,0.5,1.4,0.6,2.1c0.5,3-0.6,5.4-3,7.3c-0.1,0.1-0.2,0.1-0.2,0.2
		c-0.3,0.3-0.4,0.4-0.2,0.9c0.4,0.9,0.5,1.8,0.5,2.7c0,0.1,0,0.2,0,0.4c1.1-0.8,2.3-1.3,3.6-1.5c-0.1,0.6-0.1,1.1-0.2,1.7
		c-0.6,3.1-2.8,5.3-5.9,5.9c-0.3,0.1-0.4,0.2-0.4,0.5c-0.1,0.9-0.4,1.7-0.5,2.6c0.2,0,0.5-0.1,0.8-0.1c0.9,0,1.8,0,2.6,0.1
		c0.3,0,0.4,0.1,0.2,0.4c-1.3,2.8-3.5,4.3-6.6,4.5c-0.5,0-1-0.1-1.5-0.1c-0.1,0-0.3,0-0.3,0.1c-0.3,0.7-0.7,1.4-1,2.2
		c1.3,0,2.6,0.1,3.8,0.7c-0.3,0.4-0.7,0.9-1,1.3c-2,2.1-5.2,2.9-8,1.8c-0.7-0.3-0.5-0.3-1,0.3c-0.4,0.5-0.9,1.1-1.3,1.6
		c1.3,0.2,2.5,0.7,3.6,1.6c-0.9,0.9-2,1.5-3.2,1.9c-2.2,0.7-4.2,0.4-6.1-0.8c-0.9-0.6-1-0.6-1.9,0c-0.7,0.5-1.3,0.5-2,0
		c-0.1,0-0.1-0.1-0.2-0.1c0.8-0.3,1.5-0.7,2.3-1c0.3-0.1,0.4-0.3,0.3-0.6c-0.5-3,0.6-5.5,3-7.3c0.6-0.4,1.2-0.7,1.9-1.1
		c0.3,1.6,0.3,3-0.3,4.4c1-0.2,2-0.4,2.9-0.6c-0.1-0.5-0.2-0.9-0.3-1.4c-0.4-3,0.7-5.4,3.1-7.2c0.2-0.2,0.3-0.1,0.4,0.1
		c0.5,1.1,0.7,2.2,0.6,3.4c0,0.2,0,0.4,0,0.6c0.8-0.4,1.6-0.8,2.5-1.2c-1.1-1.7-1.3-3.5-0.8-5.5c0.3-1.5,1.1-2.7,2.2-3.8
		c0.9,1.2,1.4,2.6,1.5,4.1c0.8-0.6,1.7-1.2,2.5-1.7c-3-2.4-3.7-5.5-2.5-9.1C71.6,46.9,71.6,46.9,71.7,46.9z M56.3,73.2
		c2.4,0.5,5.7-1.3,6.6-3.6C60.6,69.2,57.5,70.7,56.3,73.2z M74.7,35.8c0.6-2-1.9-5.9-3.9-6.4C70.5,32.2,72.3,34.9,74.7,35.8z
		 M77,45.2c1.3-2.6,0.5-5.9-1.3-7.4C74.6,40.1,75.2,43.5,77,45.2z M74.8,56.7c-2,0.1-4.9,3.9-4.5,5.9C72.5,62.3,75.1,58.9,74.8,56.7
		z M64.3,22.3c0,2.3,2.8,5.7,4.8,5.7C69.3,26,66.2,22.2,64.3,22.3z M69.7,63.7c-2.5,0.1-5.2,2.5-5.6,5
		C66.1,68.9,69.5,65.9,69.7,63.7z M77.2,47.7c-1.9,1.1-3,5.4-1.9,7.2C77.6,52.9,78.1,49.8,77.2,47.7z M61.5,26.8
		c1.5,2.1,4.6,3.2,7.2,2.3c-0.2-0.2-0.3-0.4-0.5-0.5c-0.7-0.4-1.4-0.7-2-1.2c-0.6-0.5-1.2-0.7-1.9-0.8
		C63.3,26.5,62.4,26.5,61.5,26.8z M59,66.1c-2,0.4-4.4,4.7-3.6,6.6c0.2-0.2,0.5-0.4,0.7-0.6c0.5-0.5,0.9-1.1,1.5-1.6
		c0.5-0.4,0.9-0.9,1.1-1.5c0.1-0.5,0.3-0.9,0.3-1.4C59,67.1,59,66.6,59,66.1z M74.2,36.8c-0.2-0.2-0.4-0.5-0.6-0.6
		c-0.7-0.5-1.4-1-2-1.7c-0.1-0.1-0.2-0.2-0.4-0.3c-1.2-0.6-2.5-0.8-3.8-0.6C67.9,35.5,72.3,37.6,74.2,36.8z M63,68.4
		c0.2-0.3,0.4-0.5,0.5-0.7c0.3-0.8,0.8-1.5,1.3-2.2c0.2-0.2,0.3-0.6,0.4-0.9c0.2-0.8,0.2-1.6,0-2.4c-0.1-0.4-0.2-0.7-0.2-1.1
		C62.9,62.8,62,65.9,63,68.4z M76.2,45.8c-0.1-0.3-0.3-0.6-0.4-0.9c-0.3-0.6-0.7-1.3-1-1.9c-0.2-0.6-0.5-1.1-1-1.4
		c-0.6-0.4-1.2-0.7-1.9-1.1c-0.2-0.1-0.5-0.2-0.8-0.3C70.9,42.4,73.7,45.5,76.2,45.8z M69.2,62.5c0.2-0.3,0.3-0.5,0.4-0.8
		c0.2-0.9,0.5-1.8,1-2.7c0.1-0.1,0.1-0.2,0.1-0.3c0-1.3-0.1-2.5-0.8-3.7c0,0-0.1-0.1-0.1-0.1C68.1,57,67.9,60.3,69.2,62.5z
		 M74.2,55.2c0.2-0.2,0.2-0.5,0.1-1c-0.1-0.7-0.2-1.4-0.1-2.1c0.1-0.7,0-1.3-0.4-1.8c-0.3-0.5-0.6-1-1-1.4c-0.2-0.3-0.6-0.6-0.9-0.9
		C71,50.1,72.3,54.2,74.2,55.2z M75,27.9c-0.4,0.7-0.6,1.5-0.8,2.3c-0.1,0.5-0.1,0.9,0.1,1.3c0.6,1,0.9,2,1.1,3.2
		c0,0.2,0.2,0.5,0.4,0.7C77.2,32.9,76.8,29.9,75,27.9z M78.3,45.2c2-1.5,3.2-5.7,2-7.2c-0.1,0-0.1,0.1-0.2,0.1
		c-0.7,0.6-1.3,1.4-1.6,2.2c-0.1,0.3-0.2,0.6-0.1,0.9c0.1,1,0.1,2-0.2,3C78.1,44.6,78.1,44.9,78.3,45.2z M77.8,60.1
		c-0.9-0.1-1.7-0.1-2.5,0.1c-0.5,0.1-0.9,0.4-1.3,0.8c-0.6,0.8-1.4,1.4-2.3,1.9c-0.2,0.1-0.4,0.4-0.7,0.6
		C72.9,64.4,77,62.3,77.8,60.1z M56.7,74.4c1.5,0.9,3,1.1,4.6,0.8c1.1-0.2,2-0.6,3-1.3c-1-0.5-1.9-0.8-3-0.9c-0.3,0-0.6,0-0.9,0.2
		c-0.9,0.5-1.8,0.7-2.8,0.8C57.2,74.1,56.9,74.1,56.7,74.4z M68.2,20.2c-0.4,1.1-0.5,2.2-0.3,3.4c0,0.1,0.1,0.2,0.1,0.3
		c0.7,0.9,1.2,1.9,1.6,3c0.1,0.2,0.3,0.4,0.4,0.7C71.3,25.7,70.1,21.2,68.2,20.2z M71.9,67.6c-0.1,0-0.2-0.1-0.3-0.1
		c-0.9-0.2-1.7-0.3-2.6-0.2c-0.3,0-0.6,0.1-0.7,0.2c-0.9,0.8-1.9,1.3-3,1.7c-0.2,0.1-0.4,0.3-0.6,0.5C66.5,70.8,70.7,69.6,71.9,67.6
		z M81.3,49.7c-0.9,0.1-2.5,1.1-3,1.7c-0.1,0.1-0.2,0.3-0.2,0.4c-0.3,0.9-0.7,1.8-1.3,2.6c-0.1,0.2-0.3,0.4-0.3,0.6
		c0,0.1,0,0.2,0,0.4c0.1,0,0.2,0,0.3,0c2.1-0.8,3.6-2.3,4.3-4.5C81.2,50.5,81.2,50.1,81.3,49.7z"/>
	<path class="st0" d="M19.4,36.8c1.1,0.7,2,1.7,2.6,2.9c0.1-0.2,0.2-0.3,0.2-0.4c0.3-0.8,0.8-1.4,1.4-2.1c0.4-0.4,0.4-0.5,0.1-1
		c-1.6-2.7-1.5-5.9,0.3-8.3c0.3-0.3,0.6-0.6,0.8-1c0.2-0.2,0.3-0.2,0.4,0c0.6,0.9,1,1.9,1.1,3c0,0.1,0,0.2,0.1,0.4
		c0.8-0.8,1.8-1.5,2.9-1.9c-0.9-2.1-1.1-4.3-0.1-6.4c0.6-1.2,1.8-2.6,2.7-3.1c0.4,0.4,0.8,1.9,0.9,3.8c1.1-0.8,2.3-1.2,3.6-1.5
		c0.1,1.7-0.4,3.1-1.3,4.5c1.6-0.2,3,0,4.4,0.6c-1,1.7-2.4,2.8-4.2,3.4c-1.8,0.6-3.6,0.4-5.4-0.4c0,1.3-0.2,2.4-0.7,3.5
		c0.5-0.1,0.9-0.2,1.3-0.3c0.9-0.1,1.9-0.1,2.8,0.1c0.3,0.1,0.3,0.2,0.2,0.4c-1.1,2.3-2.9,3.7-5.4,4.2c-1,0.2-2,0.2-2.9,0
		c-0.1,0-0.1,0-0.2,0c0,0-0.1,0-0.2,0c0.5,1.1,0.7,2.3,0.7,3.6c1.2-1,2.6-1.5,4.1-1.7c0,1.9-0.6,3.6-1.9,5c-1.3,1.4-2.8,2.2-4.7,2.4
		c0.5,0.5,0.9,1,1.3,1.5c0.4,0.5,0.7,1.1,1.1,1.7c0.7-1.3,1.7-2.3,3-3.1c1.3,2.5,0.9,6.8-2.4,9.2c0.8,0.6,1.7,1.2,2.5,1.7
		c0.1-1.4,0.6-2.8,1.5-4.1c1.2,1.2,2,2.7,2.3,4.4c0.3,1.7-0.1,3.4-1,4.9c0.8,0.4,1.7,0.8,2.5,1.2c-0.2-1.5,0.1-2.9,0.7-4.3
		c1.5,1,2.5,2.2,3.1,3.9c0.6,1.6,0.5,3.3,0,4.9c1,0.2,2,0.4,3,0.6c-0.4-1.4-0.6-2.8-0.2-4.3c0.1,0,0.1,0,0.2,0
		c3.2,1.2,5.1,4.2,4.8,7.7c0,0.3,0,0.5-0.1,0.8c0,0.2,0,0.3,0.2,0.3c0.7,0.3,1.4,0.6,2.1,0.9c0.1,0,0.2,0.1,0.4,0.2
		c-0.5,0.2-0.8,0.4-1.2,0.5c-0.1,0-0.2,0-0.3-0.1c-0.4-0.2-0.9-0.5-1.3-0.7c-0.2-0.1-0.4-0.1-0.6,0c-0.2,0.1-0.4,0.2-0.6,0.4
		c-3,1.9-6.8,1.5-9.3-1.1c1.1-0.8,2.2-1.4,3.6-1.6c-0.3-0.3-0.5-0.5-0.7-0.8c-0.3-0.3-0.5-0.7-0.8-1c-0.2-0.3-0.3-0.3-0.6-0.2
		c-0.8,0.3-1.7,0.6-2.5,0.6c-2.8,0-5-1.1-6.5-3.4c0-0.1,0-0.1-0.1-0.2c1.2-0.7,2.5-0.7,3.8-0.7c-0.1-0.1-0.1-0.2-0.2-0.3
		c-0.3-0.5-0.6-1.1-0.8-1.6c-0.1-0.3-0.3-0.4-0.6-0.3c-0.8,0.2-1.7,0.2-2.5,0c-2.6-0.5-4.5-2.1-5.6-4.5c0,0,0-0.1,0-0.1
		c0,0,0,0,0-0.1c0.6-0.2,1.3-0.3,1.9-0.2c0.6,0,1.3,0.1,1.9,0.2c0-0.1,0-0.2-0.1-0.3c-0.3-0.8-0.5-1.6-0.6-2.5
		c0-0.3-0.2-0.3-0.4-0.3c-2.3-0.5-4-1.8-5.1-3.8c-0.6-1.1-0.9-2.3-0.9-3.5c0-0.1,0-0.2,0-0.3c1.3,0.2,2.5,0.7,3.6,1.5
		c0-0.5,0.1-1,0.1-1.4c0.1-0.5,0.2-1.1,0.4-1.6c0.2-0.5,0.1-0.7-0.3-1c-0.6-0.5-1.2-1-1.6-1.6C18.3,42.2,18.1,39.6,19.4,36.8
		C19.4,36.8,19.4,36.8,19.4,36.8z M43.7,73.2c-1.2-2.4-4.7-4.3-6.6-3.5C38.1,71.9,41.6,73.8,43.7,73.2z M29.7,62.6
		c0-1.5-0.8-3.4-2.2-4.6c-0.8-0.7-1.9-1.3-2.3-1.2C24.8,58.8,27.5,62.2,29.7,62.6z M24.7,54.9c1.1-1.9-0.1-6.2-1.9-7.2
		C21.8,50.1,22.6,53.3,24.7,54.9z M23,45.2c1.3-1.3,1.9-2.9,1.9-4.7c0-0.9-0.2-1.8-0.6-2.7C22.3,39.6,21.8,43,23,45.2z M30.3,63.7
		c0.2,2.2,3.6,5.2,5.6,5C35.5,66.3,32.8,63.8,30.3,63.7z M29.2,29.5c-2,0.3-4.6,4.6-3.9,6.3C27.3,35.5,29.7,31.6,29.2,29.5z
		 M30.9,28c2,0,4.8-3.3,4.8-5.7C33.8,22.3,30.6,26,30.9,28z M32.6,33.5c-1-0.2-2.1-0.1-3.1,0.3c-0.4,0.1-0.8,0.3-1.1,0.6
		c-0.6,0.7-1.3,1.3-2.1,1.8c-0.2,0.1-0.4,0.4-0.6,0.6C27.7,37.6,31.9,35.6,32.6,33.5z M28.8,40.3c-0.1,0-0.3,0.1-0.4,0.1
		c-1.1,0.3-2,0.9-2.8,1.8c-0.1,0.1-0.2,0.3-0.3,0.5c-0.3,0.9-0.7,1.7-1.2,2.4c-0.2,0.2-0.2,0.6-0.4,0.9
		C26.2,45.6,29.1,42.4,28.8,40.3z M44.6,72.7c0.4-2.5-1.1-5.5-3.6-6.7c0,0.1,0,0.2,0,0.3c0,1,0.1,2,0.5,2.9c0.2,0.4,0.4,0.7,0.7,1
		c0.6,0.6,1.2,1.2,1.7,1.9C44.2,72.3,44.4,72.5,44.6,72.7z M37,68.5c1.1-2.2-0.2-6.5-2.1-7.3c-0.1,0.6-0.2,1.1-0.3,1.6
		c-0.1,1.1,0,2.2,0.8,3.1c0.4,0.5,0.7,1.2,1,1.7C36.5,67.9,36.7,68.1,37,68.5z M31.2,29.1c2.3,0.8,5.6,0.1,7.2-2.2c0,0-0.1,0-0.1,0
		c-0.1,0-0.1,0-0.2-0.1c-0.8-0.2-1.7-0.3-2.6-0.1c-0.5,0.1-1.1,0.2-1.5,0.5c-0.7,0.6-1.4,1-2.2,1.4C31.7,28.7,31.5,28.9,31.2,29.1z
		 M28,48c-1,0.8-1.7,1.7-2.1,2.9c-0.1,0.3-0.1,0.6-0.1,0.8c0.1,0.9,0,1.7-0.1,2.6c0,0.2,0,0.5,0,0.8C27.7,54.1,29.1,50,28,48z
		 M30.8,62.5c1.4-1.8,1-6.4-0.6-7.5c0,0-0.1,0.1-0.1,0.1c-0.7,1.2-0.8,2.5-0.7,3.8c0,0.1,0,0.1,0.1,0.2c0.5,0.8,0.8,1.8,1,2.7
		C30.4,62,30.6,62.2,30.8,62.5z M25,27.9c-1.9,2-2.1,5.3-0.8,7.5c0.3-0.2,0.4-0.6,0.5-0.9c0.1-0.8,0.3-1.7,0.8-2.4
		c0.4-0.6,0.5-1.2,0.3-1.9c0-0.1,0-0.3-0.1-0.4C25.5,29.1,25.4,28.5,25,27.9z M28.1,67.6c1.4,2.1,4.8,3.2,7.2,2.2
		c-0.2-0.3-0.5-0.5-0.8-0.6c-0.8-0.3-1.6-0.6-2.3-1.2c-0.5-0.5-1.2-0.6-1.8-0.6c-0.3,0-0.6,0-0.8,0C29.1,67.4,28.6,67.5,28.1,67.6z
		 M19.7,38c-0.9,2-0.4,5.3,2,7.3c0.1-0.3,0.2-0.6,0.1-0.9c-0.2-0.9-0.3-1.9-0.2-2.8c0.1-0.7-0.1-1.3-0.4-1.9
		C20.8,39,20.3,38.5,19.7,38z M29.9,27.6c0.2-0.3,0.4-0.6,0.5-0.8c0.3-1,0.8-1.8,1.3-2.6c0.2-0.3,0.4-0.7,0.4-1.1
		c0.1-0.4,0.1-0.9,0-1.3c-0.1-0.5-0.2-1-0.3-1.5C29.9,21.6,28.7,25.1,29.9,27.6z M28.9,63.5c-0.2-0.2-0.4-0.5-0.6-0.6
		c-0.9-0.5-1.7-1.2-2.4-2c-0.2-0.3-0.6-0.5-1-0.6c-0.8-0.2-1.6-0.2-2.4-0.3c-0.1,0-0.2,0-0.3,0.1C23.1,62.3,27,64.3,28.9,63.5z
		 M18.8,49.7c0,2.6,2.5,5.3,4.8,5.7c0.1-0.3-0.1-0.6-0.3-0.8c-0.6-0.8-1.1-1.6-1.3-2.5c-0.1-0.5-0.4-0.8-0.8-1.1
		C20.5,50.4,19.7,49.9,18.8,49.7z M43.4,74.3c-0.3-0.1-0.5-0.3-0.8-0.3c-1.1-0.1-2.1-0.4-3.1-0.9C39.3,73,39,73,38.8,73
		c-0.9,0.1-1.8,0.4-2.7,0.8c-0.1,0-0.2,0.1-0.3,0.2C37.5,75.6,41.9,75.9,43.4,74.3z"/>
	<path class="st0" d="M56,21.6c-1.2-0.8-2.3-1.5-3.5-2.3c-0.8-0.5-1.6-1-2.4-1.6c-0.2-0.2-0.4-0.1-0.6,0c-1.9,1.2-3.7,2.4-5.6,3.7
		c-0.1,0.1-0.2,0.1-0.3,0.2c0-0.1,0.1-0.2,0.1-0.3c0.7-2,1.4-4.1,2.1-6.1c0.1-0.2,0-0.4-0.2-0.5c-1.8-1.2-3.5-2.4-5.3-3.6
		c-0.1-0.1-0.2-0.2-0.4-0.3c0.2,0,0.3,0,0.4,0c2.2,0,4.4,0,6.6,0c0.3,0,0.4-0.1,0.5-0.3c0.6-1.8,1.3-3.6,1.9-5.4
		c0-0.1,0.1-0.2,0.2-0.4c0.4,0.9,0.7,1.8,1,2.7c0.4,1.1,0.8,2.1,1.2,3.2c0.1,0.2,0.2,0.3,0.5,0.3c2.5,0,5,0,7.4,0
		c0.1,0,0.2,0,0.3,0.1c-0.2,0.1-0.3,0.2-0.5,0.3c-1.8,1.2-3.7,2.4-5.5,3.7c-0.4,0.3-0.4,0.3-0.2,0.8c0.7,1.9,1.4,3.7,2.1,5.6
		C55.9,21.3,56,21.5,56,21.6C56,21.6,56,21.6,56,21.6z M45,19.7C45.1,19.7,45.1,19.7,45,19.7c0.2,0,0.3-0.1,0.4-0.1
		c1.4-0.9,2.7-1.8,4.1-2.7c0.2-0.1,0.4-0.2,0.6,0c1.2,0.8,2.4,1.6,3.6,2.4c0.2,0.2,0.5,0.3,0.7,0.5c0,0,0,0,0.1,0
		c-0.6-1.6-1.2-3.2-1.8-4.8c1.6-1.1,3.2-2.1,4.8-3.2c-0.1-0.1-0.3-0.1-0.4-0.1c-1.8,0-3.6,0-5.4,0c-0.2,0-0.3-0.1-0.4-0.3
		c-0.5-1.3-1-2.5-1.4-3.8c-0.1-0.2-0.2-0.4-0.3-0.6c0,0-0.1,0-0.1,0c-0.5,1.5-1.1,3.1-1.6,4.7c-1.8,0-3.6,0-5.4,0
		c0.1,0.1,0.2,0.2,0.2,0.3c1.3,0.9,2.6,1.8,3.8,2.7c0.2,0.1,0.2,0.2,0.2,0.5c-0.5,1.4-1,2.8-1.4,4.1C45.2,19.3,45.1,19.5,45,19.7z"
		/>
	<path class="st0" d="M75.3,81.6c0.1-0.1,0.3-0.2,0.4-0.3c0.3-0.2,0.6-0.4,0.8-0.6c0.4-0.4,0.4-0.8,0.2-1.3
		c-0.1-0.2-0.3-0.3-0.5-0.1c-0.2,0.1-0.4,0.2-0.5,0.3c-0.2,0.1-0.3,0.1-0.5,0c-0.4-0.3-0.7-1.3-0.5-1.8c0-0.1,0.2-0.2,0.3-0.1
		c0.3,0.1,0.5,0.2,0.7,0.4c0.2,0.1,0.4,0.1,0.6-0.1c1.1-1.1,2.1-2.2,3.1-3.4c0.4-0.4,0.2-0.7-0.3-0.7c-0.3,0-0.6,0-0.8,0.2
		c-0.7,0.8-1.4,1.5-2.2,2.2c0,0-0.1,0.1-0.1,0.1c-0.6,0.6-0.8,0.6-1.3-0.1c-0.9-1.2-0.3-3,0.6-3.7c0.1,0.4,0.3,0.7,0.4,1
		c0,0.1-0.1,0.2-0.2,0.3c-0.4,0.3-0.6,0.7-0.7,1.2c0,0.1-0.1,0.3,0,0.4c0.1,0.2,0.2,0.4,0.3,0.5c0.1,0,0.4-0.1,0.5-0.2
		c0.5-0.5,0.9-1,1.3-1.5c0.2-0.2,0.4-0.4,0.6-0.7c0.4-0.6,1-0.6,1.7-0.5c0.3,0.1,0.5,0,0.8-0.2c0.8-0.6,1.1-1.5,1.4-2.4
		c0.1-0.2,0.1-0.4,0.2-0.7c-0.8,0.4-1.7,0.5-2.2,1.2c-0.2,0.3-0.3,0.7-0.4,1c-0.2-0.6-0.4-1.2-0.3-1.8c0-0.2,0.2-0.3,0.4-0.4
		c1.1-0.6,2.2-1.2,3.3-1.8c0.5-0.3,1-0.6,1.6-0.9c0.1,0.3,0.2,0.6,0.3,1c0,0.1,0,0.2-0.1,0.2c-1.2,1-1.8,2.4-2.2,3.8
		c0,0.1-0.1,0.2-0.1,0.4c-0.2,0.6-0.5,1-1,1.3c-0.2,0.1-0.3,0.3-0.3,0.5c0.1,0.6-0.2,1-0.6,1.4c-1,1-1.9,2-2.8,2.9
		c-0.1,0.1-0.2,0.2-0.1,0.4c0.3,0.5,0.4,1,0.4,1.5c0,0.3-0.1,0.5-0.4,0.6c-0.5,0.2-0.9,0.3-1.4,0.5c-0.1,0-0.2,0-0.4,0
		C75.3,81.7,75.3,81.7,75.3,81.6z"/>
	<path class="st0" d="M18.2,71.9c-0.5-0.1-1-0.1-1.4-0.1c-0.2,0-0.4-0.2-0.5-0.4c-0.2-0.5-0.4-0.9-0.6-1.4c0,0,0,0,0.1-0.1
		c0.1,0.1,0.1,0.1,0.2,0.2c0.7,1,1.7,1.5,2.9,1.4c0.5,0,0.9,0,1.4,0c0,0,0,0.1,0,0.1c-0.1,0-0.2,0.1-0.3,0.1c-0.2,0-0.4,0-0.7,0
		c-0.4,0-0.8,0.4-0.8,0.8c0,0.6,0.3,1,0.9,1.2c0.3,0.1,0.6,0.1,0.9,0.1c0.2,0,0.3,0.1,0.4,0.4c0.2,1.9,1.4,3.2,3,4.1
		c1.6,1,3.4,1.4,5.2,1.7c0.6,0.1,1.2,0.2,1.7,0.3c0.2,0,0.3,0.1,0.6,0.2c-0.4,0.1-0.6,0.2-0.9,0.2c0,0-0.1,0-0.1,0
		c-0.7-0.4-1.5-0.4-2.3-0.4c-1.8-0.2-3.4-0.6-5-1.5c-1.6-0.9-2.7-2.2-3.3-3.9c0-0.1-0.1-0.1-0.1-0.2c-0.1-0.4-0.4-0.6-0.8-0.7
		c-0.4-0.1-0.7-0.2-1.1-0.4c-0.5-0.3-0.6-0.8-0.1-1.2C17.8,72.3,18,72.1,18.2,71.9z"/>
	<path class="st0" d="M53.9,85.2c0.1,0.2,0.2,0.3,0.3,0.4c0.3,0.5,0.7,1,1,1.5c0.9,1.3,2.4,1.3,3.2-0.1c0.1-0.1,0.1-0.2,0.2-0.3
		c0.1,0.1,0.1,0.1,0.1,0.1c0.2,0.5,0.4,0.7,0.9,0.6c0.9,0,1.5-0.5,1.7-1.4c0-0.1,0-0.1,0.1-0.3c0.1,0.2,0.2,0.2,0.2,0.3
		c0,0.3,0.2,0.4,0.4,0.4c0.3,0,0.5-0.1,0.6-0.4c0.1-0.2,0.1-0.4,0.1-0.6c0,0,0-0.1,0.1-0.2c0.1,0.2,0,0.4,0.1,0.5
		c0.1,0.2,0.3,0.4,0.5,0.5c0.1,0,0.4-0.1,0.5-0.2c0.2-0.2,0.1-0.5-0.1-0.6c-0.5-0.4-0.2-0.8-0.1-1.4c0.1,0.2,0.2,0.3,0.3,0.4
		c0.3,0.5,0.4,1.1,0.4,1.7c-0.1,0.8-0.5,1-1.2,0.6c-0.1,0-0.1-0.1-0.2-0.1c-0.4,0.8-0.7,1-1.4,0.4c-0.3,0.3-0.6,0.6-0.9,0.8
		c-0.9,0.6-1.3,0.7-2.2-0.1c-0.3,0.5-0.6,1.1-1.2,1.3c-0.7,0.2-1.2,0-1.7-0.5c-0.2,0.3-0.4,0.6-0.6,0.8c-0.3,0.3-0.7,0.7-1.1,0.9
		c-0.5,0.3-1,0.2-1.4-0.3c-0.5-0.6-0.6-1.3-0.4-2.1c0.2,0,0.2,0.2,0.2,0.4c-0.1,0.3,0,0.7,0.2,0.9c0.3,0.4,0.7,0.5,1.1,0.3
		c0.4-0.2,0.8-0.5,1.2-0.8c0.3-0.3,0.4-0.5,0.1-0.9c-0.3-0.4-0.6-0.7-0.9-1.1c0,0-0.1-0.1-0.1-0.1C53.5,86.1,53.5,86,53.9,85.2z"/>
	<path class="st0" d="M71.2,82.5c-0.3,1.2-1.1,1.8-2,2.3c-0.6,0.4-1.3,0.7-2,1c-0.9,0.4-1.5,0.2-2.1-0.6c-0.2-0.2-0.3-0.5-0.4-0.7
		c-0.1-0.1-0.1-0.2-0.1-0.3c0,0,0.1,0,0.1,0c0.1,0.1,0.2,0.2,0.2,0.3c0.4,0.6,0.7,0.8,1.4,0.7c1.5-0.4,2.9-1,4-2.1
		c0.5-0.4,0.7-0.9,0.5-1.6c0-0.1,0-0.1,0.1-0.2c0.1,0,0.2,0.1,0.2,0.1c0.1,0.2,0.1,0.5,0.2,0.7c0,0.2,0.1,0.3,0.3,0.2
		c0.7-0.1,1-0.4,1-1.1c0-0.6,0-1.2,0-1.8c0-0.5,0.2-0.7,0.7-0.6c0.2,0.1,0.5,0.2,0.6,0.4c0.3,0.6,0.6,1.3,0.8,1.9
		c0.1,0.4-0.3,0.8-0.7,0.7c-0.3,0-0.5-0.1-0.8-0.1c-0.1,0-0.2,0.1-0.3,0.2c-0.1,0.2-0.2,0.5-0.3,0.7c-0.1,0.2-0.3,0.3-0.6,0.1
		C71.7,82.7,71.4,82.6,71.2,82.5z"/>
	<path class="st0" d="M46.4,87.8C46.4,87.8,46.4,87.8,46.4,87.8c-0.8,0.7-1.6,1.4-2.7,1.7c-0.8,0.2-1.1,0.1-1.4-0.8
		c0-0.2-0.1-0.3-0.1-0.5c-0.1,0-0.2,0-0.2,0.1c-0.4,0.2-0.9,0.4-1.4,0.3c-0.1,0-0.2,0.1-0.3,0.1c-0.4,0.4-0.9,0.8-1.3,1.2
		c-0.2,0.2-0.5,0.2-0.8,0c-0.3-0.2-0.6-0.3-0.8-0.6c0.1,0,0.3,0,0.4,0c0.7,0.1,1.4,0,2-0.5c0.1-0.1,0.2-0.2,0.1-0.3
		c0-0.1-0.2-0.3-0.3-0.3c-0.5,0-0.6-0.4-0.4-0.8c0.1-0.4,0.3-0.8,0.5-1.1c0.3-0.4,0.7-0.4,0.9,0.1c0.2,0.5,0.3,1,0.5,1.5
		c0.7,0.2,1-0.1,1.3-0.8c0.3-0.8,0.6-1.7,0.9-2.5c0.2-0.6,0.7-0.9,1.3-0.9c1,0,1.9-0.1,2.9-0.1c0,0,0.1,0,0.1,0
		c-0.4,0.4-0.8,0.6-1.3,0.6c-0.6,0.1-1.2,0-1.8,0c-0.9,0-1,0-1.3,0.9c-0.2,0.8-0.4,1.5-0.6,2.3c-0.1,0.4,0.1,0.7,0.4,0.8
		c0.2,0.1,0.2,0,0.3-0.1c0.3-0.4,0.5-0.8,0.8-1.2c0.2-0.3,0.5-0.3,0.8-0.1C45.6,87.3,46,87.5,46.4,87.8z M45.9,88
		c-0.2-0.1-0.4-0.2-0.6-0.3c-0.7-0.3-1-0.2-1.3,0.5c-0.1,0.2-0.1,0.4,0,0.5c0.1,0.1,0.3,0.2,0.5,0.1C45,88.7,45.4,88.4,45.9,88z"/>
	<path class="st0" d="M29.9,81.4c-0.1,0.3-0.2,0.5-0.4,0.8c-0.1,0.3-0.1,0.6,0.2,0.9c0.5,0.4,0.9,0.8,1.4,1.1c0.9,0.5,1.9,1,2.8,1.5
		c0.7,0.3,1.5,0.6,2.2-0.1c0.1,0.3-0.1,0.4-0.3,0.6c-0.3,0.2-0.4,0.4-0.3,0.7c0.1,0.3,0.4,0.3,0.6,0.2c0.6-0.2,1.2-0.4,1.7-1
		c0.1-0.2,0.4-0.3,0.6-0.4c0.2-0.1,0.3,0,0.3,0.2c0,0.3,0.1,0.6,0.1,0.9c0,0.1-0.1,0.3-0.2,0.3c-0.2,0.2-0.5,0.3-0.8,0.5
		c-0.1-0.2-0.1-0.3-0.2-0.4c-0.1-0.3-0.2-0.3-0.4-0.2c-0.4,0.2-0.9,0.4-1.3,0.6c-0.7,0.2-0.9,0.1-1-0.7c0-0.3-0.1-0.4-0.4-0.4
		c-1.7-0.1-3.1-0.8-4.5-1.7c-0.2-0.2-0.5-0.3-0.7-0.5c-0.8-0.5-0.9-1.6-0.2-2.3C29.4,81.7,29.6,81.5,29.9,81.4
		C29.8,81.4,29.9,81.4,29.9,81.4z"/>
	<path class="st0" d="M19.6,68.8c0.2,0.2,0.3,0.3,0.5,0.4c0.4,0.5,0.3,1-0.3,1.2c-0.2,0.1-0.4,0.1-0.6,0c-1.1-0.4-2.1-0.9-2.8-2
		c-0.2-0.4-0.4-0.8-0.4-1.2c0,0,0.1,0,0.1,0c0.4,0.3,0.9,0.2,1.3,0.2c0.6,0,1.1,0,1.7,0.1c0.2,0,0.4,0.2,0.6,0.3
		C19.9,68.1,19.9,68.4,19.6,68.8z M17.3,68.6c0,0.1,0,0.2,0,0.2c0.4,0.6,0.9,1,1.6,1.3c0.4,0.1,0.6,0,0.7-0.3c0.1-0.4,0-0.7-0.4-0.8
		c-0.5-0.2-1-0.2-1.4-0.4C17.7,68.6,17.5,68.7,17.3,68.6z M16.9,67.7c0,0.1,0,0.1,0.1,0.1c0.6,0.4,1.3,0.7,2.1,0.6
		c0.1,0,0.2-0.1,0.3-0.2c0-0.1-0.1-0.2-0.2-0.3c-0.1-0.1-0.3-0.2-0.4-0.2c-0.6,0-1.1,0-1.7,0C16.9,67.7,16.9,67.7,16.9,67.7z"/>
	<path class="st0" d="M67.1,82.7c-0.4-0.2-0.8-0.4-1.2-0.5c0.2-0.3,0.3-0.6,0.5-0.9c0.3,0.1,0.6,0.3,0.9,0.4c0.1,0,0.1,0.2,0.1,0.2
		C67.4,82.2,67.2,82.5,67.1,82.7z"/>
	<path class="st0" d="M54.5,82.9c0.4,0.2,0.7,0.3,1.1,0.5c-0.1,0.3-0.3,0.5-0.4,0.8c0,0.1-0.2,0.1-0.2,0.1c-0.3-0.1-0.6-0.3-0.9-0.5
		C54.2,83.5,54.3,83.2,54.5,82.9z"/>
	<path class="st0" d="M52.1,84.3c0.2-0.3,0.3-0.6,0.5-0.9c0.4,0.2,0.7,0.3,1.1,0.5c-0.2,0.3-0.3,0.6-0.5,1
		C52.9,84.7,52.5,84.5,52.1,84.3z"/>
	<path class="st0" d="M67.7,81.4c0.2-0.3,0.3-0.6,0.5-0.9c0.4,0.2,0.7,0.3,1.1,0.5c-0.2,0.3-0.3,0.6-0.5,1
		C68.4,81.8,68,81.6,67.7,81.4z"/>
	<path class="st0" d="M56.4,84.7c0.3,0.2,0.6,0.3,0.9,0.4c0,0,0.1,0,0.2,0.1c-0.2,0.3-0.3,0.6-0.5,0.9c-0.4-0.2-0.7-0.4-1.1-0.5
		C56.1,85.3,56.3,85,56.4,84.7z"/>
	<path class="st0" d="M33.1,83c0.3-0.1,0.6-0.1,0.8-0.1c0.1,0,0.3,0.1,0.3,0.2c0.1,0.2,0.2,0.5,0.3,0.7c-0.2,0.1-0.5,0.1-0.7,0.2
		c-0.1,0-0.2,0-0.2-0.1C33.4,83.6,33.3,83.3,33.1,83z"/>
	<path class="st0" d="M33.1,82.9C33,83,32.9,83,32.8,83c-0.8,0.2-1.1,0-1.2-0.9c0.3,0,0.5-0.1,0.8-0.1c0.1,0,0.1,0,0.2,0.1
		C32.8,82.3,32.9,82.6,33.1,82.9z"/>
	<path class="st0" d="M20.9,72.2c0.2,0,0.3,0,0.4,0c0.7,0,0.9,0.2,0.9,0.9c0,0,0,0.1,0,0.1c-0.2,0.2-0.9,0-1-0.3
		C21.1,72.7,21,72.5,20.9,72.2z"/>
	<path class="st0" d="M63.1,88.7c0-0.4,0.3-0.7,1.5-1.5C64.7,87.7,64.1,88.3,63.1,88.7z"/>
	<path class="st0" d="M25.1,81.6c0.7-0.2,1.4,0.2,2.1,0.2C26.4,82.2,25.7,81.8,25.1,81.6z"/>
	<path class="st0" d="M47.7,13.6c-0.2,0-0.5-0.2-0.5-0.4c0-0.2,0.2-0.4,0.4-0.4c0.2,0,0.5,0.2,0.5,0.4C48.2,13.4,48,13.6,47.7,13.6z
		"/>
	<path class="st0" d="M52.2,13.6c-0.2,0-0.4-0.2-0.4-0.5c0-0.2,0.2-0.4,0.4-0.4c0.3,0,0.5,0.2,0.5,0.5
		C52.7,13.4,52.5,13.6,52.2,13.6z"/>
	<path class="st0" d="M50,13.6c-0.2,0-0.4-0.2-0.4-0.4c0-0.2,0.2-0.4,0.4-0.4c0.3,0,0.4,0.2,0.4,0.4C50.4,13.4,50.2,13.6,50,13.6z"
		/>
</g>
</svg>
