<?xml version="1.0" encoding="utf-8"?>
<!-- Generator: Adobe Illustrator 27.6.1, SVG Export Plug-In . SVG Version: 6.00 Build 0)  -->
<svg version="1.1" id="Layer_1" xmlns="http://www.w3.org/2000/svg" xmlns:xlink="http://www.w3.org/1999/xlink" x="0px" y="0px"
	 viewBox="0 0 100 100" style="enable-background:new 0 0 100 100;" xml:space="preserve">
<style type="text/css">
	.st0{fill:#8139E7;}
	.st1{fill:#DF5311;}
	.st2{fill:#FFFFFF;}
</style>
<g>
	<g>
		<path class="st1" d="M6.3,54.8c0,0.9,0,2.1,0,3.2c0,2.4,0.5,4.8,1.1,7.2c0.1,0.6,0.6,0.5,0.9,0.2c1.2-1.1,2.5-2,4-2.6
			c2-0.8,4.1-1.4,6.4-0.9c0.1,0,0.2,0.1,0.3,0.1c0.3,0,0.7,0.2,0.9-0.1c0.2-0.3-0.1-0.6-0.2-0.9c-0.8-1.6-1.9-3-3.2-4.2
			c-0.3-0.2-0.6-0.4-0.8-0.6c-0.6-0.6-0.7-1.1-0.3-1.7c0.4-0.6,1.2-0.7,1.8-0.3c1.2,0.7,2.4,1.6,3.3,2.8c0.8,1.1,1.5,2.3,2,3.5
			c0.2,0.4,0.2,0.9,0.4,1.4c0.2,0.4,0.4,0.6,0.9,0.5c1.2-0.2,2.4-0.2,3.6-0.4c1.7-0.2,3.5-0.2,5,0.6c1.3,0.7,2,0.1,2.8-0.7
			c2-2.1,4.1-4.1,6.1-6.2c2-2,3.9-3.9,5.9-5.9c2.3-2.3,4.6-4.5,6.9-6.8c2.1-2.1,4.1-4.2,6.2-6.2c1.5-1.5,3-2.9,4.4-4.4
			c2.9-2.9,5.8-5.8,8.7-8.7c2.4-2.4,4.7-4.7,7.1-7.1c0.6-0.6,1-1.3,1.8-1.6c0.6-0.2,1.1-0.1,1.5,0.3c1.5,1.5,2.9,3.1,4.2,4.8
			c2.5,3.2,4.4,6.7,5.9,10.5c0.8,2.1,1.6,4.2,2,6.4c0.9,4.3,1.3,8.6,1,13c-0.1,2.3-0.5,4.7-0.9,7c-0.4,2.2-1.2,4.3-1.9,6.4
			c-1,3.1-2.6,5.9-4.2,8.6c-1.2,2-2.7,3.8-4.2,5.5c-2.5,2.9-5.4,5.3-8.5,7.5c-2.3,1.7-4.9,3-7.5,4.1c-2.2,0.9-4.4,1.7-6.7,2.2
			c-1.7,0.4-3.4,1.1-4.8,2.2c-1.1,0.9-2.3,1.4-3.6,1.9c-0.7,0.3-1.4,0.6-2.2,0.7c-1.8,0.2-3.6,0.9-5.4,0.4c-0.4-0.1-0.9-0.2-1.4-0.2
			c-1.2,0-2.3-0.5-3.4-0.8c-1.8-0.6-3.3-1.5-4.8-2.6c-0.2-0.2-0.3,0-0.5,0.1c-1.3,0.9-2.6,2-4.2,2.6c-2.2,0.9-4.4,1.6-6.8,0.9
			c-1-0.3-2.1-0.5-3.2-0.7c-0.8-0.1-1.5,0.1-2.3,0.3c-1.6,0.5-3.2,0.7-5,0.4c-1.8-0.3-3.4-0.9-5-1.7c-0.5-0.3-1.1-0.7-1-1.5
			c0-0.9,0.6-1.3,1.5-1.1c0.9,0.2,1.6,0.8,2.5,1.1c2,0.7,4.1,0.8,6.1,0.2c2-0.6,3.9-0.5,5.9,0.2c1.9,0.7,3.8,0.3,5.7-0.3
			c1.8-0.6,3.5-1.6,4.7-3.1c0.8-0.9,1.3-2,1.9-3.2c0.6-1.4,1.1-2.8,1.4-4.2c0-0.2,0.1-0.4,0.1-0.6c-0.1-2.6,0.2-5.1-0.4-7.7
			c-0.4-1.6-1-3.2-1.8-4.7c-1.2-2.3-3.1-3.7-5.4-4.8c-1.7-0.8-3.6-0.7-5.5-0.4c-0.5,0.1-1.1,0.3-1.6,0.2c-0.7,0-0.8,0.3-0.7,0.9
			c0.1,0.6,0.1,1.2,0.1,1.8c0,0.6-0.3,1-0.8,1.2c-0.4,0.2-1,0.4-1.4,0c-0.5-0.4-0.5-1.1-0.6-1.7C21,67,20.9,66.7,21,66.4
			c0.1-1-0.4-1.3-1.4-1.5c-2-0.3-4.1-0.6-6,0.2c-1.9,0.7-3.5,1.8-4.8,3.5c-1.1,1.4-1.9,2.9-2.4,4.6c-0.4,1.4-0.7,2.9-0.9,4.4
			c-0.2,1.9,0,3.8,0.4,5.7c0.2,1.2,0.6,2.4,1.3,3.5c0.4,0.6,0.3,1.3,0.1,1.9c-0.3,0.8-1.4,0.9-1.9,0.1c-1.1-1.7-1.5-3.7-1.9-5.6
			c-0.6-3.1-0.4-6.3,0.3-9.4c0.5-1.9,1-3.6,2-5.3c0.1-0.2,0.1-0.4,0-0.7c-1-2.3-1.4-4.7-1.7-7.1c-0.4-2.8-0.6-5.6-0.5-8.5
			c0.1-2,0.4-3.9,0.7-5.8c0.3-2.1,0.8-4.2,1.7-6.2c0.9-2.3,1.9-4.5,3.3-6.5c1.6-2.2,3.4-4,5.6-5.5c0.6-0.4,0.7-1,0.5-1.6
			c-0.9-2.4-1.9-4.8-3.6-6.8c-0.4-0.5-0.7-1.1-1-1.7c-0.3-0.6-0.1-1.1,0.2-1.7c0.5-0.8,1.1-1.5,2.1-1.7c0.7-0.2,1.3,0,1.9,0.2
			c0.9,0.3,1.8,0.8,2.7,1.2c0,0,0.1,0,0.1,0.1c0.4,0.2,1,0.4,1.4,0.2c0.4-0.2,0.2-0.8,0.2-1.2c-0.4-2.9-1.3-5.7-3.1-8.1
			c-0.5-0.7-0.7-1.6-0.2-2.4c0.4-0.7,1.2-1.1,2-1.2C19,3.2,20,3.6,20.9,4.1C22,4.7,23.1,5.3,24.2,6c1.5,0.9,2.7,2.1,3.7,3.6
			c0.7,0.9,0.9,0.9,1.6,0c1.2-1.6,2.6-3,4.4-3.9c1.2-0.6,2.5-1.3,3.7-1.9c0.8-0.4,1.8-0.5,2.7-0.4c0.7,0.1,1.5,1.4,1.6,2.4
			c0.1,0.9-0.6,1.4-1,1.9c-1.2,1.8-2,3.7-2.3,5.8c-0.1,0.5-0.2,1.1-0.3,1.6c-0.1,0.4,0,0.8,0.1,1.1c0.1,0.4,0.3,0.4,0.6,0.2
			c1.4-0.6,2.7-1.4,4.2-1.8c1.1-0.3,2.1-0.1,2.8,0.7c1,1.2,1,2.5,0.2,3.7c-0.8,1.2-1.7,2.2-2.5,3.5c-0.8,1.3-1.3,2.7-1.7,4.1
			c-0.1,0.4,0,0.7,0.4,1c2.6,1.7,4.7,3.9,6.4,6.5c0.9,1.4,1.7,2.9,2.2,4.5c0.2,0.5,0.8,0.9,0.3,1.6c-0.4,0.6-0.9,0.8-1.5,0.8
			c-0.5,0-0.7-0.5-0.9-1c-0.7-1.4-1.4-2.7-2.2-4.1c-1.5-2.5-3.5-4.5-5.8-6.2c-1.6-1.1-3.3-2-5.1-2.7c-3.4-1.3-6.8-1.4-10.3-1.1
			c-2.4,0.3-4.7,0.9-6.7,2.1c-2.3,1.4-4.5,3.1-6.2,5.3c-1.2,1.6-2.4,3.2-3.2,5c-1.1,2.3-1.9,4.6-2.5,7.1C6.4,48.6,6.2,51.5,6.3,54.8
			z M48.3,60.3c2.6-0.3,4.9,0.6,7.3,1.5c1,0.4,1.8,1.1,2.7,1.6c1.7,1,3.1,2.4,4.3,4c1.4,1.8,2.5,3.8,3.1,6.1
			c0.4,1.6,0.5,3.1,0.5,4.7c0,0.4,0,0.7,0,1.1c0,0.3,0.1,0.5,0.4,0.3c0.4-0.3,0.9-0.3,1.3-0.5c2.7-1.4,5.2-3.1,7.4-5.2
			c1.6-1.5,3-3.2,4.4-4.9c1.2-1.4,2-3,3-4.5c1-1.6,1.7-3.5,2.3-5.3c0.5-1.4,0.9-2.8,1.2-4.3c0.1-0.7,0.6-1.1,1.1-1.4
			c0.6-0.3,1.1,0,1.5,0.6c0.5,0.9,0,1.7-0.2,2.5c-0.7,2.5-1.6,5-2.8,7.4c-1.1,2-2.2,4-3.5,5.8c-2.3,3.1-5,5.9-8.1,8.3
			c-1.6,1.3-3.4,2.4-5.2,3.3c-0.9,0.4-1.8,0.8-2.7,1.3c-0.4,0.2-0.7,0.5-0.7,0.9c-0.3,1.4-1,2.7-1.6,4c-0.1,0.2-0.4,0.5-0.2,0.7
			c0.2,0.3,0.6,0.2,0.9,0.1c0.4-0.1,0.7-0.4,1-0.5c1.5-0.3,2.8-0.9,4.2-1.6c2.6-1.3,5.1-2.7,7.3-4.5c2.6-2,5-4.3,7.2-6.8
			c1.2-1.4,2.3-2.8,3.3-4.3c0.9-1.3,1.7-2.7,2.4-4.1c0.4-0.8,0.7-1.7,1.1-2.5c0.6-1.6,1.3-3.3,1.7-4.9c0.5-2.1,0.9-4.1,1.2-6.3
			c0.2-1.8,0.4-3.6,0.3-5.4c0-2.7-0.2-5.5-0.9-8.2c-0.4-1.6-0.7-3.2-1.1-4.8c-0.4-1.2-1-2.3-1.4-3.4c-0.8-2.3-2-4.5-3.3-6.6
			c-1.2-1.9-2.6-3.7-4.1-5.4c-0.6-0.7-1-0.7-1.7-0.1c-0.6,0.6-1.1,1.2-1.7,1.7c-0.5,0.5-0.5,0.9,0,1.4c2.2,2.4,4,5.1,5.5,8
			c1.2,2.2,2,4.6,2.7,6.9c0.6,1.9,0.9,3.8,1.1,5.7c0.2,1.8,0.5,3.5,0.4,5.3c0,0.6-0.4,0.9-0.9,1.1c-0.5,0.2-0.8,0.1-1.2-0.3
			c-0.6-0.6-0.5-1.3-0.5-2c0.1-1.7-0.3-3.3-0.4-4.9c-0.1-1-0.2-2-0.5-2.8c-0.5-1.4-0.8-2.9-1.4-4.3c-0.6-1.6-1.4-3.2-2.2-4.7
			c-1.1-2.1-2.5-4-4-5.8c-0.9-1-1.1-1.1-2-0.1c-3.7,3.7-7.3,7.3-11,11c-2.3,2.3-4.7,4.7-7,7c-2.7,2.7-5.4,5.4-8.1,8
			c-3,3-6,5.9-8.9,8.9c-1.1,1.1-2.2,2.2-3.3,3.3c-0.2,0.2-0.4,0.3-0.2,0.6c0.2,0.3,0.4,0.1,0.6,0c0.8-0.4,1.6-0.8,2.4-1.2
			c1.2-0.5,2.4-1,3.6-1.2C45.8,60.3,47,60.2,48.3,60.3z M48.4,93.8c2.2,0.1,4.3-0.5,6.5-1.4c1.9-0.7,3.3-2,4.7-3.4
			c1.3-1.3,2.2-2.9,3-4.5c0.6-1.2,0.8-2.6,1.1-4c0.4-2.5,0.1-4.8-0.6-7.1c-0.9-3-2.6-5.5-5.1-7.4c-1.9-1.4-3.8-2.6-6.2-3.1
			c-3.8-0.7-7.4-0.3-10.8,1.7c-0.7,0.4-1.6,0.8-2.2,1.5c-0.4,0.4-0.6,0.8-0.2,1.4c1.2,1.8,2.1,3.7,2.7,5.8c0.7,2.9,0.7,5.8,0.4,8.7
			c-0.1,1.3-0.3,2.6-0.7,3.9c-0.4,1.3-1.1,2.6-1.8,3.7c-0.5,0.8-0.4,1,0.4,1.5c0.4,0.2,0.7,0.5,1.1,0.7C43,93.2,45.5,93.8,48.4,93.8
			z M38.2,6.5c-0.3,0.4-0.8,0.1-1.1,0.3c-1.2,0.8-2.5,1.4-3.6,2.3c-1.6,1.3-2.6,2.8-3.1,4.7c-0.3,0.9-0.2,1.8-0.4,2.7
			c-0.2,0.8-1.1,1.4-1.5,1.1c-0.5-0.4-0.9-0.8-1-1.5c0-1.6-0.5-3.1-1.3-4.5c-1.4-2.4-3.8-3.6-6-4.9c-0.3-0.2-0.7-0.3-0.9,0
			c-0.2,0.3,0.1,0.6,0.3,0.8c0,0,0,0,0.1,0.1c1,1.6,1.7,3.2,1.8,5.1c0.1,1.5,0.2,2.9,0.3,4.4c0.1,0.8,0,1.6-0.3,2.3
			c-0.2,0.4-0.7,0.7-1.2,0.5c-0.9-0.3-1.7-0.7-2.6-1.1c-1.2-0.5-2.4-1.1-3.6-1.7c-0.2-0.1-0.4-0.1-0.6,0.1c-0.2,0.2,0,0.4,0.1,0.6
			c0.4,0.5,0.8,1,1.2,1.5c1.3,1.8,2.4,3.6,2.7,5.8c0.1,0.6,0.4,0.7,0.9,0.5c1.5-0.7,3-1.2,4.6-1.7c1.2-0.3,2.4-0.6,3.6-0.7
			c2.8-0.2,5.7-0.1,8.5,0.8c1.3,0.4,2.5,0.9,3.7,1.4c0.9,0.4,1,0.4,1.3-0.5c0.5-1.3,1.1-2.6,1.8-3.8c0.7-1.1,1.4-2.2,2.3-3.2
			c0.1-0.2,0.5-0.5,0.2-0.8c-0.2-0.2-0.5-0.2-0.8-0.1c-1.7,0.8-3.3,1.6-5,2.3c-0.5,0.2-1.1,0.7-1.8,0.3c-0.8-0.4-1.1-1.1-1.1-1.9
			c0.1-3.3,0.6-6.5,1.9-9.6C37.7,7.8,38.1,7.3,38.2,6.5z"/>
		<path class="st1" d="M45.5,38.5c0,0.5-0.2,0.9-0.5,1.2c-0.8,0.8-1.7,1.7-2.5,2.5c-0.9,0.8-1.5,0.9-2.5,0c-0.9-0.8-1.7-1.6-2.5-2.5
			c-0.4-0.5-0.8-1.2-0.4-2c0.4-0.7,1.3-0.9,1.8-0.3c0.5,0.7,1.2,1.1,1.8,1.7c0.3,0.3,0.6,0.3,1-0.1c0.6-0.6,1.1-1.3,1.9-1.7
			c0.4-0.2,0.7-0.4,1.1-0.1C45.1,37.6,45.6,37.9,45.5,38.5z"/>
		<path class="st1" d="M31.9,45.9c0.6-0.2,0.8,0.3,1.2,0.6c0.5,0.4,0.8,0.8,1.3,1.2c0.4,0.4,0.8,0.5,1.3-0.1c0.5-0.6,1-1,1.6-1.5
			c0.4-0.4,0.9-0.4,1.3-0.2c0.6,0.3,0.8,1.2,0.6,1.7c-0.2,0.6-0.6,0.9-1,1.3c-0.7,0.6-1.5,1.3-2.2,2c-0.8,0.8-1.2,0.8-1.9,0.1
			c-0.9-0.9-1.8-1.7-2.7-2.5c-0.8-0.8-0.8-1.3-0.3-2.2C31.2,45.9,31.5,45.8,31.9,45.9z"/>
		<path class="st1" d="M24.5,38.4c-0.1-0.6,0.1-0.9,0.6-1.2c0.5-0.2,1-0.2,1.4,0.2c0.6,0.5,1.1,1.1,1.7,1.6c0.4,0.4,0.7,0.4,1.1,0
			c0.6-0.6,1.2-1.1,1.8-1.7c0.5-0.4,0.9-0.5,1.4,0c0.5,0.5,0.6,1.4,0.2,1.8c-1,1-2,2-3,3c-1,1-1.6,0.7-2.8-0.5
			c-0.7-0.8-1.3-1.7-2.1-2.3C24.4,39.1,24.4,38.8,24.5,38.4z"/>
		<path class="st1" d="M26.7,47.3c-0.2,0.4-0.2,0.9-0.6,1.2c-0.8,0.7-1.6,1.4-2.4,2.1c-1,0.9-1.7,1-2.7,0c-0.9-0.9-1.9-1.7-2.6-2.8
			c-0.4-0.7-0.4-0.8,0.5-1.6c0.5-0.4,1-0.4,1.5,0c0.6,0.5,1.1,1.1,1.6,1.8c0.3,0.4,0.5,0.4,0.9,0.1c0.6-0.6,1.2-1.1,1.7-1.7
			c0.4-0.5,0.9-0.6,1.4-0.4C26.5,46.2,26.6,46.8,26.7,47.3z"/>
		<path class="st1" d="M75.5,58.5c-0.4,0.1-0.8-0.2-1.2-0.4c-0.5-0.3-1.1-0.5-1.6-0.8c-0.8-0.5-1.1-1.2-0.7-1.9
			c0.4-0.7,0.7-0.9,1.8-0.4c0.9,0.4,1.7,0.7,2.6,1.1c0.5,0.2,0.9,0.7,0.8,1.3C77.1,58,76.4,58.5,75.5,58.5z"/>
		<path class="st1" d="M71.1,65.8c0.2,0.8-0.5,1-0.9,1.2c-0.6,0.3-1.1-0.2-1.5-0.6c-0.5-0.4-0.9-0.9-1.3-1.4
			c-0.1-0.1-0.2-0.2-0.3-0.4c-0.4-0.7-0.5-1.5-0.1-1.9c0.4-0.4,1.2-0.3,1.9,0.2c0.6,0.5,1.2,1.1,1.8,1.7
			C71,64.9,71.3,65.3,71.1,65.8z"/>
		<path class="st1" d="M76.5,45.9c0.4,0,0.8,0,1.2,0c0.7,0,1.5,0.6,1.5,1.1c0,0.6-0.9,1.4-1.6,1.5c-1.1,0.1-2.1-0.2-3.1-0.4
			c-0.6-0.1-1-0.5-0.8-1.2c0.2-0.5,0.4-1,1.1-1C75.5,45.9,76,45.9,76.5,45.9C76.5,45.9,76.5,45.9,76.5,45.9z"/>
		<path class="st1" d="M73.5,39.1c-0.4-0.1-0.9-0.4-1-1.1c-0.1-0.6,0-1.1,0.7-1.3c1-0.3,2-0.7,3.1-0.9c0.8-0.1,1.1,0.3,1.4,0.8
			c0.3,0.6-0.3,0.9-0.6,1.2c-0.7,0.5-1.5,0.7-2.3,0.9C74.4,38.9,74.1,39.1,73.5,39.1z"/>
		<path class="st1" d="M51.4,67.5c0.8,0,1.2,0.4,1.2,1.2c0,0.6-0.4,0.9-1.3,0.9c-0.7,0-1.2-0.4-1.2-1.1
			C50.1,67.9,50.6,67.5,51.4,67.5z"/>
	</g>
</g>
</svg>
