<?xml version="1.0" encoding="UTF-8"?>
<svg id="Layer_1" data-name="Layer 1" xmlns="http://www.w3.org/2000/svg" viewBox="0 0 100 100">
  <defs>
    <style>
      .cls-1 {
        fill: #fff;
      }
    </style>
  </defs>
  <path class="cls-1" d="m19.17,65.04c0-4.33,0-8.65,0-12.98,0-1.7.46-2.2,2.12-2.67,2.86-.8,5.7-1.68,8.62-2.28,1.73-.36,3.48-.35,5.22-.39,3.57-.08,6.93.82,10.26,2.06,3.82,1.42,7.74,2.57,11.6,3.89,1.99.68,4.1,1.12,5.84,2.41,2.95,2.19,4.36,5.78,2.77,9.34-.2.45-.33.9-.03,1.33.36.51.83.29,1.28.14,5.18-1.74,10.36-3.48,15.53-5.22,2.09-.7,4.15-1.54,6.35-1.84,3.04-.42,6.55.83,8.4,4.22,2.56,4.68,1.43,8.81-3.36,12.17-7.21,5.07-15.11,8.66-23.67,10.76-2.75.68-5.54,1.14-8.35,1.57-2.01.31-4.03.16-6.01.44-2.72.38-5.4,0-8.08-.1-3.59-.15-7.14-.91-10.67-1.64-5.74-1.18-11.06-3.48-16.37-5.83-1-.44-1.46-1.14-1.45-2.29.05-4.36.02-8.72.02-13.08h-.02Zm40.99,5.89c-1.66.01-2.97-.05-4.25-.31-5.29-1.05-10.58-2.09-15.85-3.21-1.33-.28-2.73-.25-4-.87-.92-.45-1.19-1.14-1.02-2.06.15-.79.7-1.1,1.47-1.3.63-.16,1.18-.03,1.77.03,2.99.31,5.96.72,8.95,1.06,3.61.41,7.22.87,10.84,1.26,2.92.31,4.92-2.39,4.35-5.1-.4-1.91-1.83-2.74-3.48-3.29-3.78-1.26-7.57-2.5-11.37-3.69-3.37-1.06-6.54-2.77-10.19-2.97-2.23-.12-4.45-.15-6.64.2-2.28.36-4.48,1.1-6.7,1.72-.93.26-1.25.76-1.25,1.65,0,7.27,0,14.54,0,21.81,0,1.03.38,1.73,1.36,2.13,1.68.68,3.35,1.4,5.02,2.09,3.85,1.57,7.86,2.5,11.94,3.25,1.91.35,3.83.53,5.75.75,2.1.24,4.23.51,6.32.39,2.44-.13,4.89-.29,7.33-.52,2.76-.26,5.46-.77,8.14-1.39,6.4-1.47,12.43-3.9,18.11-7.19,2.16-1.25,4.29-2.54,6.2-4.16,2.86-2.44,1.92-7.13-1.15-8.33-1.52-.59-3.11-.45-4.64.06-6.06,2-12.11,4.03-18.17,6.05-2.99,1-5.95,2.17-8.86,1.94Z"/>
  <path class="cls-1" d="m83.68,23.11c.05,2.51-.87,4.65-2.49,6.52-4.73,5.43-9.86,10.48-14.94,15.57-.57.57-1.11,1.18-1.72,1.71-.94.83-1.54.86-2.44-.03-2.38-2.35-4.72-4.74-7.04-7.15-2.74-2.85-5.42-5.75-8.15-8.61-2.13-2.22-3.76-4.73-3.91-7.87-.12-2.48.79-4.75,2.34-6.71,2.01-2.52,4.58-4.21,7.8-4.6,3.25-.4,6.28.38,8.86,2.52,1.07.89,1.67.94,2.75.08,2.29-1.83,4.9-2.89,7.84-2.63,5.2.46,9.53,3.58,10.92,9.2.17.67.18,1.32.2,1.99Zm-3.63-.09c-.07-.62.07-1.24-.14-1.89-.55-1.69-1.68-2.94-2.99-3.99-1.82-1.46-3.94-1.86-6.26-1.54-2.44.34-4.15,1.74-5.71,3.49-1.26,1.41-2.22,1.32-3.35-.19-1.21-1.62-2.79-2.72-4.76-3.19-3.57-.85-6.5.26-8.8,3.07-2.05,2.51-1.87,6.12-.14,8.12,4.53,5.24,9.48,10.09,14.26,15.09.94.98,1.3.95,2.25.03,4.55-4.43,8.98-8.98,13.27-13.66,1.37-1.5,2.71-3.06,2.38-5.35Z"/>
  <path class="cls-1" d="m13.69,81.72c.01.4-.32.74-.72.74-2.92,0-5.64,0-8.5,0-1.69,0-1.7,0-1.7-1.71.02-8.72.04-17.44.05-26.15,0-2.13-.02-3.73-.07-5.86-.02-.81.28-1.26,1.58-1.26h7.53c1.61,0,1.83.42,1.83,1.3-.02,10.85-.01,21.17-.01,32.01,0,.31.01.6.02.92Zm-3.62-15.48c0-5.27.01-9.72,0-14.18,0-.99-.55-1.26-2.08-1.26-.88,0-1.42.25-1.4,1.26.15,8.14-.27,16.27-.2,24.41.02,2.24.23,2.4,2.42,2.39.79,0,1.06-.32,1.08-1.08.09-4.12.3-8.24.19-11.55Z"/>
</svg>