<?xml version="1.0" encoding="UTF-8"?>
<svg id="Layer_1" data-name="Layer 1" xmlns="http://www.w3.org/2000/svg" viewBox="0 0 100 100">
  <defs>
    <style>
      .cls-1 {
        fill: #fff;
      }
    </style>
  </defs>
  <path class="cls-1" d="m58.59,29.84c1.51,1.31,2.08,2.91,2.08,4.76,0,4.67,0,9.33,0,14,0,.65-.09,1.25-.53,1.82-.51.66-1.15.64-1.8.54-.63-.1-1.06-.52-1.19-1.18-.1-.49-.14-.99-.14-1.49,0-4.57-.07-9.13.05-13.69.04-1.51-.78-2.21-1.82-2.79-1.25-.69-2.61-1.19-4-1.57-2.06-.57-4.11-1.17-6.25-1.37-.61-.06-1.23-.22-1.82-.41-.89-.28-1.37-.97-1.38-1.9,0-1.48.03-2.96-.02-4.44-.02-.61.23-.97.67-1.31.91-.7,1.75-1.47,2.44-2.41.5-.68.66-1.41.66-2.17-.01-1.97.15-3.95-.12-5.93-.14-.99-.66-1.73-1.33-2.39-.38-.37-.79-.72-1.21-1.05-.83-.66-1.76-.79-2.72-.84-1.07-.06-2.16-.07-3.22.15-.9.18-1.65.7-2.29,1.31-1.41,1.33-1.88,3.02-1.75,4.94.08,1.27,0,2.56,0,3.84,0,1.12.53,2.02,1.23,2.84.59.69,1.25,1.28,2,1.8.42.29.72.76.66,1.35-.15,1.45-.24,2.89-.21,4.35.02,1.12-.52,1.71-1.61,1.98-1.81.45-3.69.54-5.5,1.03-2.17.58-4.3,1.23-6.3,2.25-.96.49-1.62,1.15-1.6,2.48.09,4.81.04,9.63.03,14.45,0,1.26-.43,1.96-1.33,2.27-1,.33-1.92-.12-2.21-1.11-.15-.51-.17-1.03-.17-1.56,0-4.51.08-9.03-.02-13.54-.07-2.77,1.14-4.59,3.45-5.95,2-1.18,4.17-1.88,6.36-2.45,1.53-.4,3.07-.84,4.66-1.01.42-.04.62-.23.58-.69-.04-.4-.03-.8,0-1.2.03-.37-.11-.64-.39-.84-.91-.64-1.57-1.51-2.15-2.42-.67-1.05-1.2-2.19-1.28-3.46-.13-2.25-.3-4.51.19-6.74.49-2.21,1.53-4.13,3.37-5.5,1.48-1.1,3.07-1.91,5-2.08,1.44-.12,2.86-.09,4.26.07,1.24.15,2.35.79,3.4,1.47,1.45.94,2.49,2.24,3.24,3.81.58,1.22.84,2.5.89,3.82.06,1.6.07,3.21,0,4.81-.06,1.21-.42,2.36-1.05,3.45-.68,1.18-1.55,2.17-2.57,3.07-.24.21-.45,1.89-.27,2.15.16.24.45.21.68.24,1.71.23,3.34.8,5.03,1.1.34.06.69.16.99.32,1.33.7,2.59.39,3.95-.05,1.98-.64,3.99-1.22,6.07-1.47.17-.02.4.04.42-.2.03-.5-.02-1.01.04-1.5.06-.58-.36-.75-.69-1.09-1.16-1.18-2.25-2.45-2.79-4.06-.2-.61-.37-1.26-.38-1.89-.03-2.24-.23-4.49.17-6.73.29-1.63,1.05-3.02,2.08-4.2,1.47-1.69,3.3-2.83,5.64-3.08,1.71-.18,3.44-.28,5.07.09,2.18.49,4,1.73,5.31,3.62.89,1.29,1.42,2.72,1.76,4.24.1.45.07.9.06,1.35-.07,1.9.27,3.83-.17,5.69-.38,1.6-1.13,3.04-2.37,4.21-.35.33-.66.72-1.05,1.03-.31.25-.46,1.92-.29,2.3.07.16.19.21.35.22,1.5.11,2.91.67,4.37.95,2.04.39,3.97,1.12,5.83,1.99,1.7.8,3.26,1.88,4.16,3.61.31.59.45,1.3.45,2.01,0,4.99,0,9.98,0,14.98,0,1.57-.89,2.35-2.41,2.03-.76-.16-1.08-.86-1.21-1.56-.22-1.19-.05-2.4-.06-3.6-.03-3.66,0-7.32.01-10.99,0-.05,0-.1,0-.15,0-1.7-.38-2.08-1.91-2.86-1.11-.57-2.25-1.05-3.42-1.43-2.15-.7-4.36-1.19-6.6-1.52-.71-.11-1.41-.24-2.1-.48-.87-.3-1.07-.98-1.08-1.68,0-1.46-.2-2.9-.22-4.35,0-.69.24-1.15.8-1.57,1.23-.91,2.39-1.91,2.94-3.42.02-.05.05-.09.06-.14.38-2.94.77-5.92-.76-8.64-.93-1.66-2.56-2.49-4.5-2.59-1.25-.06-2.52-.06-3.71.33-1.03.34-1.83,1.07-2.52,1.93-.77.95-1.02,2.05-1.04,3.21-.04,1.99-.34,3.99.18,5.97.24.91.88,1.53,1.46,2.21.14.17.32.32.51.44,1.4.9,1.85,2.17,1.62,3.79-.13.91-.11,1.85-.14,2.78-.03,1.24-.6,1.92-1.8,2.22-1.26.32-2.59.2-3.84.59-.59.18-1.2.33-1.93.52Z"/>
  <path class="cls-1" d="m34.85,61.28c0,7.71,0,14.84,0,21.96,0,.4-.07.8-.14,1.19-.13.74-.6,1.12-1.31,1.2-.69.08-1.25-.07-1.77-.66-1.4-1.59-2.84-3.16-4.2-4.78-1.94-2.31-3.88-4.61-5.85-6.89-.88-1.02-1.63-2.17-2.59-3.1-.74-.72-1.76-1.05-2.89-.84-2.02.38-3.38,3.42-2.2,5.07.67.95,1.43,1.83,2.15,2.75,1.01,1.3,2.01,2.6,3.02,3.89,1.15,1.48,2.3,2.94,3.44,4.43.97,1.27,1.92,2.55,2.89,3.82,1.14,1.48,2.34,2.92,3.42,4.45.44.63,1.21,1.09,1.12,2.08-.09,1.03-.26,1.4-1.19,1.74-.63.23-1.44,0-1.94-.64-.52-.66-1-1.36-1.53-1.99-.75-.89-1.42-1.84-2.15-2.75-1.05-1.33-2.09-2.68-3.14-4.02-1.44-1.83-2.9-3.64-4.32-5.48-1.03-1.32-1.98-2.7-3.03-4-.68-.85-1.41-1.65-1.97-2.59-.92-1.56-1.11-3.21-.77-4.96.62-3.22,3.86-5.59,6.75-5.5,2,.06,3.72.91,5.06,2.4,1.31,1.47,2.61,2.96,3.9,4.45,1.63,1.88,3.23,3.78,4.9,5.62.25.28.35.95.75.79.38-.15.08-.75.08-1.14.02-8.1,0-16.2,0-24.31,0-4.69-.04-9.38.07-14.07.07-3.31,2.55-5.68,5.68-6.27,1.82-.34,3.42.12,4.93,1.16,2.14,1.48,3.06,3.58,3.07,6.07.04,7,.03,14,0,21,0,.66.22.9.82.94,1.75.11,3.47.4,5.23.52,1.94.12,3.85.64,5.78.77,2.6.18,5.12.86,7.71,1.01.76.05,1.52.27,2.28.44,1.98.43,3.89,1.12,5.44,2.42,1.64,1.36,2.88,3.04,3.15,5.27.07.57.15,1.14.15,1.72,0,6.47,0,12.94,0,19.42,0,.73-.07,1.42-.87,1.8-1.29.62-2.45.08-2.74-1.33-.07-.34-.11-.7-.11-1.04,0-5.8,0-11.59.01-17.39,0-1.07.13-2.13-.16-3.2-.22-.8-.73-1.32-1.25-1.86-1.52-1.6-3.58-2.15-5.61-2.44-2.69-.39-5.35-.95-8.07-1.14-1.81-.12-3.6-.58-5.41-.74-2.46-.23-4.91-.61-7.36-.89-.47-.05-.95-.06-1.41-.16-.78-.16-1.14-.76-1.32-1.46-.17-.63-.16-1.29-.16-1.94,0-6.47,0-12.95,0-19.42,0-.98.13-1.95,0-2.93-.12-1-.6-1.8-1.35-2.38-1.69-1.29-4.59-.11-4.99,1.99-.06.32-.11.65-.1.97.19,7.2,0,14.4.09,21.01Z"/>
</svg>