<?xml version="1.0" encoding="UTF-8"?>
<svg id="Layer_1" data-name="Layer 1" xmlns="http://www.w3.org/2000/svg" viewBox="0 0 100 100">
  <defs>
    <style>
      .cls-1 {
        fill: #fff;
      }
    </style>
  </defs>
  <path class="cls-1" d="m59.71,88.43c-.01-3.03-.02-6.05.38-9.06.43-3.21,1.73-6.07,3.54-8.71,6.08-8.84,12.18-17.67,18.26-26.5.29-.41.58-.83.82-1.27.65-1.19.32-2.51-.76-3.22-.99-.64-2.42-.4-3.17.66-2.26,3.2-4.61,6.34-6.79,9.61-2.9,4.34-5.84,8.65-8.97,12.83-1.94,2.6-4.82,3.89-8.05,4.02-3.42.14-6.85.15-10.27,0-2.58-.11-4.85-1.26-6.74-3.04-2.09-1.97-3.55-4.43-5.2-6.75-3.67-5.16-7.29-10.36-10.93-15.54-.74-1.05-1.66-1.68-3.01-1.43-1.7.32-2.35,2.09-1.29,3.73,1.39,2.15,2.82,4.26,4.28,6.36,4.95,7.12,9.97,14.2,14.85,21.37,2.3,3.38,3.55,7.19,3.59,11.34.03,3.78.06,7.55.02,11.33-.02,2.26-1.14,2.48-2.81,1.96-10.43-3.25-19.2-9.01-25.65-17.91-4.78-6.6-7.68-13.97-8.37-22.19-1.15-13.66,2.92-25.69,11.55-36.09,6.62-7.98,15.2-13.11,25.44-15.23,3.95-.82,7.97-1.33,11.99-.95,15.69,1.48,28.32,8.28,36.93,21.78,1.92,3.01,3.45,6.22,4.62,9.6.36,1.04.13,1.61-.81,1.99-.97.4-1.4-.19-1.72-.95-.78-1.89-1.64-3.75-2.55-5.59-.33-.67-.77-1.09-1.52-.87-3.62,1.05-7.32,1.69-11,2.42-.74.15-.91.4-.73,1.16.34,1.42.63,2.86.74,4.34.07.96.56.56,1.01.28,2.92-1.83,5.52-.77,7.01.7,1.5,1.49,1.91,3.87,1,5.77-.77,1.6-1.76,3.05-2.88,4.42-.21.26-.61.52-.42.91.16.33.57.24.89.24,3.31-.06,6.63.12,9.94-.15.74-.06,1.06-.32.97-1.06-.2-1.78-.39-3.56-.59-5.35-.09-.75-.31-1.54.61-1.97.81-.38,1.72.06,1.91.97.84,4.07,1.09,8.18.73,12.33-.33,3.78-1.16,7.42-2.42,10.99-1.84,5.22-4.55,9.92-8.11,14.15-.69.83-1.43,1.62-2.15,2.42-.38.42-.85.65-1.44.57-.49-.07-.89-.23-1.13-.7-.26-.51-.06-.9.26-1.27.86-1.02,1.69-2.06,2.59-3.04.81-.88,1.39-1.92,2.1-2.87.43-.57.33-.87-.39-1.02-1.65-.33-3.28-.71-4.93-1.05-1.79-.37-3.58-.68-5.36-1.08-.7-.16-1.02-.04-1.26.68-1.26,3.75-2.63,7.46-4.74,10.84-1.82,2.9-3.8,5.69-6.41,7.96-.18.16-.49.3-.36.59.17.36.49.17.76.09,3.12-.95,5.99-2.45,8.81-4.02,1.32-.73,2.56-1.61,3.83-2.43.27-.17.54-.37.82-.52.76-.38,1.55-.35,2.06.31.56.73,0,1.34-.55,1.85-1.74,1.6-3.81,2.72-5.82,3.9-3.24,1.9-6.7,3.27-10.35,4.18-.17.04-.35.08-.53.1-1.76.16-1.82.1-1.9-1.65-.08-1.76-.17-3.53-.25-5.29Zm-10.99-69.25h0c0-3.78,0-7.56,0-11.34,0-.52.14-1.13-.82-.94-3.02.61-5.76,1.78-8.08,3.84-5.6,4.97-9.03,11.28-11.28,18.31-.23.73.08.97.74,1.07,1.95.31,3.9.51,5.86.7,4.12.4,8.25.63,12.39.62.96,0,1.22-.31,1.21-1.24-.05-3.67-.02-7.34-.02-11.02Zm7.05,12.23c2.99.16,6.23-.33,9.48-.71,1.78-.21,3.58-.08,5.36-.49,1.1-.25,1.13-.63.87-1.52-1.63-5.63-4.52-10.59-8.21-15.05-2.75-3.32-6.11-5.87-10.56-6.6-1.13-.19-1.22-.17-1.22,1.03,0,3.17.05,6.34.02,9.51-.05,4.36.16,8.71-.14,13.06-.04.58.22.77.76.76,1.12-.01,2.23,0,3.65,0Zm38.14,22.1c.21-1.01-.18-1.39-1.2-1.38-3.78.03-7.57.01-11.35.01-.58,0-1.28-.04-1.59.47-.95,1.57-2.25,2.95-2.37,4.98-.17,2.97-.61,5.91-1.29,8.81-.65,2.74-.67,2.75,2.06,3.24,3.17.57,6.3,1.28,9.41,2.11.52.14.86.12,1.15-.42,2.96-5.59,4.79-11.51,5.19-17.82Zm-87.7-.54c.13,1.62.27,3.22.51,4.82.72,4.67,2.38,8.99,4.62,13.12.32.59.68.72,1.39.59,3.59-.63,7.1-1.69,10.75-2.07,1.13-.12,1.25-.42.95-1.5-.84-2.97-1.47-6.02-1.59-9.08-.09-2.18-.67-3.96-2.01-5.61-.63-.77-1.31-1.15-2.3-1.13-2.23.03-4.47,0-6.7,0-1.55,0-3.1.01-4.65.02-.56,0-1.01.15-.97.84Zm50.45-19c-1.04,0-1.8,0-2.55,0-2.54,0-2.45.01-2.68,2.48-.11,1.15.36,1.53,1.3,1.82,4.94,1.52,8.05,5.54,8.24,10.67.03.81.34,1.08,1.11,1.06,2.16-.06,4.32-.11,6.47-.14.6,0,.99-.27,1.3-.77,1.26-2.01,2.51-4.03,3.86-5.98.62-.9.62-1.79.45-2.76-.05-.28-.11-.56-.15-.84-.26-1.95-.57-3.89-1.06-5.8-.19-.73-.53-1.18-1.35-1.02-1.59.32-3.22.28-4.82.47-3.46.43-6.91.92-10.12.81Zm-20.99,15.86s0,.09,0,.14c.5,0,1.01.02,1.51,0,.64-.03,1.19-.11,1.17-1.02-.1-3.78,3.02-9.19,8.36-10.81,2.01-.61,2.01-.6,2.01-2.69,0-1.46,0-1.51-1.44-1.47-6.19.17-12.33-.46-18.44-1.34-1.07-.16-1.39.14-1.63,1.06-.61,2.33-.89,4.71-1.32,7.06-.15.85-.05,1.55.41,2.24,1.41,2.09,2.82,4.17,4.21,6.27.24.36.51.57.96.57,1.4-.01,2.8,0,4.2,0Zm14.11,7.54c4.5.3,8.38-3.43,8.46-8.53.05-3.5-3.38-8.21-8.29-8.16-5.08.06-8.88,3.67-8.82,8.61.05,4.32,4.03,8.33,8.65,8.08Zm-38.04-7.47s0,0,0-.01c1.69,0,3.38.06,5.07-.02,1.23-.06,1.21-.15.58-1.24-.81-1.4-1.96-2.58-2.61-4.08-1.61-3.76,1.01-7.68,5.01-7.5,1.06.05,2.01.47,2.91,1.03.24.15.65.65.8-.18.29-1.58.63-3.16,1.01-4.73.15-.59.03-.77-.57-.97-1.99-.64-4.09-.68-6.1-1.24-1.72-.48-3.49-.76-5.24-1.15-.63-.14-1.05.08-1.33.63-.44.87-.87,1.73-1.29,2.61-2.4,4.99-3.31,10.34-3.87,15.77-.08.75.25,1.08.97,1.08,1.55,0,3.09,0,4.64,0ZM37.4,9.02c-.18-.22-.37-.15-.53-.13-.21.02-.44.03-.63.1-3.88,1.46-7.59,3.28-10.98,5.69-4.41,3.13-8.25,6.83-11.29,11.33-.46.69-.52.85.34,1.1,3.23.95,6.51,1.67,9.83,2.22,1.45.24,1.43.28,1.84-1.11,1.95-6.71,5.3-12.64,10.04-17.78.45-.49,1.1-.8,1.38-1.42Zm-.02,82.93c-.88-.95-1.71-1.85-2.53-2.74-4.35-4.69-6.94-10.34-8.86-16.34-.32-1-.79-1.19-1.72-1.01-3.02.56-6.02,1.22-9,1.95-1.87.45-1.89.45-.75,2.02,5.32,7.28,12.2,12.52,20.64,15.69.71.27,1.43.62,2.23.44ZM62.77,9.24c.09.14.13.28.23.35,1.77,1.3,3.01,3.09,4.33,4.78,3.25,4.2,5.24,9.05,6.94,14.03.2.6.32,1.2,1.19,1.04,3.55-.68,7.13-1.2,10.57-2.39.54-.19.62-.43.31-.85-.45-.61-.92-1.2-1.38-1.8-5.46-7.03-12.4-12.01-20.79-14.98-.42-.15-.85-.4-1.39-.18Zm-11.29,53.02c0,.43.04.87,0,1.3-.1.93.33,1.24,1.2,1.14.64-.08,1.29-.18,1.93-.18,2.67-.03,4.79-1.18,6.39-3.25,2.04-2.65,3.7-5.58,5.77-8.21.47-.59.21-.91-.53-.91-1.59,0-3.17.02-4.76-.03-.74-.02-1.09.31-1.34.96-1.29,3.31-3.64,5.55-6.97,6.77q-1.67.61-1.7,2.41Zm-15.27-10.1c-.75.04-1.54-.13-2.33.08-.67.17-.81.36-.36.98,1.75,2.41,3.54,4.81,5.13,7.32,2.19,3.47,5.48,4.24,9.22,4.11.63-.02.87-.36.85-.98-.03-.83-.06-1.66,0-2.48.05-.71-.28-.93-.9-1.04-3.69-.64-6.43-2.69-8.07-5.96-.82-1.63-1.67-2.51-3.54-2.02Zm26.34,32.51c0,.47-.03.94,0,1.4.04.52-.28,1.32.18,1.5.66.26.81-.64,1.16-1.04,3.65-4.19,5.84-9.17,7.69-14.33.19-.52.16-.95-.61-1.07-1.03-.15-2.06-.27-3.08-.45-.97-.17-1.43.26-1.92.99-2.61,3.95-3.62,8.31-3.44,12.99Zm-24.92-.97s-.03,0-.05,0c-.02-.32-.07-.65-.07-.97.02-3.95-1-7.57-3.38-10.78-.88-1.19-1.26-1.44-2.71-1.17-.7.13-1.41.29-2.12.36-.81.08-1.06.37-.78,1.2,1.33,3.93,3.19,7.6,5.33,11.14.8,1.33,1.84,2.47,2.82,3.67.17.2.38.52.7.36.23-.12.24-.43.24-.68,0-1.04,0-2.08,0-3.13Zm36.57-22.45c-.1-.05-.2-.1-.29-.15-1.64,2.2-3.27,4.4-4.91,6.6-.15.2-.2.45.06.53,1.1.37,2.26.5,3.39.28.81-.16.34-1.06.64-1.56.12-.2.15-.48.18-.72.27-1.67,1.06-3.25.93-4.99Zm-48.15.04c.18,2.19.52,4.2,1.04,6.16.11.4.11.87.59,1.08.4.17,3.44-.12,3.45-.36.05-.87-.71-1.34-1.11-1.99-.39-.64-.89-1.21-1.35-1.81-.8-1.04-1.45-2.21-2.62-3.09Z"/>
</svg>