<?xml version="1.0" encoding="UTF-8"?>
<svg id="Layer_1" data-name="Layer 1" xmlns="http://www.w3.org/2000/svg" viewBox="0 0 100 100">
  <defs>
    <style>
      .cls-1 {
        fill: #fff;
      }
    </style>
  </defs>
  <path class="cls-1" d="m48.52,20.18c-.39,5.36-.53,10.65-1.17,15.9-.23,1.85-.2,3.74-.3,5.61-.04.65-.15,1.29-.17,1.94-.04,1.23-.69,1.58-1.84,1.46-1.11-.12-1.44-.73-1.39-1.74.18-3.49.54-6.97.82-10.45.36-4.5.7-9.01.65-13.54,0-.66-.33-.9-.88-.9-1.1.01-2.01.46-2.48,1.48-1.71,3.74-3.03,7.65-3.66,11.7-.95,6.08-2.59,12.04-3.27,18.16-.51,4.59-1.25,9.14-1.97,13.7-.56,3.55-1.19,7.1-1.66,10.67-.16,1.25-.3,2.48-.58,3.71-.48,2.13-1.64,3.88-2.97,5.52-.46.57-1.26.84-1.87,1.31-2.37,1.82-4.71,3.68-7.1,5.48-2.52,1.9-5.08,3.74-7.61,5.63-1.03.77-1.9,1.73-3.1,2.3-.97.46-2.09.39-2.52-.38-.49-.9-.31-1.67.56-2.33,2.14-1.63,4.31-3.23,6.41-4.9,2.75-2.19,5.68-4.14,8.38-6.41,1.35-1.13,2.83-2.14,4.21-3.26,1.76-1.43,2.44-3.41,2.65-5.43.44-4.28,1.39-8.46,1.94-12.71.5-3.89,1.25-7.74,1.62-11.66.36-3.85,1.18-7.67,1.94-11.48.9-4.55,1.56-9.17,2.91-13.62.89-2.95,1.49-6.04,3.44-8.61,2-2.63,4.72-3.34,7.09-1.72,1.64,1.12,1.89,2.84,1.91,4.56Z"/>
  <path class="cls-1" d="m54.99,21.77c.22,3.99.53,7.96.69,11.95.12,2.92.29,5.85.59,8.76.06.56.07,1.11-.11,1.69-.35,1.08-1.18.95-1.99.91-.83-.04-.95-.67-1-1.29-.17-2.31-.21-4.64-.5-6.94-.62-4.98-.41-10-.76-14.99-.11-1.56-.05-3.06.26-4.57.11-.52.34-.93.68-1.26,1.68-1.69,4.58-1.58,6.4-.03,1.95,1.67,2.96,3.81,3.63,6.17,1.17,4.14,2.45,8.26,3.1,12.52.91,6.02,2.39,11.94,3.07,17.99.83,7.41,2.23,14.74,3.21,22.13.16,1.19.53,2.37.91,3.52.26.8.67,1.51,1.36,2.11,3.72,3.26,7.82,6.04,11.73,9.05,2.26,1.74,4.56,3.42,6.87,5.1.55.4.93.91,1.25,1.47.39.7.36,1.46-.18,2.05-.56.6-1.27.35-1.91.08-1.45-.61-2.48-1.79-3.72-2.69-2.27-1.64-4.54-3.28-6.78-4.96-.88-.65-1.64-1.47-2.54-2.07-2.02-1.36-3.94-2.84-5.81-4.38-2.1-1.73-3.36-3.92-3.92-6.64-.39-1.89-.75-3.79-1.06-5.7-.62-3.89-1.27-7.77-1.8-11.67-.68-5.06-1.27-10.14-2.17-15.16-.47-2.64-.98-5.28-1.59-7.89-.48-2.06-.52-4.17-1.08-6.23-1-3.68-1.85-7.39-3.58-10.82-.34-.68-.88-1.14-1.64-1.37-1.05-.32-1.55-.02-1.61,1.08-.03.69,0,1.38,0,2.08Z"/>
  <path class="cls-1" d="m48.52,67.99c0,4.61,0,9.21,0,13.82.01,5.27-2.67,9.12-6.43,12.45-1.29,1.14-2.73,2.04-4.2,2.9-1.12.66-2.4.94-3.65,1.23-.62.14-1.37.05-1.59-.76-.19-.72-.27-1.48.54-1.94.93-.54,1.72-1.25,2.87-1.48,1.28-.26,2.26-1.26,3.27-2.08,2.66-2.14,4.81-4.65,5.66-8.07.11-.45.12-.88.12-1.33,0-9.74,0-19.48,0-29.23,0-.99-.24-1.86-.98-2.52-.86-.77-1.9-.52-2.54.47-.85,1.32-.96,2.8-1.18,4.3-.68,4.51-.54,9.09-1.17,13.6-.22,1.56-.31,3.14-.53,4.7-.11.81-.08,1.81-1.12,2.1-1.14.31-1.92-.42-2-1.82-.11-2,.05-3.99.35-5.96.34-2.21.41-4.45.59-6.67.3-3.72.54-7.44,1.5-11.07.83-3.12,4.96-4.6,7.57-2.78,2.03,1.41,2.88,3.36,2.9,5.73.04,4.81.01,9.62.01,14.43h0Z"/>
  <path class="cls-1" d="m55.01,69.01c0,4.16.08,8.31-.02,12.47-.12,5.3,2.97,8.56,6.81,11.51,1.54,1.19,3.53,1.37,4.99,2.64.58.5,1.09.96.76,1.71-.35.8-1.05,1.31-1.98,1.03-2.3-.7-4.48-1.74-6.32-3.28-.8-.67-1.72-1.18-2.45-1.98-1.67-1.84-3.18-3.82-4.21-6.06-.71-1.53-.84-3.31-.85-5-.05-9.29-.01-18.59-.03-27.88,0-1.35.29-2.67.58-3.96.57-2.6,4.94-4.11,7.11-2.63,2.05,1.4,3.12,3.26,3.34,5.75.6,6.8,1.26,13.6,1.65,20.41.02.28,0,.57,0,.86,0,.79-.32,1.37-1.13,1.5-.87.14-1.58-.21-1.8-1.08-.23-.94-.33-1.92-.42-2.89-.52-5.91-1-11.83-1.52-17.74-.07-.76-.29-1.51-.5-2.25-.26-.91-.91-1.48-1.84-1.54-.97-.06-1.5.45-1.78,1.45-.35,1.28-.46,2.56-.46,3.86-.01,4.36,0,8.72,0,13.08.03,0,.05,0,.08,0Z"/>
  <path class="cls-1" d="m13.44,52.42c-3.02,0-6.03-.02-9.05.02-.77,0-1.35-.27-1.84-.78-.82-.85-.54-2.08.54-2.55.5-.22,1-.33,1.54-.33,5.83,0,11.66,0,17.49.02,1.81,0,1.96.25,1.99,2.06.01,1.19-.49,1.59-1.61,1.57-3.02-.03-6.03-.01-9.05-.01Z"/>
  <path class="cls-1" d="m86.64,52.41c-2.97,0-5.94,0-8.91,0-1.32,0-1.78-.51-1.8-1.87-.02-1.22.49-1.75,1.78-1.75,6.06-.01,12.12,0,18.19,0,1.36,0,2.02.53,2.04,1.56.02,1.3-.66,2.05-2.02,2.06-3.09.04-6.18.01-9.28.01h0Z"/>
  <path class="cls-1" d="m91.64,27.03c.03.62-.21,1.07-.77,1.4-2.08,1.23-4.02,2.65-6.25,3.65-1.54.69-2.88,1.84-4.41,2.56-1.94.91-3.61,2.26-5.54,3.16-.78.36-1.33.12-1.75-.57-.44-.71-.71-1.45.12-2.05,1.7-1.23,3.46-2.35,5.32-3.34,1.71-.92,3.29-2.09,5.02-2.97,2.05-1.04,4-2.25,6.05-3.28,1.25-.62,2.18.05,2.22,1.43Z"/>
  <path class="cls-1" d="m27.71,36.22c-.04,1.02-1.27,1.85-2.22,1.58-.68-.19-1.2-.66-1.79-1-1.75-1.02-3.57-1.91-5.28-2.99-2.83-1.78-5.99-3.02-8.65-5.09-.43-.34-1.09-.29-1.38-.91-.32-.71-.29-1.34.16-1.95.49-.65,1.15-.56,1.77-.28.96.43,1.93.87,2.83,1.42,2.6,1.62,5.3,3.08,7.95,4.61,1.81,1.05,3.58,2.18,5.43,3.18.57.31,1.29.63,1.19,1.44Z"/>
  <path class="cls-1" d="m22.64,67.35c.04.6-.34,1.09-.88,1.41-2.69,1.61-5.35,3.29-8.15,4.71-.97.49-1.94,1.02-2.93,1.47-.82.38-1.67.54-2.23-.43-.5-.86-.16-1.73.78-2.37,2.92-1.96,6.17-3.33,9.13-5.23.73-.46,1.6-.7,2.38-1.14.9-.51,1.92.36,1.89,1.58Z"/>
  <path class="cls-1" d="m91.7,73.65c.03,1.13-.56,1.69-1.59,1.54-.35-.05-.72-.17-1.03-.34-1.6-.86-3.28-1.63-4.76-2.66-1.91-1.33-4.11-2.1-6.01-3.41-.47-.32-.9-.61-.95-1.31-.05-.67.02-1.2.6-1.6.58-.4,1.14-.3,1.72,0,3.56,1.79,6.96,3.89,10.43,5.84.8.45,1.42,1.07,1.59,1.95Z"/>
  <path class="cls-1" d="m32.39,16.56c-.08.88-.18,1.42-.95,1.64-.86.25-1.64.23-2.13-.56-.81-1.29-1.54-2.64-2.28-3.97-.47-.84-.89-1.72-1.37-2.56-.53-.92-.68-1.76.34-2.43.98-.64,1.63-.16,2.21.67,1.45,2.09,2.8,4.25,3.93,6.53.14.29.28.59.26.68Z"/>
  <path class="cls-1" d="m68.92,18.23c-1.37-.08-1.72-.55-1-2.04,1.13-2.32,2.33-4.62,3.76-6.78.73-1.1,1.49-1.27,2.45-.61.94.65.66,1.51.24,2.27-1.17,2.12-2.43,4.19-3.6,6.31-.37.67-.85.93-1.86.85Z"/>
  <path class="cls-1" d="m48.54,5.56c0-.86,0-1.71,0-2.57,0-.82.23-1.44,1.22-1.47.96-.03,1.82.21,1.88,1.27.1,1.83.09,3.67-.01,5.49-.05.9-.66,1.45-1.7,1.31-.95-.13-1.48-.54-1.4-1.59.06-.81.01-1.63.01-2.44Z"/>
</svg>