<?xml version="1.0" encoding="utf-8"?>
<!-- Generator: Adobe Illustrator 27.6.1, SVG Export Plug-In . SVG Version: 6.00 Build 0)  -->
<svg version="1.1" id="Layer_1" xmlns="http://www.w3.org/2000/svg" xmlns:xlink="http://www.w3.org/1999/xlink" x="0px" y="0px"
	 viewBox="0 0 100 100" style="enable-background:new 0 0 100 100;" xml:space="preserve">
<style type="text/css">
	.st0{fill:#8139E7;}
	.st1{fill:#DF5311;}
	.st2{fill:#FFFFFF;}
</style>
<g>
	<g>
		<g>
			<path class="st2" d="M49.9,95c-1.5,0-3-0.7-4.1-1.8c-0.5-0.6-1.1-1.1-1.6-1.7c-1-1.1-2.1-2.2-3.2-3.4c-1-1.1-2-2.2-3-3.2
				c-0.7-0.7-1.4-1.4-2-2.1c-2.2-2.3-4.3-4.6-6.4-7c-2-2.2-4.1-4.4-6.1-6.6c-1-1.1-2-2.2-3-3.2c-0.9-1-1.9-2-2.8-3l-0.8-0.8
				c-2.4-2.5-4.8-5.2-7.2-7.8c-3-3.3-5.2-6.9-6.5-10.8c-1-3.1-1.6-5.9-1.6-8.6c0-1.8,0-3.4,0.1-4.9c0.1-2.3,0.7-4.4,1.2-6
				c0.7-2.2,1.8-4.4,3.2-6.7c2.1-3.3,4.9-6.1,8.3-8.3c2-1.3,4.3-2.3,6.8-3.1c2.5-0.7,4.8-1,7.1-0.9c6.4,0.1,12,2.2,16.7,6.3
				c1.9,1.6,3.5,3.4,5.2,5.2c1-1.1,2.1-2.4,3.3-3.6c1.4-1.4,3.1-2.7,5.1-4c2.8-1.8,6-3,9.5-3.6c2-0.3,4.2-0.4,6.8-0.1
				c2.3,0.2,4.5,0.8,6.7,1.7c2.5,1,4.7,2.4,6.8,4.4c2.6,2.4,4.8,5.1,6.4,7.9c1.1,1.9,1.9,4,2.6,6.6c0.7,2.6,1.1,5.4,1.1,8.1
				c0,3-0.6,6.2-1.7,9.5c-1.3,4.1-3.7,7.8-7.2,11.4c-2,2.1-4,4.3-5.9,6.4c-1.1,1.2-2.2,2.4-3.3,3.6c-1.3,1.4-2.6,2.8-3.9,4.2
				c-1.6,1.7-3.3,3.5-4.9,5.2c-0.5,0.5-0.9,1-1.4,1.6c-0.7,0.9-1.5,1.7-2.4,2.6c-1.3,1.2-2.5,2.6-3.7,3.9c-1,1.1-2,2.2-3,3.3
				c-2.6,2.7-5.2,5.5-7.1,7.7C53,94.3,51.6,95,49.9,95C50,95,50,95,49.9,95z M27.4,8.7c-1.7,0-3.4,0.3-5.2,0.8
				c-2.2,0.6-4.1,1.5-5.8,2.6c-3,2-5.4,4.3-7.2,7.2c-1.3,2-2.2,3.9-2.8,5.9c-0.4,1.4-1,3.2-1.1,5.1c-0.1,1.4-0.1,2.9-0.1,4.6
				c0,2.3,0.5,4.8,1.4,7.5c1.1,3.3,3,6.5,5.7,9.5c2.4,2.6,4.8,5.2,7.1,7.7l0.8,0.8c0.9,1,1.8,2,2.8,2.9c1,1.1,2,2.2,3.1,3.3
				c2,2.2,4.1,4.4,6.1,6.6c2.1,2.3,4.3,4.6,6.4,7c0.6,0.7,1.3,1.4,2,2.1c1,1.1,2.1,2.2,3.1,3.3c1,1.1,2,2.2,3.1,3.3
				c0.5,0.6,1.1,1.1,1.6,1.7c0.4,0.4,0.9,0.7,1.4,0.7c0,0,0,0,0,0c0.5,0,1-0.2,1.4-0.7c1.9-2.2,4.5-5,7.2-7.8c1-1,2-2.1,2.9-3.2
				c1.2-1.4,2.5-2.8,3.8-4.1c0.7-0.7,1.4-1.5,2.1-2.4c0.5-0.6,1-1.1,1.5-1.7c1.6-1.7,3.3-3.5,4.9-5.2c1.3-1.4,2.6-2.8,3.9-4.2
				c1.1-1.2,2.2-2.4,3.3-3.6c2-2.1,4-4.3,6-6.4c3.1-3.2,5.2-6.5,6.3-10.1c1-3,1.5-5.7,1.5-8.4c0-2.4-0.3-4.8-0.9-7.2
				c-0.6-2.3-1.4-4.1-2.3-5.7c-1.4-2.5-3.4-4.9-5.7-7c-1.8-1.6-3.7-2.8-5.7-3.7c-1.9-0.7-3.7-1.2-5.7-1.4c-2.2-0.2-4.1-0.2-5.8,0.1
				c-3,0.5-5.8,1.5-8.1,3.1c-1.8,1.2-3.2,2.3-4.5,3.6c-1.5,1.5-2.9,3.1-3.9,4.3c-0.2,0.3-0.9,1.1-2,1.1c0,0,0,0,0,0
				c-1,0-1.7-0.7-2-1c-1.8-2.1-3.6-4-5.6-5.8c-4.1-3.6-8.8-5.3-14.4-5.4l-0.1,0C27.9,8.7,27.6,8.7,27.4,8.7z M54.1,69.4
				C54.1,69.4,54.1,69.4,54.1,69.4c-3,0-5.7,0-8.2,0c-0.3,0-1.3,0-2-0.7c-0.7-0.7-0.7-1.6-0.7-1.9c0-3.2,0-6.5,0-9.7l0-2.2
				c-3.1,0-6.3,0-9.4,0l-1.4,0c-1.1,0-2,0-2.8-0.7c-0.8-0.7-0.8-1.7-0.8-2.8c0-0.7,0-1.3,0-2c0-1.7,0-3.4,0-5.2c0-0.3,0-1.3,0.7-2
				c0.7-0.7,1.7-0.7,2-0.7c2,0,4.1,0,6.1,0c1.9,0,3.8,0,5.6,0c0-1.9,0-3.8,0-5.7c0-2,0-4.1,0-6.1c0-0.3,0-1.2,0.7-1.9
				c0.7-0.7,1.6-0.7,1.9-0.7c2.9,0,5.5,0,8,0c0.3,0,1.3,0,2,0.7c0.7,0.7,0.7,1.7,0.7,2c0,2.1,0,4.2,0,6.2c0,1.8,0,3.6,0,5.4
				c1.8,0,3.7,0,5.5,0c2.1,0,4.2,0,6.4,0c0.3,0,1.3,0,2,0.7c0.7,0.7,0.7,1.7,0.7,2c0,2.8,0,5.7,0,8.2c0,0.4,0,1.2-0.7,1.9
				c-0.7,0.7-1.5,0.7-1.9,0.7c-3,0-6,0-9,0c-1,0-2.1,0-3.1,0c0,1.2,0,2.5,0,3.7l0,3.5c0,1.6,0,3.2,0,4.8c0,0.3,0,1.2-0.7,1.9
				C55.5,69.2,54.9,69.4,54.1,69.4z M49.8,65.7c1,0,2.1,0,3.1,0c0-1.3,0-2.5,0-3.7l0-3.5c0-1.6,0-3.2,0-4.8c0-0.8,0.2-1.4,0.7-1.9
				c0.5-0.5,1.1-0.7,1.8-0.7c0,0,0,0,0,0c1.4,0,2.9,0,4.3,0c2.6,0,5.2,0,7.8,0c0-1.9,0-4,0-6c-1.8,0-3.6,0-5.4,0c-2.2,0-4.4,0-6.6,0
				c-0.3,0-1.2,0-1.9-0.7c-0.7-0.7-0.7-1.6-0.7-2c0-2.2,0-4.3,0-6.5c0-1.8,0-3.5,0-5.3c-1.9,0-3.9,0-6,0c0,1.7,0,3.4,0,5.1
				c0,2.2,0,4.5,0,6.7c0,0.3,0,1.3-0.7,2c-0.7,0.7-1.6,0.7-1.9,0.7c-2.2,0-4.5,0-6.7,0c-1.7,0-3.4,0-5.1,0c0,1.4,0,2.8,0,4.2
				c0,0.6,0,1.2,0,1.8l1.3,0c3.4,0,6.7,0,10.1,0c2.2,0,3.1,0.8,3.1,3l0,2.9c0,2.8,0,5.7,0,8.6C47.9,65.7,48.8,65.7,49.8,65.7z"/>
		</g>
		<path class="st2" d="M84.9,46L84.9,46c-0.8-0.5-1.1-1.6-0.6-2.4c4.9-9,0.9-16.5-1.1-19.4c-0.5-0.8-0.4-1.8,0.3-2.4l0,0
			c0.8-0.7,2.1-0.6,2.7,0.3c0.9,1.3,2.2,3.5,3,6.2c1.3,4.1,2,10.2-1.7,17.1C87,46.3,85.8,46.6,84.9,46z"/>
		<circle class="st2" cx="80.6" cy="18" r="2"/>
	</g>
</g>
</svg>
