<?xml version="1.0" encoding="UTF-8"?>
<svg id="Layer_1" data-name="Layer 1" xmlns="http://www.w3.org/2000/svg" viewBox="0 0 100 100">
  <defs>
    <style>
      .cls-1 {
        fill: #fff;
      }
    </style>
  </defs>
  <path class="cls-1" d="m95.4,82.09c-1.6-1.91-3.55-3.45-5.32-5.19-1.89-1.86-3.91-3.6-5.86-5.41-2.1-1.95-4.18-3.93-6.28-5.89-.63-.59-1.54-.75-2.19-.3-.46.32-.84.77-1.2,1.21-.27.32-.41.33-.73.02-1.2-1.18-2.44-2.33-3.68-3.46-.34-.31-.39-.55-.09-.91.94-1.1,1.6-2.39,2.32-3.63,1.24-2.12,2.23-4.35,3.01-6.68.5-1.49.89-3,1.23-4.54.29-1.35.52-2.7.61-4.07.13-2.17.12-4.33,0-6.5-.11-2-.5-3.96-.97-5.89-.35-1.45-.84-2.86-1.35-4.27-.76-2.07-1.68-4.05-2.82-5.91-1.69-2.75-3.68-5.27-5.98-7.56-2.32-2.31-4.91-4.27-7.74-5.87-2.82-1.6-5.83-2.81-9-3.59-2.45-.6-4.9-1.06-7.43-1.23-3.54-.23-7.04.13-10.46.89-2.65.59-5.23,1.53-7.72,2.69-3.63,1.69-6.81,4-9.72,6.7-2.28,2.11-4.19,4.54-5.88,7.14-1.2,1.86-2.28,3.81-3.06,5.85-.87,2.27-1.59,4.61-2.03,7.04-.41,2.26-.77,4.51-.71,6.92-.13,3.17.36,6.39,1.17,9.53.78,3.01,1.93,5.9,3.46,8.64,1.39,2.49,3.02,4.78,4.85,6.95,2.03,2.41,4.41,4.4,6.98,6.19,2.13,1.49,4.43,2.67,6.82,3.63,1.72.69,3.49,1.22,5.3,1.67,1.87.46,3.76.89,5.66,1.01,3.22.21,6.48.23,9.67-.44,2.87-.61,5.7-1.35,8.41-2.55,2.68-1.19,5.19-2.62,7.53-4.36.41-.31.6-.1.82.14.93.99,1.82,2.01,2.77,2.99,1.02,1.06,1.04,1.04.04,2.09-.92.97-1.02,1.81-.2,2.7,2.29,2.5,4.57,5.02,6.93,7.45,2.13,2.18,4.1,4.51,6.25,6.67,1.29,1.29,2.37,2.79,3.9,3.85,2.91,2.03,6.05,2.43,9.27,1.06,2.82-1.2,4.68-3.35,5.38-6.42.71-3.12.06-5.9-1.98-8.35Zm-57.51-7.89c-16.84-.87-33.16-15.28-32.41-35.81C6.12,20.94,20.86,5.25,39.92,5.55c18.99-.29,34.31,15.71,34.36,34.17.05,18.87-15.79,35.54-36.39,34.48Zm30.83-2.58c-.87-.97-1.75-1.94-2.66-2.89-.32-.33-.37-.56,0-.89.6-.54,1.16-1.13,1.7-1.73.33-.37.56-.51.99-.08.92.92,1.9,1.77,2.86,2.65.1.09.19.18.19.37-.06.1-.12.25-.23.35-.74.74-1.49,1.46-2.23,2.21-.24.24-.39.27-.63,0Zm24.58,20.48c-1.21,1.55-2.92,2.33-5.16,2.4-1.7-.04-3.29-.8-4.6-2.24-2.48-2.72-4.92-5.49-7.5-8.11-2.23-2.27-4.24-4.74-6.56-6.91-.59-.55-.55-.88,0-1.41,1.24-1.19,2.47-2.41,3.69-3.62,1.08-1.08,2.17-2.16,3.23-3.26.3-.31.37-.1.58.09,2.41,2.1,4.63,4.4,7.02,6.52,2.94,2.6,5.68,5.41,8.62,8.01,2.57,2.28,2.5,6.2.68,8.53Z"/>
  <g>
    <path class="cls-1" d="m60.54,45.45c0-.49-.01-.98-.02-1.47,0-.47-.12-.85-.35-1.18-.24-.35-.75-.6-1.2-.6-.2,0-.38.05-.53.15-.55.39-.83.93-.83,1.61,0,2.46,0,4.92,0,7.37,0,1.15-.97,1.86-1.91,1.87-.72.01-1.5.02-2.44.02-.64,0-1.27,0-1.91,0-.63,0-1.26,0-1.9,0-.26,0-.53-.06-.78-.18-.79-.36-1.2-1.01-1.21-1.92-.03-2.06-.01-4.14,0-6.14,0-.51-.07-.98-.23-1.44-.14-.4-.36-.7-.58-.99l-.04-.05c-.75-1.02-1.83-1.59-3.05-1.63-.9-.02-1.88-.04-3.07-.04-.72,0-1.43,0-2.15,0-.64,0-1.28,0-1.92,0-.79,0-1.47.31-1.98.57-.58.3-1,.76-1.38,1.2-.3.35-.64.82-.67,1.39-.01.23-.04.46-.07.71-.05.39-.09.79-.07,1.21.06,1.16.06,2.34.05,3.48,0,.51,0,1.02,0,1.53,0,.27,0,.58-.07.82-.3.93-.98,1.45-1.92,1.46-.84,0-1.67.01-2.51.01-.79,0-1.58,0-2.37,0h-1.3c-.27,0-.55-.07-.8-.2-.84-.41-1.24-1.09-1.25-2.06,0-4.88,0-9.35,0-13.66,0-.14,0-.29,0-.43,0-.58-.01-1.12.11-1.66.17-.78.46-1.37.91-1.87.39-.44.84-.81,1.31-1.21l.28-.24c.18-.15.36-.31.54-.46.27-.23.53-.46.8-.68.25-.21.49-.42.74-.63.28-.25.57-.5.86-.73.22-.18.43-.38.64-.56.27-.25.53-.49.81-.69.51-.36.98-.78,1.43-1.18l.1-.09c.19-.17.39-.34.59-.5.3-.25.62-.52.91-.8.42-.4.88-.79,1.32-1.16.26-.22.53-.44.79-.67.25-.22.51-.43.77-.64.23-.18.45-.36.67-.55.15-.13.3-.25.46-.37.38-.31.78-.63,1.13-1.03.43-.5,1.07-.8,1.9-.89.31-.03.56-.05.8-.05.38,0,.71.04,1.03.12.69.18,1.24.47,1.7.87.17.15.34.29.51.44.42.36.86.74,1.24,1.14.18.19.39.33.59.45.16.11.32.21.43.32.33.34.69.63,1.04.92.28.23.55.45.8.69.36.34.75.66,1.12.96.22.18.45.36.67.55.14.12.33.25.64.26.02,0,.04,0,.06,0,.73,0,1.33-.49,1.58-1.29.05-.17.07-.44-.15-.75-.33-.46-.77-.82-1.12-1.1-.3-.24-.6-.51-.89-.77-.26-.23-.52-.46-.79-.69-.36-.3-.72-.61-1.07-.92-.22-.19-.44-.38-.66-.57l-.3-.25c-.45-.39-.92-.78-1.39-1.17l-.22-.18c-.6-.49-1.22-1-1.98-1.35-.88-.4-1.82-.61-2.8-.61-.67,0-1.38.1-2.11.28-.63.16-1.14.51-1.64.84-.09.06-.17.11-.26.17-.66.43-1.24.93-1.8,1.42l-.12.1c-.53.45-1.08.92-1.69,1.42-.13.11-.27.21-.4.32-.38.3-.78.61-1.12.97-.3.32-.64.6-1,.9-.15.12-.3.25-.44.37-.75.65-1.54,1.31-2.3,1.94l-.41.34c-.16.14-.33.27-.49.4-.52.42-1.06.86-1.54,1.36-.39.41-.83.75-1.29,1.11-.4.31-.81.63-1.18.99-.14.13-.28.26-.44.39-.3.26-.62.53-.88.87-.56.72-.98,1.55-1.29,2.54l-.07.2c-.13.41-.27.82-.27,1.3,0,2.13,0,4.25,0,6.38v2.15s0,.45,0,.45h0v1.9c0,1.97,0,3.93,0,5.9,0,1.21.43,2.19,1.29,2.92.43.36,1.09.84,1.9.85,1.3,0,2.68.01,4.48.01h2.34s2.34,0,2.34,0h.35c.19,0,.36-.04.52-.07.7-.17,1.27-.51,1.75-1.01.64-.68.99-1.47,1-2.28.02-1.43.02-2.88.02-4.29,0-1.02,0-2.08,0-3.12,0-.52.22-.93.67-1.25.44-.32,1-.32,1.54-.32h1.03c1.31,0,2.67,0,4.01-.02h.06c.42,0,.82.05,1.18.16.42.13.91.86.91,1.37v5.61s0,1.94,0,1.94c0,.15,0,.34.07.54.27.92.75,1.62,1.41,2.09.41.29,1.06.67,1.86.67,1.43,0,2.85,0,4.28,0s2.88,0,4.32.01h.05c.78,0,1.41-.12,1.98-.39,1.13-.53,1.79-1.39,1.84-2.42.07-1.36.14-2.94.14-4.49,0-1.11-.02-2.21-.03-3.32Z"/>
    <path class="cls-1" d="m57.62,33.39c0,.35.05.71.16,1.14.11.43.76,1.01,1.26,1.01.04,0,.07,0,.1,0,.65-.1.97-.45,1.12-.73.21-.39.24-.81.24-1.13,0-.96,0-5.02,0-7.21v-1.22c0-1,0-2.33-.05-3.68-.03-.72-.44-1.04-.79-1.19-.22-.09-.42-.13-.61-.13-.31,0-.59.11-.83.32-.4.36-.61.83-.61,1.42,0,1.34,0,4.46,0,7.21,0,1.75,0,3.34,0,4.2Z"/>
  </g>
  <path class="cls-1" d="m59.05,36.26c-.95,0-1.72.77-1.72,1.72s.77,1.72,1.72,1.72,1.72-.77,1.72-1.72-.77-1.72-1.72-1.72Z"/>
</svg>