<?xml version="1.0" encoding="UTF-8"?>
<svg id="Layer_1" data-name="Layer 1" xmlns="http://www.w3.org/2000/svg" viewBox="0 0 100 100">
  <defs>
    <style>
      .cls-1 {
        fill: #fff;
      }
    </style>
  </defs>
  <path class="cls-1" d="m27,30.37c-1.79,5.58-2.52,10.83.64,15.93,1.49,2.4,3.59,4.17,6.01,5.52,2.97,1.65,6.02,3.15,9.04,4.71.81.42,1.53.94,2.19,1.56,2.14,2,2.38,4.35.79,6.86-1.91,3.02-4.75,4.83-7.95,6.1-5.37,2.12-10.82,1.74-16.35.57-1.95-.41-3.2-1.47-4.39-2.82-4.85-5.45-9.01-11.36-11.66-18.2-3.06-7.9-4.64-16.06-2.45-24.45,1.85-7.1,6.32-12.28,12.93-15.47,7.53-3.63,15.06-3.36,22.48.37,3.69,1.85,6.7,4.53,8.91,8.04,2.03,3.22,3.4,3.19,5.55.02,4.08-6.02,9.83-9.51,16.95-10.78.91-.16,2.01-.34,2.27,1.02.26,1.39-.74,1.71-1.78,1.88-6.82,1.11-12,4.64-15.68,10.48-2.28,3.61-6.77,3.58-9.07-.06-2.71-4.28-6.39-7.32-11.08-9.26-7.66-3.16-18.16-.6-23.68,5.57-5.61,6.27-6.52,13.54-5.34,21.43,1.59,10.61,6.8,19.34,13.78,27.25,2.19,2.48,5.04,2.63,7.82,2.9,4.78.48,9.35-.41,13.41-3.21,1.1-.75,2-1.67,2.73-2.74,1.21-1.76.92-2.81-.89-3.97-2.54-1.62-5.35-2.69-7.99-4.12-2.97-1.61-5.75-3.45-7.9-6.1-3.41-4.18-4.27-9.01-3.5-14.22.36-2.42,1.06-4.75,1.82-7.08.39-1.19,1.05-2.12,2.36-2.19,1.33-.07,2.05.84,2.5,2,.14.35.14.81.68.99.3-1.09.63-2.18.9-3.27.47-1.84,1.56-3.34,2.66-4.82.72-.96,2.17-.8,2.56.32,1.65,4.81,5.66,7.02,9.9,8.73,7.28,2.94,12,7.89,13.53,15.69.02.08.13.13.2.2q.6-.96.47-3c-.22-3.65,1.73-6.74,5.06-8.02,4.27-1.64,9.16.72,10.43,5.09.3,1.04.88,1.6,1.92,1.83,1.17.26,2.31.63,3.47.93,1.04.27,1.68.98,1.77,1.99.08.93-.53,1.56-1.4,1.91-1.25.5-2.46,1.12-3.74,1.51-3.1.96-4.35,3.29-4.84,6.23-.07.39-.08.8-.15,1.19-.17.9-.65,1.51-1.64,1.33-.9-.16-1.33-.74-1.26-1.73.31-4.64,2.21-8.14,6.82-9.76.19-.07.37-.14.54-.23.03-.02.05-.08.08-.14-.04-.38-.42-.37-.66-.47-1.86-.75-3.16-1.91-3.75-3.95-.64-2.21-3.04-3.52-5.31-3.21-2.44.34-4.15,1.96-4.37,4.24-.07.74.06,1.49.06,2.24.01,3.07-1.26,5.48-3.72,7.31-.51.38-1.01.67-1.65.36-.69-.32-.8-.9-.82-1.61-.23-8.03-3.81-13.75-11.41-16.81-4.07-1.64-7.84-3.78-10.55-7.39-.66-.89-.96-.32-1.2.28-.98,2.43-1.29,4.9-.33,7.41.34.9.5,1.76-.47,2.39-.92.6-1.57.05-2.28-.48-1.64-1.23-2.55-3.04-3.98-4.85Z"/>
  <path class="cls-1" d="m95.01,33.36c.72-10.04-6.67-19.59-16.64-21.74-.49-.11-.99-.19-1.46-.34-.81-.27-1.28-.81-1.09-1.7.19-.89.88-1.27,1.69-1.11,1.32.25,2.65.55,3.91,1.01,9.16,3.39,14.74,9.88,16.32,19.55,1.06,6.48-.09,12.81-2.16,18.97-2.49,7.4-6.66,13.78-11.74,19.66-8.47,9.8-18.81,17.1-30.15,23.15-2.38,1.27-4.52,1.58-7,.11-4.55-2.71-9.27-5.13-13.57-8.24-1.47-1.06-1.5-1.59-.31-3.01,4.23-5,9.68-6.31,15.94-5.44,8.66,1.2,17.26-3.45,20.29-11.71.12-.33.28-.64.39-.97.28-.87.89-1.22,1.74-.94.88.29,1.27.92.98,1.87-1.6,5.21-4.8,9.14-9.52,11.83-5.13,2.93-10.65,3.44-16.4,2.7-3.62-.47-6.79.61-9.62,2.89-.9.73-.8,1.11.11,1.7,4.12,2.66,8.33,5.15,12.75,7.28.46.22.79.21,1.25-.02,12.72-6.32,24.12-14.37,33.02-25.57,6.1-7.68,10.29-16.27,11.27-26.18.12-1.24.02-2.5.02-3.75Z"/>
</svg>