<?xml version="1.0" encoding="UTF-8"?>
<svg id="Layer_1" data-name="Layer 1" xmlns="http://www.w3.org/2000/svg" viewBox="0 0 100 100">
  <defs>
    <style>
      .cls-1 {
        fill: #fff;
      }
    </style>
  </defs>
  <path class="cls-1" d="m56,97.4c-12.67,0-25.34,0-38.02,0-1.35,0-1.94-.6-1.94-1.96,0-3.71.03-7.42-.01-11.13-.01-1.34.31-2.61.5-3.92.3-2.09.97-4.07,1.72-6.02.72-1.89,1.74-3.62,2.88-5.29,1.01-1.49,2.15-2.88,3.42-4.16,1.22-1.24,2.56-2.36,3.98-3.38.97-.69,1.96-1.33,3-1.88,1.39-.74,2.83-1.39,4.34-1.86.65-.21,1.3-.44,1.96-.63,2.76-.79,5.57-1.03,8.41-1.03,6.48,0,12.96-.04,19.44,0,2.17.02,4.32.09,6.48.58,2.18.5,4.28,1.16,6.34,2.02,2.51,1.05,4.73,2.51,6.82,4.25,1.95,1.62,3.61,3.49,5.09,5.52,1.6,2.2,2.88,4.62,3.76,7.19,1.07,3.12,1.74,6.34,1.68,9.68-.06,3.42-.01,6.84-.01,10.26,0,1.21-.54,1.75-1.74,1.75-12.7,0-25.39,0-38.09,0h0Zm-.06-3.17c11.95,0,23.9,0,35.85.02.75,0,.9-.2.89-.92-.04-2.82-.07-5.64,0-8.45.06-2.46-.46-4.82-1.12-7.14-.6-2.11-1.55-4.13-2.74-5.99-1.18-1.85-2.54-3.57-4.15-5.07-2.18-2.03-4.56-3.76-7.28-4.99-1.88-.85-3.81-1.54-5.86-1.86-1.06-.16-2.1-.44-3.19-.44-7.85.02-15.69.01-23.54,0-1.27,0-2.53.05-3.79.28-2.28.42-4.48,1.06-6.58,2.04-1.86.87-3.59,1.96-5.22,3.22-.86.66-1.67,1.39-2.43,2.16-1.13,1.16-2.1,2.47-3.03,3.8-.9,1.29-1.71,2.66-2.33,4.09-.81,1.84-1.47,3.75-1.77,5.77-.2,1.33-.46,2.64-.45,4,.02,2.89.03,5.78,0,8.67,0,.64.14.84.82.83,11.97-.02,23.95-.02,35.92-.01Z"/>
  <path class="cls-1" d="m55.94,13.44c11.11.11,19.34,8.66,19.34,19.43,0,10.95-8.44,19.3-19.31,19.38-10.82.08-19.29-8.63-19.32-19.41-.03-10.77,8.67-19.38,19.29-19.39Zm.02,3.17c-8.86-.18-16.03,7.52-16.17,15.82-.16,9.34,7.28,16.58,16.14,16.61,8.78.03,16.34-7.23,16.18-16.62-.15-8.59-7.43-15.9-16.15-15.82Z"/>
  <path class="cls-1" d="m19.75,2.6c9.09.12,15.67,7.14,15.65,15.77-.03,8.96-6.88,15.61-15.61,15.66-8.71.05-15.67-6.68-15.64-15.85.03-8.57,6.78-15.51,15.6-15.58Zm0,3.32c-6.9-.47-12.4,5.92-12.45,12.1-.07,7.46,5.66,12.84,12.42,12.81,7.13-.03,12.41-5.4,12.51-12.51.09-6.59-5.4-12.76-12.48-12.4Z"/>
  <path class="cls-1" d="m21.37,22.54c0,.67,0,1.35,0,2.02,0,.9-.7,1.58-1.59,1.58-.85,0-1.57-.72-1.58-1.61,0-1.35-.02-2.7,0-4.04.01-.45-.13-.57-.57-.57-1.27.03-2.54.03-3.81,0-.57-.01-1.15-.05-1.53-.6-.35-.5-.55-.99-.24-1.6.4-.79,1.09-1.07,1.9-1.09,1.22-.03,2.45-.04,3.67.01.52.02.59-.17.58-.6-.02-1.32-.01-2.65,0-3.97,0-.89.68-1.53,1.58-1.53.95,0,1.57.59,1.58,1.52,0,1.3.02,2.6,0,3.9-.01.51.07.72.66.69,1.17-.06,2.35-.06,3.52,0,.69.03,1.43.11,1.76.92.56,1.36-.03,2.32-1.51,2.36-1.27.03-2.54.02-3.81,0-.46-.01-.64.1-.61.59.04.67,0,1.35.01,2.02Z"/>
</svg>