<?xml version="1.0" encoding="utf-8"?>
<!-- Generator: Adobe Illustrator 27.6.1, SVG Export Plug-In . SVG Version: 6.00 Build 0)  -->
<svg version="1.1" id="Layer_1" xmlns="http://www.w3.org/2000/svg" xmlns:xlink="http://www.w3.org/1999/xlink" x="0px" y="0px"
	 viewBox="0 0 100 100" style="enable-background:new 0 0 100 100;" xml:space="preserve">
<style type="text/css">
	.st0{fill:#8139E7;}
	.st1{fill:#DF5311;}
</style>
<g>
	<g>
		<path class="st0" d="M97.7,76.2c0,3.4,0,6.8,0,10.3c0,1.5-0.8,2.6-1.9,3.5c-1.6,1.4-3.5,2.1-5.4,2.8c-1.7,0.6-3.4,1.2-5.1,1.5
			c-3,0.6-6,1.1-9.1,1.4c-4.4,0.4-8.7,0.3-13,0.2c-3.3-0.1-6.6-0.4-9.8-1c-2.3-0.5-4.6-1.1-6.9-1.7c-1.8-0.5-3.6-1.3-5.2-2.3
			c-0.5-0.3-0.9-0.7-1.4-1.1c-0.3-0.3-0.6-0.3-0.9,0.1c-1.5,1.6-3.2,2.8-5.2,3.8c-1.2,0.6-2.4,1-3.6,1.4c-1.4,0.5-2.9,0.8-4.4,0.8
			c-2.2,0.1-4.4,0.1-6.6-0.4c-2.3-0.5-4.6-1.4-6.6-2.7c-1.9-1.3-3.7-2.8-5.2-4.6c-1.7-2-2.9-4.4-3.8-6.8c-0.5-1.1-0.5-2.5-0.8-3.7
			c-0.4-1.6-0.5-3.2-0.4-4.8c0.1-2.3,0.6-4.5,1.5-6.6c1.8-4.1,4.3-7.8,6.5-11.6c1.7-2.8,3.2-5.8,4.9-8.6c2-3.4,3.8-6.8,5.9-10.1
			c1-1.6,1.8-3.3,2.8-4.9c1.6-2.8,3.2-5.6,4.8-8.3c1.6-2.7,3.2-5.5,4.7-8.2c1.8-3.1,4.3-5.6,7.4-7.5c2-1.3,4.2-2,6.5-2.5
			C50.1,4,52.8,4,55.5,4.5c3,0.5,5.8,1.6,8.3,3.3c3.3,2.1,5.9,4.9,7.6,8.5c1.7,3.8,2.6,7.7,2.1,11.9c-0.3,2.9-1.3,5.6-2.7,8.2
			c-2.3,4.4-4.9,8.6-7.3,12.9c-1.2,2.2-2.5,4.4-3.8,6.5c-0.4,0.7-0.2,1,0.5,0.9c1.3-0.1,2.7,0,4-0.2c2.4-0.3,4.8-0.2,7.2,0
			c1.6,0.2,3.2,0,4.7,0.2c1.9,0.2,3.8,0.4,5.7,0.6c2.2,0.2,4.3,0.7,6.3,1.3c2.8,0.8,5.7,1.8,7.9,3.9c1,0.9,1.7,2,1.7,3.5
			C97.7,69.4,97.7,72.8,97.7,76.2C97.7,76.2,97.7,76.2,97.7,76.2z M69.7,25.8c0-0.8-0.2-1.6-0.2-2.4c-0.1-1.9-0.6-3.7-1.5-5.4
			c-1.7-3.4-4.2-6-7.6-7.8c-2.6-1.4-5.3-2.1-8.2-2.2c-2.5-0.1-5,0.6-7.3,1.5c-3.1,1.1-5.6,3-7.4,5.7c-2.2,3.3-4.1,6.8-6.1,10.3
			c-1.6,2.8-3.2,5.5-4.8,8.3c-1,1.8-2,3.6-3.1,5.4c-0.3,0.5-0.3,0.7,0.2,0.9c0.7,0.3,1.3,0.8,1.9,1.1c2.4,1.3,4.8,2.7,7.1,4
			c3.2,1.9,6.5,3.7,9.7,5.6c3.5,2,7.1,4,10.6,6c1.2,0.7,1.4,0.6,2.1-0.6c0.8-1.3,1.5-2.6,2.3-4c1.6-2.7,3.2-5.4,4.8-8.1
			c1.4-2.4,2.9-4.8,4.3-7.2c0.8-1.4,1.6-2.7,2.1-4.2C69.6,30.4,69.8,28.1,69.7,25.8z M24.3,92.1c1.2-0.2,2.9-0.1,4.5-0.6
			c2.9-0.9,5.4-2.2,7.6-4.3c1.3-1.2,1.8-2.6,1.8-4.3c-0.1-5.5,0-11,0-16.5c0-1.3,0.5-2.5,1.4-3.4c1.5-1.6,3.5-2.6,5.5-3.5
			c0.7-0.3,1.5-0.4,2.2-0.8c0.4-0.3,0.5-0.5,0-0.8c-0.9-0.5-1.7-1.1-2.6-1.6c-1.5-0.9-3-1.7-4.5-2.6c-2.1-1.2-4.2-2.5-6.3-3.7
			c-1.6-1-3.3-1.9-4.9-2.8c-2.2-1.3-4.5-2.6-6.7-3.9c-0.7-0.4-1.1-0.3-1.5,0.4c-0.4,0.8-0.8,1.6-1.3,2.3c-1.4,2.3-2.8,4.7-4.1,7
			c-1.2,2.1-2.5,4.1-3.7,6.2c-0.9,1.5-1.6,3-2.5,4.5c-1.7,2.8-3,5.8-3.1,9.2c-0.1,3,0.3,5.9,1.5,8.6c1.5,3.4,3.7,6.1,7,8
			C17.5,91.1,20.5,92.2,24.3,92.1z M94,79C94,79,94,79,94,79c0-2.2,0-4.4,0-6.5c0-0.7-0.2-0.9-0.8-0.6c-2,1-4.2,1.6-6.3,2.2
			c-2.2,0.6-4.4,1.1-6.7,1.3c-1.8,0.2-3.6,0.4-5.4,0.6c-2.9,0.3-5.9,0.2-8.8,0.2c-4.1,0-8.3-0.5-12.4-1.1c-0.7-0.1-1.2-0.5-1.8-0.6
			c-2.7-0.3-5.3-1.1-7.8-2.1c-1.9-0.7-1.9-0.7-1.9,1.3c0,3.9,0,7.9,0,11.8c0,0.6,0.1,1.2,0.5,1.6c1.1,0.9,2.4,1.6,3.8,2.1
			c2.3,0.8,4.6,1.3,6.9,1.8c2.3,0.5,4.6,0.9,7,1c4.5,0.3,9,0.2,13.5,0.1c2.2-0.1,4.3-0.4,6.5-0.7c1.8-0.2,3.5-0.6,5.3-1
			c2.3-0.6,4.6-1.2,6.7-2.4c1.2-0.7,2-1.5,1.9-3.1C93.9,82.9,94,80.9,94,79z M52.5,70.9c0.3,0,0.6,0,0.8-0.1c1.3-0.6,2.7-1.1,4-1.7
			c3.1-1.4,6.2-2.9,9.3-4.2c2.7-1.2,5.4-2.4,8.1-3.6c0.2-0.1,0.6-0.1,0.6-0.5c-0.1-0.4-0.5-0.5-0.7-0.4c-1.8,0.1-3.5-0.3-5.2-0.4
			c-2.9-0.1-5.7,0.5-8.6,0.5c-2.5,0-4.9,0.6-7.3,0.9c-1.7,0.3-3.3,0.8-4.9,1.2c-2.1,0.6-4.1,1.2-5.8,2.6c-0.7,0.6-0.9,1.3-0.2,1.8
			c0.7,0.5,1.5,1.1,2.3,1.5c1.6,0.7,3.3,1.3,5.1,1.8C50.8,70.5,51.6,70.9,52.5,70.9z M82.3,71.2c0.5,0.2,0.9-0.2,1.4-0.3
			c2.1-0.3,4.1-0.9,6-1.7c1.3-0.6,2.7-1.1,3.8-2.1c0.5-0.4,0.6-1.1,0.2-1.6c-0.6-0.7-1.4-1.2-2.3-1.7c-1.9-1-3.9-1.4-5.9-2
			c-1.2-0.4-2.4-0.4-3.6,0.3c-0.6,0.4-1.3,0.6-2,0.9c-1.9,0.9-3.9,1.7-5.9,2.6c-2.9,1.3-5.8,2.6-8.7,3.9c-1.2,0.6-2.5,1.2-3.8,1.5
			c-0.3,0.1-0.5,0.3-0.5,0.6c0,0.3,0.3,0.3,0.5,0.3c1.3,0.1,2.6,0.3,3.9,0.3c3.3,0,6.6,0.1,9.9-0.3c2.1-0.3,4.2-0.1,6.2-0.8
			C81.7,71.2,82,71.2,82.3,71.2z"/>
		<path class="st0" d="M40.6,20.9c-1.9-0.1-2.6-1.1-1.7-2.9c0.9-1.8,2.3-3.1,3.9-4.3c1.6-1.2,3.4-1.9,5.3-2.5c1-0.3,2.2,0.4,2.4,1.5
			c0.2,0.8-0.6,1.7-1.5,2c-2.3,0.7-4.2,1.8-5.8,3.6c-0.5,0.6-1,1.2-1.4,1.9C41.5,20.6,41.1,21,40.6,20.9z"/>
		<path class="st0" d="M54.2,11c0.9,0,1.8,0.8,1.8,1.8c0,0.9-0.9,1.9-1.7,1.9c-0.8,0-1.8-1.1-1.8-2.1C52.4,11.7,53.2,11,54.2,11z"/>
	</g>
</g>
</svg>
