<?xml version="1.0" encoding="utf-8"?>
<!-- Generator: Adobe Illustrator 27.6.1, SVG Export Plug-In . SVG Version: 6.00 Build 0)  -->
<svg version="1.1" id="Layer_1" xmlns="http://www.w3.org/2000/svg" xmlns:xlink="http://www.w3.org/1999/xlink" x="0px" y="0px"
	 viewBox="0 0 100 100" style="enable-background:new 0 0 100 100;" xml:space="preserve">
<style type="text/css">
	.st0{fill:#8139E7;}
	.st1{fill:#DF5311;}
</style>
<g>
	<g>
		<path class="st0" d="M64.28,16.9c0.93,0.82,1.78,1.57,2.63,2.3c2.25,1.92,4.25,4.08,6.17,6.32c2.21,2.58,4.17,5.33,5.97,8.19
			c0.19,0.3,0.28,0.31,0.56,0.07c1.01-0.88,1.69-2,2.35-3.14c0.66-1.14,0.88-2.42,1.3-3.64c0.36-1.04,1.28-1.31,2.22-1.21
			c1.11,0.12,1.82,0.86,1.91,1.8c0.12,1.32-0.38,2.51-0.83,3.67c-0.99,2.58-2.59,4.77-4.68,6.59c-0.27,0.24-0.26,0.38-0.11,0.7
			c0.87,1.84,1.81,3.66,2.5,5.56c0.73,2.01,1.48,4.01,1.98,6.12c0.29,1.24,0.67,2.49,0.92,3.75c0.7,3.48,1.06,7.01,0.89,10.57
			c-0.02,0.36,0,0.72,0,1.08c0.3,0.08,0.49-0.07,0.61-0.25c1.36-2.01,2.54-4.04,3.03-6.53c0.68-3.46,1.09-6.91,0.91-10.41
			c-0.13-2.4-0.35-4.8-0.9-7.18c-0.61-2.62-1.31-5.19-2.38-7.66c-0.37-0.87-0.1-2.2,0.61-2.78c0.71-0.57,1.53-0.58,2.38-0.24
			c0.52,0.21,0.83,0.65,1.03,1.06c0.5,1.02,0.98,2.09,1.23,3.19c0.23,0.98,0.58,1.93,0.86,2.89c1.52,5.22,1.82,10.55,1.52,15.92
			c-0.12,2.23-0.53,4.46-1.01,6.67c-0.81,3.74-2.11,7.31-3.8,10.72c-2.13,4.28-4.88,8.15-8.21,11.61c-1.56,1.61-3.2,3.12-4.95,4.5
			c-2.17,1.71-4.48,3.23-6.97,4.5c-1.56,0.8-3.13,1.61-4.75,2.25c-2.04,0.8-4.15,1.46-6.3,1.97c-1.87,0.44-3.75,0.79-5.64,1
			c-2.3,0.25-4.62,0.28-6.94,0.24c-2.26-0.05-4.5-0.25-6.72-0.61c-1.19-0.19-2.37-0.48-3.53-0.79c-2.32-0.62-4.62-1.35-6.8-2.34
			c-1.85-0.84-3.66-1.75-5.41-2.8c-2.44-1.46-4.75-3.1-6.89-4.96c-2.36-2.05-4.49-4.33-6.4-6.81c-1.28-1.66-2.44-3.39-3.49-5.18
			c-0.99-1.67-1.8-3.44-2.6-5.21c-0.67-1.48-1.21-3.02-1.67-4.56c-0.59-1.97-1.07-3.99-1.4-6.03c-0.33-2.01-0.51-4.02-0.55-6.05
			c-0.06-3.04,0-6.07,0.47-9.1c0.32-2.06,0.86-4.05,1.34-6.06c0.34-1.43,0.96-2.79,1.5-4.17c0.76-1.97,1.71-3.87,2.74-5.71
			c0.96-1.72,2.03-3.39,3.26-4.94c1.07-1.35,2.18-2.68,3.34-3.95c1.78-1.94,3.77-3.65,5.86-5.26c1.63-1.26,3.35-2.38,5.09-3.44
			c1.18-0.72,2.45-1.32,3.71-1.89c1.42-0.64,2.85-1.3,4.33-1.75c1.67-0.51,3.35-1.03,5.07-1.41c2.01-0.45,4.03-0.72,6.06-0.96
			c2.73-0.34,5.49-0.22,8.22-0.08c2.91,0.15,5.81,0.61,8.66,1.29c2.42,0.57,4.81,1.28,7.08,2.3c2.46,1.11,4.8,2.43,7.04,4
			c3.02,2.12,5.49,4.74,7.71,7.64c0.72,0.94,0.66,2.12-0.1,2.96c-0.59,0.66-1.99,0.86-2.92,0.28c-2.07-1.29-4.35-2.14-6.64-2.83
			c-3.27-0.98-6.63-1.65-10.07-1.84C64.59,16.81,64.52,16.85,64.28,16.9z M58.89,49.97c0-1.5,0-3,0-4.49c0-0.35-0.05-0.62-0.49-0.61
			c-1.25,0.04-2.47-0.27-3.7-0.33c-2.4-0.12-4.7-0.76-6.99-1.36c-2.1-0.55-4.19-1.2-6.16-2.16c-0.66-0.33-1.12-0.34-1.42,0.5
			c-0.12,0.35-0.27,0.73-0.47,1.07c-1.34,2.29-2.36,4.74-3.46,7.14c-1.1,2.4-2.01,4.9-2.96,7.37c-0.49,1.28-0.96,2.57-1.34,3.88
			c-0.71,2.44-1.48,4.86-1.99,7.36c-0.1,0.49,0.01,0.7,0.37,0.85c1,0.42,1.99,0.87,2.99,1.29c1.46,0.62,2.98,1.09,4.5,1.57
			c1.7,0.54,3.4,1.16,5.14,1.49c2.39,0.45,4.76,1.02,7.19,1.34c2.1,0.28,4.21,0.37,6.31,0.57c0.37,0.03,0.52-0.07,0.62-0.47
			c0.21-0.85,0.2-1.73,0.36-2.58c0.57-2.96,0.9-5.97,1.08-8.96C58.74,58.96,59.11,54.47,58.89,49.97z M83.84,63.74
			c-0.22-3.08-0.4-6.16-1.08-9.21c-0.56-2.52-1.23-5-2.07-7.42c-0.68-1.97-1.63-3.85-2.46-5.77c-0.21-0.48-0.61-0.56-0.96-0.31
			c-0.44,0.33-0.96,0.47-1.43,0.71c-1.85,0.94-3.83,1.57-5.83,2.07c-1.91,0.47-3.85,0.83-5.82,0.91c-0.73,0.03-0.93,0.39-0.94,1.12
			c-0.05,4.67,0.17,9.33-0.13,14c-0.31,4.64-0.66,9.27-1.38,13.87c-0.06,0.39-0.17,0.76-0.17,1.16c0,0.48,0.15,0.65,0.64,0.61
			c1.12-0.09,2.25-0.18,3.38-0.19c1.7-0.02,3.35-0.38,4.99-0.71c2.05-0.41,4.07-0.93,6.07-1.61c2.07-0.7,3.98-1.69,5.93-2.62
			c0.27-0.13,0.72-0.25,0.75-0.72C83.43,67.67,83.93,65.73,83.84,63.74z M8.94,49.53c0.02,0.08,0.03,0.26,0.1,0.4
			c0.88,1.7,1.71,3.4,2.82,4.99c1.77,2.52,3.89,4.67,6.21,6.66c2.25,1.92,4.73,3.52,7.25,5.06c0.47,0.29,0.54-0.01,0.58-0.34
			c0.17-1.22,0.57-2.38,0.89-3.56c0.63-2.34,1.41-4.64,2.23-6.91c0.69-1.91,1.45-3.8,2.23-5.68c0.85-2.06,1.76-4.09,2.66-6.12
			c0.78-1.75,1.72-3.43,2.6-5.13c0.13-0.25,0.09-0.32-0.19-0.48c-1.6-0.95-3.15-1.98-4.61-3.14c-2.51-2.01-4.63-4.36-6.33-7.07
			c-0.28-0.44-0.33-0.41-0.74-0.13c-0.41,0.28-0.77,0.62-1.17,0.91c-1.84,1.34-3.48,2.91-5.08,4.54c-1.39,1.41-2.7,2.89-3.84,4.49
			c-1.22,1.72-2.36,3.5-3.29,5.42c-0.55,1.13-1.02,2.3-1.5,3.45C9.43,47.7,9.23,48.59,8.94,49.53z M28.29,80.14
			c-0.14,1.56,0.32,3.41,0.74,5.23c0.22,0.97,0.7,1.95,1.57,2.59c1.13,0.83,2.44,1.35,3.73,1.84c2.17,0.81,4.37,1.49,6.65,1.97
			c2.66,0.56,5.33,0.82,8.03,1.02c1.41,0.1,2.24-0.58,2.92-1.65c1.05-1.66,1.76-3.46,2.41-5.32c0.6-1.72,1.01-3.49,1.57-5.21
			c0.13-0.41,0.18-0.7-0.39-0.74c-1.18-0.09-2.36-0.28-3.54-0.33c-2.9-0.14-5.73-0.77-8.56-1.35c-2.05-0.42-4.06-1.04-6.07-1.64
			c-2.57-0.77-5.08-1.67-7.52-2.77c-0.68-0.31-0.92-0.07-1.01,0.54C28.56,76.13,28.3,77.94,28.29,80.14z M55.75,18.8
			c-0.53,0.55-0.91,0.92-1.25,1.32c-0.94,1.1-1.87,2.21-2.79,3.33c-1.65,2.02-3.21,4.11-4.63,6.29c-1.31,2.01-2.68,4-3.77,6.15
			c-0.44,0.88-0.48,0.97,0.43,1.29c2.13,0.74,4.24,1.5,6.44,2.05c2.63,0.65,5.27,1.11,7.97,1.19c0.35,0.01,0.5-0.09,0.46-0.4
			c-0.18-1.24,0.07-2.5-0.13-3.72c-0.47-2.91-0.66-5.86-1.11-8.78C56.94,24.65,56.33,21.85,55.75,18.8z M56.86,92.25
			c0.08-0.01,0.14-0.01,0.19-0.02c2.43-0.63,4.91-1.06,7.27-1.96c2.11-0.81,4.19-1.7,6.16-2.82c2.06-1.17,4.09-2.37,5.85-3.96
			c2.15-1.94,3.71-4.31,4.91-6.93c0.08-0.17,0.32-0.33,0.15-0.52c-0.19-0.22-0.4,0-0.6,0.08c-1.46,0.57-2.88,1.26-4.39,1.64
			c-1.94,0.49-3.88,1.01-5.88,1.34c-2.87,0.47-5.76,0.71-8.65,0.9c-1.35,0.09-1.41,0.1-1.65,1.41c-0.46,2.53-1.24,4.98-2.2,7.36
			c-0.4,0.99-0.76,1.98-1.32,2.89C56.61,91.81,56.31,92.22,56.86,92.25z M50.72,17.69c0-0.33-0.16-0.32-0.34-0.28
			c-0.47,0.1-0.93,0.2-1.4,0.32c-1.71,0.42-3.48,0.6-5.15,1.18c-0.87,0.31-1.77,0.5-2.65,0.79c-1.91,0.61-3.77,1.33-5.61,2.12
			c-1.24,0.54-2.47,1.12-3.68,1.73c-0.88,0.45-1.71,0.99-2.58,1.47c-0.38,0.21-0.36,0.43-0.14,0.75c0.54,0.79,0.98,1.68,1.62,2.39
			c2.19,2.47,4.68,4.61,7.56,6.27c0.52,0.3,0.64,0.1,0.81-0.23c0.64-1.29,1.43-2.49,2.18-3.71c1.26-2.04,2.57-4.05,3.99-5.99
			c1.64-2.25,3.26-4.51,5.19-6.53C50.6,17.87,50.67,17.75,50.72,17.69z M60.59,19.8c-0.19,0.61,0.21,1.03,0.27,1.51
			c0.35,2.83,0.92,5.63,1.29,8.46c0.4,3.05,0.54,6.11,0.9,9.16c0.18,1.5,0.12,1.51,1.65,1.38c0.14-0.01,0.28-0.04,0.41-0.07
			c1.66-0.38,3.35-0.57,4.99-1.08c1.76-0.55,3.45-1.24,5.12-2.01c0.29-0.13,0.41-0.4,0.19-0.77c-0.39-0.64-0.76-1.29-1.17-1.92
			c-2.42-3.74-5.25-7.13-8.45-10.23C64.17,22.67,62.55,21.1,60.59,19.8z M8.2,57.64c0.36,1.1,0.11,2.02,0.41,2.89
			c0.36,1.03,0.62,2.09,0.94,3.13c0.66,2.14,1.53,4.19,2.58,6.14c1.46,2.73,3.17,5.31,5.18,7.69c1.9,2.24,3.99,4.25,6.27,6.09
			c0.12,0.09,0.21,0.2,0.36,0.12c0.16-0.08,0.11-0.24,0.11-0.38c-0.01-0.85-0.05-1.7-0.05-2.54c0.01-1.92-0.04-3.83,0.21-5.74
			c0.13-0.98,0.32-1.94,0.5-2.9c0.09-0.49,0.09-0.89-0.58-1.19c-1.21-0.54-2.33-1.27-3.44-1.99c-1.6-1.04-3.15-2.14-4.65-3.34
			c-1.7-1.36-3.29-2.84-4.78-4.41C10.25,60.13,9.33,58.96,8.2,57.64z M27.67,20.8c6.46-3.69,13.33-6.11,20.57-7.63
			c-1.52-0.55-2.99-1.03-4.52-1.37c-2.99-0.68-5.98-0.71-8.98-0.35c-1.07,0.13-2.31,0.22-3.15,0.79c-1.94,1.33-3.27,3.28-3.87,5.57
			C27.49,18.7,27.26,19.73,27.67,20.8z M8.94,38.26c0.3-0.33,0.48-0.45,0.56-0.62c0.87-1.69,2.1-3.15,3.31-4.58
			c2.95-3.52,6.32-6.61,10.13-9.21c0.45-0.31,0.59-0.62,0.41-1.18c-0.25-0.8-0.3-1.65-0.32-2.5c-0.03-1.14,0.21-2.25,0.44-3.56
			C16.36,22.4,11.58,29.47,8.94,38.26z M72.75,13.44c-1.14-0.89-2.39-1.55-3.65-2.19c-0.62-0.31-1.3-0.82-1.92-0.72
			c-1.29,0.22-2.52,0.74-3.72,1.81C66.7,12.58,69.74,12.85,72.75,13.44z M61.05,8.57c-1.52-0.2-2.98-0.72-4.5-0.87
			c-0.59-0.06-0.47,0.31-0.28,0.65c0.38,0.67,0.85,1.3,1.08,2.05c0.17,0.55,0.54,0.56,0.88,0.23C59.06,9.83,60.16,9.44,61.05,8.57z
			 M46.37,7.68c1.97,0.78,4.02,1.27,6.07,2.23C50.8,7.02,50.29,7.02,46.37,7.68z"/>
	</g>
</g>
</svg>
