<?xml version="1.0" encoding="utf-8"?>
<!-- Generator: Adobe Illustrator 27.6.1, SVG Export Plug-In . SVG Version: 6.00 Build 0)  -->
<svg version="1.1" id="Layer_1" xmlns="http://www.w3.org/2000/svg" xmlns:xlink="http://www.w3.org/1999/xlink" x="0px" y="0px"
	 viewBox="0 0 100 100" style="enable-background:new 0 0 100 100;" xml:space="preserve">
<style type="text/css">
	.st0{fill:url(#SVGID_1_);}
	.st1{fill:#0A4528;}
</style>
<g>
	<radialGradient id="SVGID_1_" cx="84.2828" cy="26.3147" r="65.102" gradientUnits="userSpaceOnUse">
		<stop  offset="0" style="stop-color:#FFFFFF"/>
		<stop  offset="7.699914e-02" style="stop-color:#E8F7FE"/>
		<stop  offset="0.2382" style="stop-color:#AEE4FB"/>
		<stop  offset="0.4684" style="stop-color:#52C5F7"/>
		<stop  offset="0.5419" style="stop-color:#33BBF5"/>
		<stop  offset="1" style="stop-color:#002F54"/>
	</radialGradient>
	<path class="st0" d="M86,64.9c2.1-2.2,3.1-4.7,3.6-7.5c0.7-3.9,0.9-7.9,0.4-11.9c-0.4-3.8-1.5-7.5-2.9-11.1
		c-0.6-1.7,0.4-3.1,2.1-2.9c0.8,0.1,1.3,0.5,1.6,1.2c2.1,4.8,3.2,9.8,3.4,15.1c0.1,3.9,0,7.8-0.9,11.7c-2.5,10.9-8.2,19.7-17.2,26.3
		C70.2,90.3,63.4,93,55.9,94c-12.5,1.6-23.7-1.5-33.5-9.3C13.8,77.8,8.5,68.8,6.4,58c-0.8-4.2-1-8.4-0.5-12.5
		c1.5-13.1,7.6-23.6,18.2-31.4c5.8-4.3,12.3-6.9,19.3-7.9c4.3-0.7,8.6-0.6,12.9-0.1c5.2,0.6,10.2,2,14.9,4.4
		c4.4,2.3,8.1,5.5,11.1,9.5c0.8,1.1,0.8,2,0.1,2.8c-0.7,0.8-1.8,0.9-2.8,0.3c-2.1-1.1-4.2-2-6.5-2.7c-3-0.9-6.1-1.5-9.3-1.7
		c-0.1,0.5,0.3,0.6,0.5,0.8c5.1,4.2,9.4,9.2,12.9,14.8c0.4,0.6,0.6,0.7,1.1,0.1c1.4-1.6,2.4-3.4,2.9-5.4c0.4-1.5,1.3-2.2,2.4-1.9
		c1.3,0.3,1.9,1.4,1.6,2.8c-0.7,3.3-2.4,6-4.8,8.3c-0.5,0.5-0.5,0.8-0.2,1.4c3.6,7.3,5.8,15,5.8,23.2C86,63.5,86,64.1,86,64.9z
		 M58.5,50.6c0-1.2,0-2.8,0-4.4c0-0.8-0.2-1.1-1-1.1c-5.3-0.3-10.4-1.5-15.2-3.6c-0.9-0.4-1.2-0.2-1.6,0.6c-4.1,8-7.5,16.2-9.5,24.9
		c-0.1,0.6,0,0.8,0.5,1.1c5.3,2.4,10.8,4,16.5,5c2.5,0.4,5.1,0.8,7.6,0.8c0.5,0,0.8-0.1,0.9-0.7c0.3-2.3,0.7-4.6,0.9-6.9
		C58.2,61.3,58.6,56.2,58.5,50.6z M81.8,62.9c0-2.1-0.1-4.1-0.4-6.1C80.6,51.6,79,46.7,76.7,42c-0.3-0.7-0.6-0.7-1.2-0.4
		c-3.6,1.9-7.4,2.9-11.4,3.3c-1.5,0.2-1.5,0.1-1.5,1.6c0.1,5.3,0,10.6-0.4,16c-0.3,3.6-0.7,7.2-1.2,10.8c-0.1,0.6,0,0.8,0.7,0.7
		c2.6-0.2,5.2-0.4,7.8-0.9c4-0.8,7.9-2,11.4-4.1c0.4-0.2,0.5-0.4,0.6-0.9C81.8,66.5,81.8,64.7,81.8,62.9z M27.2,65.8
		c0.1-0.3,0.2-0.6,0.2-0.8c2.2-8.6,5.5-16.8,9.5-24.7c0.6-1.1,0.6-1.1-0.5-1.8c-3.8-2.4-7.1-5.2-9.5-9.1c-0.3-0.4-0.4-0.4-0.8-0.1
		c-1.6,1.2-3.1,2.5-4.6,3.8c-4.6,4.4-8.1,9.5-10,15.6c-0.1,0.5-0.2,0.9,0,1.4c0.9,2.2,2.1,4.2,3.6,6C18.6,60.1,22.6,63.2,27.2,65.8z
		 M29.7,78c0,1.2,0,2.5,0.2,3.7c0.4,2.4,1.4,4.2,3.8,5.2c4.9,2,9.9,3.2,15.2,3.4c1.3,0.1,2.2-0.4,2.9-1.5c1.8-2.8,2.7-5.9,3.5-9.1
		c0.4-1.7,0.8-1.6-1.3-1.7c-4.8-0.4-9.6-1.2-14.2-2.5c-3-0.8-6-1.9-8.8-3.1c-0.6-0.3-0.9-0.2-0.9,0.5C29.9,74.6,29.7,76.2,29.7,78z
		 M55.4,20.8c-0.1,0.1-0.2,0.1-0.2,0.1c-4.5,4.9-8.2,10.3-11.6,16c-0.3,0.6-0.1,0.7,0.4,0.9c2.2,0.9,4.5,1.7,6.8,2.2
		c2.2,0.5,4.5,0.9,6.8,1c0.3,0,0.7,0.1,0.7-0.4c-0.2-1.1-0.1-2.2-0.2-3.3c-0.4-3.8-0.8-7.6-1.5-11.4C56.2,24.2,56,22.4,55.4,20.8z
		 M79.7,74.3c-0.4,0.1-0.5,0.2-0.7,0.2c-5.8,2.4-11.8,3.5-18,3.5c-0.9,0-1.1,0.3-1.3,1.1c-0.7,3.2-1.6,6.3-3.1,9.3
		c-0.2,0.4-0.5,0.7-0.5,1.2c0.1,0,0.2,0.1,0.2,0c6.2-1,11.9-3.4,17-7.1C76.4,80.6,78.3,77.8,79.7,74.3z M50.9,19.3
		c-0.9,0.1-1.5,0.2-2.1,0.3c-6.2,1.3-12.2,3.4-17.7,6.5c-0.8,0.4-0.9,0.8-0.4,1.5c2,3.1,4.8,5.5,7.9,7.4c0.7,0.4,1,0.4,1.4-0.3
		c1.8-3.3,3.9-6.4,6-9.4C47.6,23.3,49.2,21.4,50.9,19.3z M60.1,21.6c-0.2,0.4-0.1,0.6,0,0.9c0.7,3.5,1.3,7,1.6,10.5
		c0.3,2.4,0.5,4.8,0.6,7.2c0,0.6,0.2,0.8,0.9,0.7c0.6-0.1,1.3-0.2,2-0.3c2.9-0.4,5.7-1.3,8.4-2.6c0.6-0.3,0.8-0.5,0.3-1.2
		c-2.6-4.1-5.6-7.9-9.2-11.3C63.3,24.1,61.9,22.7,60.1,21.6z M25.7,82c0-0.4,0-0.6,0-0.7c-0.4-3.3-0.1-6.7,0.4-9.9
		c0.2-1.1-0.2-1.6-1.1-2c-4.4-2.4-8.3-5.4-11.7-9.1c-0.9-0.9-1.6-1.9-2.4-2.9c-0.1,0.1-0.2,0.1-0.3,0.2C12.5,67.5,17.6,75.5,25.7,82
		z M48.6,15.3c-4.5-1.7-9-2.4-13.7-1.5C34,14,33.1,14,32.4,14.7c-2.1,1.8-3.4,4.1-3.5,6.9c0,0.3-0.1,0.6,0.1,0.8
		c0.3,0.2,0.5-0.1,0.8-0.3c3.1-1.7,6.4-3.1,9.7-4.3C42.5,16.8,45.5,16,48.6,15.3z M25,18.7C18.5,23.9,14,30.4,11.6,38.4
		c0.4,0,0.4-0.3,0.5-0.4c3.1-4.6,6.8-8.5,11.3-11.7c1.1-0.8,2-1.5,1.4-3c0-0.1,0-0.3,0-0.4C24.7,21.5,24.7,20.1,25,18.7z M71.1,15.5
		c0-0.5-0.3-0.5-0.5-0.6c-0.9-0.7-1.9-1.1-3-1.6C66,12.6,64.3,13,63,14.5C65.7,14.7,68.4,15,71.1,15.5z M55.7,10.2
		c0.5,0.9,0.9,1.8,1.4,2.6c0.1,0.3,0.3,0.4,0.6,0.2c0.9-0.7,1.9-1.3,2.9-2C58.9,10.5,57.4,10.3,55.7,10.2z M52.3,12.2
		c-0.6-1.1-1.1-2-2.1-2.3c-1.3-0.3-2.6,0.1-3.9,0.2C48.2,10.7,50.1,11.3,52.3,12.2z"/>
</g>
</svg>
